<svg width="264" height="294" viewBox="0 0 264 294" fill="none" xmlns="http://www.w3.org/2000/svg">
<path d="M114 75L114 287" stroke="#F9C015" stroke-width="13" stroke-linecap="square"/>
<path d="M140.607 15.4369V56.9164L254.987 120.497V80.0009L140.607 15.4369ZM131.594 0L264 74.7385V135.819L131.594 62.2184V0Z" fill="#091020"/>
<path d="M5.49194 126.255L39.7477 148.811V202.125L98.3065 278.653L98.3048 76L39.7477 108.404L39.7495 147.369" stroke="#FCC215" stroke-width="9"/>
<path d="M123.393 15.4369L9.0127 80.0009V120.497L123.393 56.9164V15.4369ZM132.406 0V62.2184L0 135.819V74.7385L132.406 0Z" fill="#091020"/>
<path d="M258.117 122.935L221.963 148.36V201.098L142.788 254.739V192.25L171.423 174.117V79L221.963 107.948V146.928" stroke="#091020" stroke-width="9"/>
</svg>
