<svg id="advEngg" xmlns="http://www.w3.org/2000/svg" width="95.117" height="95.117" viewBox="0 0 95.117 95.117">
  <ellipse id="Ellipse_302" data-name="Ellipse 302" cx="1.5" cy="2" rx="1.5" ry="2" transform="translate(42.722 42)" fill="#091020"/>
  <path id="Path_683" data-name="Path 683" d="M90.776,44.8a1.585,1.585,0,0,0,1.585-1.585V33.484a6.341,6.341,0,1,0-3.171,0v8.148H62.241V36.876H57.485V9.927h8.148a6.341,6.341,0,1,0,0-3.171H55.9a1.585,1.585,0,0,0-1.585,1.585V36.876H51.144V21.023H47.973V36.876H44.8V8.341a1.585,1.585,0,0,0-1.585-1.585H33.484a6.341,6.341,0,1,0,0,3.171h8.148v26.95H36.876v4.756H9.927V33.484a6.341,6.341,0,1,0-3.171,0v9.734A1.585,1.585,0,0,0,8.341,44.8H36.876v3.171H21.023v3.171H36.876v3.171H8.341A1.585,1.585,0,0,0,6.756,55.9v9.734a6.341,6.341,0,1,0,3.171,0V57.485h26.95v4.756h4.756V89.19H33.484a6.341,6.341,0,1,0,0,3.171h9.734A1.585,1.585,0,0,0,44.8,90.776V62.241h3.171V78.093h3.171V62.241h3.171V90.776A1.585,1.585,0,0,0,55.9,92.361h9.734a6.341,6.341,0,1,0,0-3.171H57.485V62.241h4.756V57.485H89.19v8.148a6.341,6.341,0,1,0,3.171,0V55.9a1.585,1.585,0,0,0-1.585-1.585H62.241V51.144H78.093V47.973H62.241V44.8ZM51.144,57.485H41.632V54.314h9.512Zm-4.756-6.341a4.756,4.756,0,1,1,4.756-4.756A4.756,4.756,0,0,1,46.388,51.144Zm11.1,0H54.314V41.632h3.171Z" transform="translate(-2 -2)" fill="#091020"/>
</svg>
