<svg xmlns="http://www.w3.org/2000/svg" width="53.564" height="62.7" viewBox="0 0 53.564 62.7">
  <path id="agriculture-icon" d="M54.533,41.148A20.85,20.85,0,0,1,45.695,55.36c-.6-2.478-4.27-4.509-9.077-5.076a44.064,44.064,0,0,1,2.269-8.778,7.26,7.26,0,0,0,3.941,1.135c10.6,0,8.957-17.914,8.957-17.914s-1.493,2.986-5.971,2.986H42.829a7.464,7.464,0,0,0-6.36,11.376,37.218,37.218,0,0,1,6.36-5.4,43.753,43.753,0,0,0-8.957,13.734A23.607,23.607,0,0,0,27.9,39.655a21.572,21.572,0,0,1,3.971,2.389,5.706,5.706,0,0,0,.507-2.389C32.229,31.5,18.943,32.19,18.943,32.19a7.609,7.609,0,0,1,1.493,4.479v2.986a5.989,5.989,0,0,0,5.971,5.971,5.673,5.673,0,0,0,3.881-1.493,29.256,29.256,0,0,1,1.463,6.091c-5.135.448-9.077,2.538-9.7,5.165A20.9,20.9,0,0,1,33.871,17.262v8.957L48.8,14.276,33.871,2.333V11.29A26.871,26.871,0,1,0,60.564,41.148Z" transform="translate(-7 -2.333)" fill="#ffc200"/>
</svg>
