<svg xmlns="http://www.w3.org/2000/svg" width="42.271" height="50.018" viewBox="0 0 42.271 50.018">
  <path id="b01a1bcc519d8487359dd5c5b2efb002" d="M30.6,5.59l2.182-3.937a.44.44,0,0,0-.769-.426L29.81,5.207a14.872,14.872,0,0,0-11.942,0l-2.207-3.98a.44.44,0,0,0-.769.426L17.075,5.59a12.609,12.609,0,0,0-7.032,11.087H37.636A12.609,12.609,0,0,0,30.6,5.59ZM17.471,11.627a1.152,1.152,0,1,1,1.152-1.152A1.152,1.152,0,0,1,17.471,11.627Zm12.736,0a1.152,1.152,0,1,1,1.152-1.152,1.152,1.152,0,0,1-1.152,1.152ZM10.042,37.766A3.336,3.336,0,0,0,13.378,41.1h2.214v6.823a3.093,3.093,0,1,0,6.186,0V41.1H25.9v6.823a3.093,3.093,0,1,0,6.186,0V41.1H34.3a3.336,3.336,0,0,0,3.336-3.336v-20H10.042ZM5.8,17.237A3.1,3.1,0,0,0,2.7,20.33V33.218a3.093,3.093,0,1,0,6.186,0V20.33A3.1,3.1,0,0,0,5.8,17.237Zm36.085,0a3.1,3.1,0,0,0-3.093,3.093V33.218a3.093,3.093,0,1,0,6.186,0V20.33a3.1,3.1,0,0,0-3.093-3.093Z" transform="translate(-2.704 -1)" fill="#ffc200"/>
</svg>
