<svg xmlns="http://www.w3.org/2000/svg" width="59.255" height="59.255" viewBox="0 0 59.255 59.255">
  <path id="AppDevelopment" d="M19.073,14.84a8.465,8.465,0,0,1,8.465-8.465h16.93a8.465,8.465,0,0,1,8.465,8.465v8.825A6.328,6.328,0,0,0,48.7,29.654V14.84a4.233,4.233,0,0,0-4.233-4.233H27.538a4.233,4.233,0,0,0-4.233,4.233V29.628a6.328,6.328,0,0,0-4.233-5.964ZM48.7,46.584V57.165A4.233,4.233,0,0,1,44.468,61.4H27.538a4.233,4.233,0,0,1-4.233-4.233V46.609a6.328,6.328,0,0,1-4.233,5.964v4.592a8.465,8.465,0,0,0,8.465,8.465h16.93a8.465,8.465,0,0,0,8.465-8.465V52.573A6.328,6.328,0,0,1,48.7,46.584ZM7,36.621l8.465-8.465a2.117,2.117,0,0,1,2.992,3L13.6,36H25.421a2.116,2.116,0,0,1,0,4.233H13.6l4.855,4.85a2.119,2.119,0,0,1-3,3L6.993,39.617a2.112,2.112,0,0,1-.618-1.486v-.025a2.108,2.108,0,0,1,.609-1.473Zm49.55,11.462,8.465-8.465.008-.013a2.116,2.116,0,0,0,.609-1.473v-.025a2.116,2.116,0,0,0-.618-1.481L56.547,28.16a2.117,2.117,0,0,0-3,2.992L58.405,36H46.584a2.116,2.116,0,0,0,0,4.233H58.405l-4.855,4.85a2.119,2.119,0,0,0,3,3Z" transform="translate(-6.375 -6.375)" fill="#091020"/>
</svg>
