<svg xmlns="http://www.w3.org/2000/svg" width="38.428" height="47.201" viewBox="0 0 38.428 47.201">
  <path id="_866aef4d3e823631589650748782f7f7" data-name="866aef4d3e823631589650748782f7f7" d="M30.013,9.528A10.336,10.336,0,0,0,32.514,2a10.478,10.478,0,0,0-7.08,3.587,9.841,9.841,0,0,0-2.36,7.292,8.708,8.708,0,0,0,6.938-3.351ZM35.96,27.086a10.643,10.643,0,0,1,5.1-8.991,11,11,0,0,0-8.637-4.72c-3.681-.378-7.08,2.148-9.038,2.148s-4.72-2.1-7.788-2.053a11.611,11.611,0,0,0-9.77,5.971C1.67,26.661,4.762,37.4,8.915,43.227c1.888,2.855,4.248,6.089,7.363,5.971s4.13-1.935,7.74-1.935,4.72,1.935,7.788,1.864,5.239-2.926,7.221-5.782a25.959,25.959,0,0,0,3.257-6.726,10.407,10.407,0,0,1-6.325-9.534Z" transform="translate(-3.856 -2)" fill="#ffc200"/>
</svg>
