<svg xmlns="http://www.w3.org/2000/svg" width="95.333" height="95.333" viewBox="0 0 95.333 95.333">
  <path id="appServices" d="M12.833,88.666V93A10.833,10.833,0,0,1,2,82.166V21.5A10.833,10.833,0,0,1,12.833,10.667H36.666V15H12.833a6.5,6.5,0,0,0-6.5,6.5V28H36.666v4.333H6.333V82.166a6.5,6.5,0,0,0,6.5,6.5Zm73.666-78V15A6.5,6.5,0,0,1,93,21.5V28H86.5v4.333H93V82.166a6.5,6.5,0,0,1-6.5,6.5H51.833V93H86.5A10.833,10.833,0,0,0,97.332,82.166V21.5A10.833,10.833,0,0,0,86.5,10.667Zm-62.833,13V19.333H15v4.333Zm13,0V19.333H28v4.333Zm26-4.333a10.833,10.833,0,0,0-8.32,3.878l3.337,2.773a6.5,6.5,0,0,1,9.967,0l3.337-2.773A10.833,10.833,0,0,0,62.666,19.333Zm0-4.333a15.166,15.166,0,0,1,11.18,4.918l3.207-2.9a19.5,19.5,0,0,0-28.773,0l3.207,2.9A15.167,15.167,0,0,1,62.666,15ZM60.5,32.333h4.333V28H60.5ZM41,34.5V8.5A6.5,6.5,0,0,1,47.5,2H77.833a6.5,6.5,0,0,1,6.5,6.5v26a6.5,6.5,0,0,1-6.5,6.5H47.5A6.5,6.5,0,0,1,41,34.5Zm4.333,0A2.167,2.167,0,0,0,47.5,36.666H77.833A2.167,2.167,0,0,0,80,34.5V8.5a2.167,2.167,0,0,0-2.167-2.167H47.5A2.167,2.167,0,0,0,45.333,8.5Zm4.333,17.333v39a6.5,6.5,0,0,1-6.5,6.5H21.5a6.5,6.5,0,0,1-6.5-6.5v-39a6.5,6.5,0,0,1,6.5-6.5H43.166a6.5,6.5,0,0,1,6.5,6.5Zm-4.333,0a2.167,2.167,0,0,0-2.167-2.167H21.5a2.167,2.167,0,0,0-2.167,2.167v39A2.167,2.167,0,0,0,21.5,93H43.166a2.167,2.167,0,0,0,2.167-2.167ZM28,88.666h8.667V84.333H28ZM84.333,45.333H54v4.333H84.333Zm0,8.667H54v4.333H84.333ZM54,84.333H84.333V80H54ZM84.333,73.5a2.167,2.167,0,0,1-2.167,2.167h-26A2.167,2.167,0,0,1,54,73.5V64.833a2.167,2.167,0,0,1,2.167-2.167h26a2.167,2.167,0,0,1,2.167,2.167ZM80,67H58.333v4.333H80Z" transform="translate(-2 -2)" fill="#091020"/>
</svg>
