<svg xmlns="http://www.w3.org/2000/svg" width="18" height="12" viewBox="0 0 18 12">
  <g id="c4067ea13a0109e58cd0c2fc71e6b022" transform="translate(21 -6) rotate(90)">
    <path id="Path_668" data-name="Path 668" d="M17,10a.908.908,0,0,1-.7-.3l-5-5a.99.99,0,0,1,1.4-1.4l5,5a.967.967,0,0,1,0,1.4.908.908,0,0,1-.7.3Z" fill="#091020"/>
    <path id="Path_669" data-name="Path 669" d="M7,10a.908.908,0,0,1-.7-.3.967.967,0,0,1,0-1.4l5-5a.99.99,0,0,1,1.4,1.4l-5,5A.908.908,0,0,1,7,10Z" fill="#091020"/>
    <path id="Path_670" data-name="Path 670" d="M12,21a.945.945,0,0,1-1-1V4a1,1,0,0,1,2,0V20A.945.945,0,0,1,12,21Z" fill="#091020"/>
  </g>
</svg>
