<svg xmlns="http://www.w3.org/2000/svg" width="20.343" height="32.991" viewBox="0 0 20.343 32.991">
  <g id="arts" transform="translate(-3.375 -1)">
    <path id="Path_789" data-name="Path 789" d="M10.6,1H15V3.2H10.6ZM4,5.4H21.6v7.243l-3.3-3.3-3.3,3.3-4.4-4.4L4,14.841ZM15,6.5a2.2,2.2,0,1,0,2.2,2.2A2.217,2.217,0,0,0,15,6.5Zm-4.4,4.854,4.4,4.4v0l.644.64H5.555Zm7.7,1.1,2.521,2.523.779.781v.64H18.752l-.776-.779L16.552,14.2ZM8.4,18.6h8.8v2.2H8.4Z" transform="translate(0.75 0)"/>
    <path id="Path_790" data-name="Path 790" d="M6.949,9v3.132L3.7,22.7l-.321,1.051,2.1.644L5.8,23.347,8.863,13.4h9.365l3.062,9.948.328,1.049,2.1-.644L23.4,22.7,20.146,12.132V9Z" transform="translate(0 9.595)"/>
  </g>
</svg>
