<svg xmlns="http://www.w3.org/2000/svg" xmlns:xlink="http://www.w3.org/1999/xlink" width="55" height="55" viewBox="0 0 55 55">
  <defs>
    <clipPath id="clip-path">
      <rect id="Rectangle_3671" data-name="Rectangle 3671" width="55" height="55" transform="translate(0.06)" fill="red"/>
    </clipPath>
  </defs>
  <g id="avalanche" transform="translate(-0.06)" clip-path="url(#clip-path)">
    <path id="Path_725" data-name="Path 725" d="M35.746,19.895a3.427,3.427,0,0,0,0-3.428l-5.082-8.8a3.428,3.428,0,0,0-5.937,0L5,41.833a3.428,3.428,0,0,0,2.968,5.141H18.131A3.428,3.428,0,0,0,21.1,45.261ZM47.423,46.977a3.427,3.427,0,0,0,2.97-5.141l-7.161-12.4a3.427,3.427,0,0,0-5.936,0l-7.161,12.4A3.428,3.428,0,0,0,33.1,46.977h14.32Z" transform="translate(-0.001 -0.017)" fill="red" fill-rule="evenodd"/>
  </g>
</svg>
