<svg xmlns="http://www.w3.org/2000/svg" width="2227.324" height="647.901" viewBox="0 0 2227.324 647.901">
  <g id="bg-footer" transform="translate(208.462 45.152)" opacity="0.07">
    <path id="Path_152" data-name="Path 152" d="M2146.952-26.338c-22.569-97.352-96.959-181.876-206.209-234.309-31.09-14.916-66.343-27.571-106.844-27.482-117.031.265-220.314,88.342-304.833,144.74-102,68.056-202.266,137.74-310.428,200.627-60.735,35.306-133.6,70.535-202.406,63.945-69.674-6.676-107.008-53.056-144.782-92.146C827.437-16.513,772.258-57.237,700.369-80.116s-162.257-26.215-244.3.652C391.825-58.423,337.762-21.118,289.513,17.492c-126.771,101.45-226.725,219-290.705,341.877" transform="translate(-207.024 243.252)" fill="none" stroke="#c6d2dc" stroke-miterlimit="10" stroke-width="0.552"/>
    <path id="Path_153" data-name="Path 153" d="M2148.467-31.94c-19.944-86.041-85.015-159.006-181.431-211.56-8.96-4.88-18.094-9.6-27.518-14.056-30.974-14.635-65.915-27.1-105.885-27.214-115.632-.369-217.875,84.18-302.567,139.345-75.084,48.908-149.2,99.272-226.9,147.487q-40.427,25.148-82.044,49.29c-60.3,34.809-132.306,69.6-200.381,63.925-68.929-5.744-106.558-49.9-144.621-87.022C832.756-15,777.579-53.61,706.174-75.041a401.591,401.591,0,0,0-80.022-15.1c-52.622-4.618-109.049.261-162.069,17.467C400.4-52.01,346.54-15.726,298.357,21.65,200.8,97.284,118.88,181.5,56.221,270.674A891.961,891.961,0,0,0,5.388,351.725" transform="translate(-205.996 243.777)" fill="none" stroke="#c6d2dc" stroke-miterlimit="10" stroke-width="0.552"/>
    <path id="Path_154" data-name="Path 154" d="M2149.982-37.536c-19.285-83.173-85.571-150.906-184.287-203.164-8.961-4.742-18.037-9.386-27.4-13.754-30.871-14.35-65.476-26.625-104.937-26.95-114.244-1-215.435,80.016-300.289,133.953-74.552,47.38-148.144,96.769-225.956,144.394q-40.184,24.73-81.512,48.534c-59.856,34.317-131.02,68.657-198.36,63.906-68.187-4.815-106.107-46.747-144.456-81.9-44.7-40.957-99.887-77.457-170.8-97.437a410.519,410.519,0,0,0-79.363-13.861C580.5-87.851,524.655-82.775,472.1-65.88c-63.127,20.3-116.771,55.555-164.9,91.694C209.723,98.946,127.623,179.687,63.945,265.728a889.443,889.443,0,0,0-51.969,78.359" transform="translate(-204.968 244.301)" fill="none" stroke="#c6d2dc" stroke-miterlimit="10" stroke-width="0.552"/>
    <path id="Path_155" data-name="Path 155" d="M2151.494-43.135c-18.626-80.3-86.091-142.813-187.131-194.769-8.961-4.611-17.967-9.178-27.286-13.454-30.755-14.069-65.048-26.146-103.989-26.683-112.845-1.636-212.961,75.853-298.022,128.559-74,45.85-147.2,94.15-224.985,141.3C1283.4,8,1256.49,24.007,1229.088,39.6c-59.429,33.82-129.733,67.719-196.333,63.885C965.31,99.6,927.1,59.895,888.46,26.709,843.414-11.949,788.229-46.339,717.8-64.873A420.915,420.915,0,0,0,639.1-77.5c-51.614-3.455-106.87,1.816-158.966,18.408-62.568,19.928-116,54.159-164.065,89.062-97.413,70.634-179.692,147.9-244.389,230.806a886.7,886.7,0,0,0-53.1,75.671" transform="translate(-203.936 244.824)" fill="none" stroke="#c6d2dc" stroke-miterlimit="10" stroke-width="0.552"/>
    <path id="Path_156" data-name="Path 156" d="M2153-48.729c-17.956-77.437-86.588-134.734-189.976-186.373-8.972-4.476-17.921-8.969-27.182-13.152-30.651-13.782-64.609-25.673-103.029-26.419-111.446-2.27-210.486,71.694-295.756,123.168-73.419,44.326-146.19,91.611-224.026,138.209-26.535,15.887-53.255,31.656-80.46,47.024-59,33.327-128.445,66.783-194.319,63.865-66.7-2.953-105.205-40.434-144.133-71.652C848.727-10.42,793.542-42.7,723.6-59.786A432.1,432.1,0,0,0,645.552-71.17c-51.105-2.87-105.775,2.6-157.418,18.879C426.12-32.735,372.9.473,324.9,34.138c-97.339,68.131-179.8,141.926-245.521,221.7a883.65,883.65,0,0,0-54.234,72.981" transform="translate(-202.91 245.346)" fill="none" stroke="#c6d2dc" stroke-miterlimit="10" stroke-width="0.552"/>
    <path id="Path_157" data-name="Path 157" d="M2154.515-54.325c-17.3-74.569-87.062-126.665-192.831-177.977-8.961-4.347-17.852-8.756-27.055-12.852-30.547-13.5-64.192-25.2-102.081-26.15-110.059-2.9-208,67.534-293.49,117.778-72.841,42.811-145.161,89.071-223.066,135.117-26.4,15.6-52.919,31.129-79.928,46.268C1177.5,60.689,1108.9,93.7,1043.761,91.7,977.8,89.68,939.012,54.426,899.788,25.176,854.054-8.892,798.866-39.06,729.406-54.691a445.166,445.166,0,0,0-77.389-10.146c-50.6-2.289-104.687,3.377-155.862,19.351C434.7-26.3,381.7,5.886,333.753,38.315,236.49,103.947,153.846,174.268,87.106,250.9a881.789,881.789,0,0,0-55.37,70.29" transform="translate(-201.881 245.866)" fill="none" stroke="#c6d2dc" stroke-miterlimit="10" stroke-width="0.552"/>
    <path id="Path_158" data-name="Path 158" d="M2156.03-59.92c-16.626-71.7-87.5-118.615-195.676-169.586-8.961-4.219-17.794-8.548-26.951-12.551-30.431-13.215-63.753-24.724-101.133-25.886-108.66-3.533-205.469,63.374-291.212,112.383-72.239,41.3-144.144,86.534-222.118,132.024-26.246,15.313-52.584,30.6-79.4,45.508C1181.41,54.31,1113.675,86.877,1049.265,85.8c-65.216-1.1-104.3-34.122-143.813-61.4C859.372-7.376,804.186-35.434,735.209-49.617a459.362,459.362,0,0,0-76.73-8.9c-50.1-1.706-103.594,4.154-154.314,19.821-60.9,18.817-113.694,49.977-161.572,81.168C245.405,105.6,162.578,172.448,94.819,245.946a877.9,877.9,0,0,0-56.5,67.6" transform="translate(-200.853 246.384)" fill="none" stroke="#c6d2dc" stroke-miterlimit="10" stroke-width="0.552"/>
    <path id="Path_159" data-name="Path 159" d="M2157.534-65.509c-15.956-68.831-87.917-110.576-198.52-161.189-8.949-4.094-17.736-8.34-26.835-12.25-30.327-12.933-63.325-24.25-100.173-25.618-107.272-4.17-202.959,59.222-288.946,106.991-71.638,39.792-143.115,84-221.158,128.933-26.107,15.03-52.26,30.069-78.876,44.752-57.694,31.842-124.581,63.967-188.257,63.807C990.3,79.755,950.92,48.948,911.122,23.636,864.7-5.839,809.512-31.784,741.024-44.517a475.626,475.626,0,0,0-76.072-7.666c-49.587-1.125-102.5,4.935-152.763,20.3C451.851-13.444,399.266,16.693,351.442,46.649,254.329,107.28,171.319,170.655,102.535,241.021Q71.743,272.516,44.9,305.927" transform="translate(-199.825 246.902)" fill="none" stroke="#c6d2dc" stroke-miterlimit="10" stroke-width="0.552"/>
    <path id="Path_160" data-name="Path 160" d="M2159.05-71.1c-15.3-65.963-88.311-102.556-201.364-152.795-8.937-3.972-17.678-8.127-26.731-11.948-30.212-12.649-62.9-23.771-99.225-25.35-105.862-4.8-200.393,55.069-286.669,101.6-71,38.291-142.086,81.461-220.2,125.838-25.957,14.741-51.937,29.541-78.344,44-57.267,31.349-123.295,63.027-186.242,63.791-63.729.766-103.4-27.813-143.487-51.158C870.023-4.3,814.829-28.138,746.83-39.425a494.432,494.432,0,0,0-75.414-6.428c-49.078-.541-101.406,5.712-151.214,20.769C460.424-7.01,408.051,22.1,360.286,50.824c-97.039,58.128-180.23,118.034-250.033,185.262Q79,266.177,51.482,298.3" transform="translate(-198.797 247.417)" fill="none" stroke="#c6d2dc" stroke-miterlimit="10" stroke-width="0.552"/>
    <path id="Path_161" data-name="Path 161" d="M2160.564-76.689c-14.637-63.1-88.681-94.553-204.22-144.4-8.926-3.849-17.609-7.919-26.616-11.649-30.1-12.367-62.458-23.3-98.266-25.086-104.474-5.435-197.838,50.925-284.4,96.205-70.355,36.8-141.045,78.934-219.239,122.749-25.807,14.461-51.6,29.013-77.812,43.242-56.839,30.853-122.014,62.089-184.227,63.772-62.985,1.7-102.946-24.657-143.325-46.034-47.113-24.879-102.3-46.6-169.821-56.437a516.154,516.154,0,0,0-74.756-5.19c-48.577.042-100.318,6.5-149.659,21.238C469-.577,416.836,27.512,369.136,55,272.172,110.627,188.8,167.058,117.977,231.151c-21.139,19.126-41.135,38.891-59.9,59.527" transform="translate(-197.767 247.929)" fill="none" stroke="#c6d2dc" stroke-miterlimit="10" stroke-width="0.552"/>
    <path id="Path_162" data-name="Path 162" d="M2162.082-82.271c-13.967-60.229-89.028-86.565-207.076-136.007-8.9-3.731-17.551-7.711-26.5-11.35-29.992-12.081-62.03-22.823-97.317-24.818-103.075-6.067-195.259,46.785-282.136,90.812-69.7,35.318-140,76.4-218.279,119.655C1305.117-29.8,1279.5-15.494,1253.481-1.494c-56.4,30.36-120.718,61.149-182.2,63.753-62.243,2.624-102.495-21.5-143.164-40.91C880.661-1.234,825.466-20.845,758.432-29.233a539.972,539.972,0,0,0-74.1-3.952c-48.07.623-99.224,7.272-148.109,21.712C477.559,5.86,425.611,32.921,377.969,59.17,281.081,112.3,197.523,165.254,125.678,226.214,104.236,244.4,83.86,263.261,64.64,283.05" transform="translate(-196.741 248.438)" fill="none" stroke="#c6d2dc" stroke-miterlimit="10" stroke-width="0.552"/>
    <path id="Path_163" data-name="Path 163" d="M2163.583-87.854c-13.3-57.359-89.34-78.6-209.92-127.611-8.891-3.613-17.482-7.5-26.384-11.051-29.876-11.8-61.6-22.348-96.358-24.553-101.688-6.7-192.658,42.656-279.87,85.42-69.014,33.843-138.964,73.873-217.32,116.564-25.506,13.9-50.942,27.958-76.76,41.73-55.96,29.863-119.431,60.215-180.177,63.732-61.5,3.557-102.038-18.349-143-35.783C885.992.306,830.8-17.191,764.253-24.132a567.8,567.8,0,0,0-73.44-2.71c-47.563,1.2-98.131,8.05-146.561,22.182C486.146,12.3,434.4,38.338,386.829,63.354c-96.812,50.628-180.554,100.11-253.419,157.933-21.75,17.255-42.5,35.2-62.168,54.144" transform="translate(-195.71 248.945)" fill="none" stroke="#c6d2dc" stroke-miterlimit="10" stroke-width="0.552"/>
    <path id="Path_164" data-name="Path 164" d="M2165.1-93.429c-12.637-54.491-89.64-70.653-212.764-119.216-8.868-3.5-17.424-7.3-26.28-10.749-29.726-11.561-61.163-21.871-95.4-24.286-100.3-7.336-190.057,38.533-277.592,80.028C1484.73-135.269,1415.139-96.3,1336.69-54.181c-25.356,13.615-50.607,27.425-76.229,40.972C1204.93,16.161,1142.312,46.066,1082.3,50.5c-60.757,4.486-101.589-15.193-142.837-30.66-48.147-17.99-103.338-33.377-169.4-38.867A601.259,601.259,0,0,0,697.277-20.5c-47.059,1.79-97.041,8.832-145.005,22.654C494.725,18.748,443.2,43.761,395.68,67.54c-96.738,48.125-180.661,94.137-254.545,148.826-22.052,16.319-43.182,33.356-63.3,51.456" transform="translate(-194.681 249.448)" fill="none" stroke="#c6d2dc" stroke-miterlimit="10" stroke-width="0.552"/>
    <path id="Path_165" data-name="Path 165" d="M2166.614-99c-11.979-51.623-89.918-62.732-215.62-110.82-8.845-3.385-17.354-7.093-26.153-10.449-29.622-11.28-60.747-21.4-94.462-24.021-98.9-7.969-187.409,34.424-275.326,74.633-67.615,30.928-136.871,68.829-215.4,110.379-25.205,13.332-50.283,26.9-75.708,40.216-55.093,28.874-116.857,58.337-176.14,63.693-60.015,5.415-101.138-12.036-142.678-25.537C896.641,3.4,841.446-9.878,775.867-13.92a639.419,639.419,0,0,0-72.13-.232c-46.552,2.371-95.948,9.61-143.457,23.124-56.988,16.22-108.3,40.207-155.762,62.749-96.662,45.626-180.769,88.164-255.677,139.717C126.481,226.823,104.977,242.949,84.4,260.2" transform="translate(-193.654 249.947)" fill="none" stroke="#c6d2dc" stroke-miterlimit="10" stroke-width="0.552"/>
    <path id="Path_166" data-name="Path 166" d="M2168.119-104.574c-11.3-48.756-90.161-54.833-218.453-102.424-8.833-3.273-17.308-6.885-26.061-10.148-29.506-11-60.307-20.923-93.49-23.753-97.514-8.6-184.773,30.324-273.06,69.243-66.9,29.488-135.819,66.306-214.452,107.285-25.043,13.051-49.948,26.369-75.176,39.46-54.665,28.382-115.562,57.4-174.119,63.674-59.27,6.347-100.687-8.88-142.517-20.413C901.958,4.953,846.758-6.21,781.669-8.8A685.987,685.987,0,0,0,710.2-7.8C664.154-4.844,615.342,2.591,568.291,15.8,511.862,31.653,460.753,54.614,413.355,75.924c-96.589,43.123-180.877,82.191-256.8,130.609C133.887,220.982,112,236.2,90.982,252.606" transform="translate(-192.627 250.441)" fill="none" stroke="#c6d2dc" stroke-miterlimit="10" stroke-width="0.552"/>
    <path id="Path_167" data-name="Path 167" d="M2169.633-110.135c-10.637-45.887-90.38-46.959-221.308-94.033-8.8-3.162-17.227-6.677-25.934-9.847-29.391-10.718-59.88-20.449-92.554-23.488-96.1-9.235-182.09,26.238-270.782,63.848-66.158,28.056-134.778,63.79-213.493,104.2-24.893,12.774-49.624,25.841-74.644,38.7C1216.68-2.871,1156.627,25.7,1098.811,32.9c-58.527,7.276-100.236-5.727-142.355-15.289C907.283,6.509,852.08-2.542,787.478-3.687c-22.539-.378-46.328.3-70.813,2.247C671.124,2.095,622.9,9.73,576.314,22.631c-55.87,15.478-106.766,37.416-154.105,57.489-96.513,40.624-180.984,76.218-257.93,121.5-22.974,13.51-45.231,27.818-66.706,43.382" transform="translate(-191.597 250.928)" fill="none" stroke="#c6d2dc" stroke-miterlimit="10" stroke-width="0.552"/>
    <path id="Path_168" data-name="Path 168" d="M2171.149-115.7c-9.978-43.018-90.589-39.112-224.164-85.636-8.776-3.055-17.181-6.468-25.818-9.546-29.3-10.431-59.475-19.924-91.594-23.221-94.785-9.724-179.431,22.171-268.528,58.458-65.418,26.644-133.715,61.276-212.533,101.1-24.731,12.5-49.289,25.314-74.113,37.948-53.8,27.392-113,55.52-170.084,63.635-57.79,8.207-99.786-2.571-142.19-10.166C912.606,8.072,857.4,1.131,793.287,1.438c-22.374.125-45.932,1.228-70.155,3.485C678.1,9.043,630.458,16.87,584.329,29.464c-55.316,15.11-106,36.021-153.274,54.857-96.439,38.122-181.092,70.245-259.062,112.392-23.277,12.575-45.913,25.973-67.841,40.695" transform="translate(-190.569 251.415)" fill="none" stroke="#c6d2dc" stroke-miterlimit="10" stroke-width="0.552"/>
    <path id="Path_169" data-name="Path 169" d="M2172.662-121.242c-9.307-40.15-90.762-31.289-227.009-77.241-8.741-2.948-17.123-6.255-25.714-9.245-29.171-10.15-59.036-19.451-90.635-22.954-93.386-10.362-176.725,18.118-266.25,53.065-64.655,25.242-132.651,58.766-211.573,98.011-24.569,12.22-48.965,24.785-73.592,37.193-53.359,26.9-111.7,54.581-168.061,63.619-57.047,9.139-99.329.584-142.029-5.043-49.865-6.5-105.065-11.334-168.7-9.581-22.207.631-45.537,2.153-69.5,4.724-44.525,4.7-91.579,12.729-137.253,25.015C537.592,51.057,487.122,70.95,439.907,88.549,343.545,124.172,258.7,152.822,179.718,191.83c-23.584,11.639-46.589,24.126-68.971,38" transform="translate(-189.539 251.888)" fill="none" stroke="#c6d2dc" stroke-miterlimit="10" stroke-width="0.552"/>
    <path id="Path_170" data-name="Path 170" d="M2174.168-126.781c-8.637-37.286-90.912-23.494-229.853-68.845-8.718-2.842-17.054-6.047-25.6-8.943-29.078-9.864-58.608-18.976-89.7-22.689-91.987-10.992-174.02,14.089-263.972,47.671-63.892,23.855-131.6,56.26-210.614,94.915-24.419,11.947-48.641,24.254-73.06,36.438-52.931,26.4-110.417,53.646-166.048,63.6-56.3,10.068-98.878,3.741-141.868.081-50.207-4.212-105.411-6.93-168.561-3.725-22.04,1.138-45.136,3.077-68.839,5.962-44.024,5.283-90.491,13.507-135.7,25.485C546.153,57.536,495.9,76.4,448.739,92.764c-96.287,33.12-181.313,58.3-261.314,94.174-23.887,10.7-47.272,22.282-70.107,35.312" transform="translate(-188.513 252.351)" fill="none" stroke="#c6d2dc" stroke-miterlimit="10" stroke-width="0.552"/>
    <path id="Path_171" data-name="Path 171" d="M2175.682-132.307c-7.978-34.419-91.051-15.731-232.709-60.453-8.672-2.74-17-5.835-25.471-8.644-28.963-9.583-58.18-18.5-88.739-22.421-90.6-11.63-171.314,10.077-261.706,42.28-63.129,22.483-130.535,53.76-209.665,91.826-24.257,11.671-48.306,23.726-72.529,35.677-52.5,25.907-109.134,52.708-164.028,63.58-55.561,11-98.429,6.893-141.708,5.205-50.553-1.914-105.755-2.522-168.417,2.134-21.874,1.641-44.739,4-68.18,7.2A1138.751,1138.751,0,0,0,608.382,50.038C554.743,64.035,504.692,81.876,457.6,97c-96.212,30.621-181.422,52.323-262.448,85.064-24.189,9.768-47.953,20.437-71.243,32.62" transform="translate(-187.483 252.8)" fill="none" stroke="#c6d2dc" stroke-miterlimit="10" stroke-width="0.552"/>
    <path id="Path_172" data-name="Path 172" d="M2177.2-137.813c-7.319-31.549-91.166-8-235.553-52.059-8.648-2.637-16.938-5.625-25.379-8.342-28.847-9.3-57.741-18.026-87.779-22.157-89.212-12.264-168.574,6.091-259.44,36.885-62.331,21.126-129.46,51.26-208.706,88.733-24.1,11.4-47.971,23.2-72,34.922-52.064,25.414-107.851,51.769-162,63.559-54.818,11.93-97.978,10.05-141.547,10.329-50.9.384-106.106,1.888-168.278,7.989-21.706,2.148-44.339,4.926-67.523,8.442a1335.018,1335.018,0,0,0-132.6,26.428c-53.081,13.624-102.919,30.442-149.951,44.334C370.306,129.368,284.915,147.6,202.868,177.2c-24.5,8.832-48.636,18.592-72.372,29.927" transform="translate(-186.454 253.235)" fill="none" stroke="#c6d2dc" stroke-miterlimit="10" stroke-width="0.552"/>
    <path id="Path_173" data-name="Path 173" d="M2178.7-143.3c-6.648-28.681-91.247-.3-238.4-43.662-8.614-2.541-16.881-5.418-25.263-8.041-28.743-9.01-57.29-17.6-86.831-21.889-87.744-13.032-165.845,2.132-257.174,31.495-61.545,19.787-128.385,48.763-207.735,85.641-23.945,11.126-47.647,22.669-71.476,34.166-51.636,24.918-106.555,50.83-159.98,63.54-54.076,12.859-97.527,13.206-141.381,15.451-51.239,2.68-106.449,6.3-168.138,13.849-21.54,2.655-43.944,5.852-66.866,9.68-42.505,7.031-87.21,15.843-131.05,26.9-52.526,13.256-102.153,29.047-149.126,41.7-96.062,25.619-181.636,40.377-264.7,66.846a773.145,773.145,0,0,0-73.508,27.24" transform="translate(-185.427 253.644)" fill="none" stroke="#c6d2dc" stroke-miterlimit="10" stroke-width="0.552"/>
    <path id="Path_174" data-name="Path 174" d="M2180.216-148.764c-5.978-25.813-91.317,7.372-241.241-35.266-8.591-2.44-16.823-5.205-25.147-7.741-28.639-8.724-56.862-17.121-85.883-21.624-86.345-13.669-163.094-1.8-254.9,26.1-60.758,18.467-127.321,46.272-206.786,82.547-23.771,10.854-47.312,22.141-70.945,33.411-51.2,24.425-105.272,49.891-157.96,63.521-53.338,13.788-97.08,16.363-141.225,20.575-51.585,4.978-106.794,10.7-168,19.705-21.379,3.159-43.543,6.772-66.206,10.918C719.925,51,675.8,60.005,632.43,70.757c-51.968,12.886-101.381,27.651-148.3,39.071-95.988,23.117-181.743,34.4-265.834,57.737a762.249,762.249,0,0,0-74.637,24.547" transform="translate(-184.398 254.037)" fill="none" stroke="#c6d2dc" stroke-miterlimit="10" stroke-width="0.552"/>
    <path id="Path_175" data-name="Path 175" d="M2181.731-154.206c-5.319-22.945-91.386,15.005-244.1-26.875-8.556-2.344-16.765-5-25.032-7.44-28.535-8.438-56.434-16.648-84.923-21.356-84.958-14.3-160.365-5.7-252.63,20.708C1515.077-172,1448.8-145.386,1369.211-109.712,1345.6-99.128,1322.234-88.1,1298.8-77.057c-50.769,23.928-103.989,48.952-155.948,63.5-52.585,14.72-96.617,19.514-141.056,25.7-51.932,7.276-107.138,15.112-167.855,25.564-21.213,3.666-43.148,7.7-65.549,12.16-41.5,8.195-85.028,17.4-127.946,27.844-51.408,12.513-100.609,26.255-147.464,36.438-95.912,20.618-181.851,28.43-266.96,48.63a751.807,751.807,0,0,0-75.774,21.857" transform="translate(-183.37 254.403)" fill="none" stroke="#c6d2dc" stroke-miterlimit="10" stroke-width="0.552"/>
    <path id="Path_176" data-name="Path 176" d="M2183.247-159.617c-4.66-20.077-91.409,22.6-246.953-18.478-8.51-2.25-16.707-4.773-24.916-7.138-28.466-8.111-56.006-16.173-83.975-21.089-83.57-14.932-157.6-9.571-250.364,15.317-59.174,15.877-125.159,41.3-204.867,76.362-23.448,10.316-46.653,21.081-69.881,31.9-50.341,23.435-102.705,48.013-153.925,63.481-51.851,15.649-96.175,22.67-140.9,30.823-52.272,9.568-107.483,19.521-167.716,31.42-21.046,4.173-42.752,8.622-64.891,13.4-40.989,8.779-83.936,18.181-126.4,28.318-50.849,12.143-99.843,24.86-146.633,33.81-95.836,18.115-181.958,22.457-268.086,39.518a742.174,742.174,0,0,0-76.911,19.166" transform="translate(-182.342 254.737)" fill="none" stroke="#c6d2dc" stroke-miterlimit="10" stroke-width="0.552"/>
    <path id="Path_177" data-name="Path 177" d="M2184.751-164.984c-3.989-17.208-91.421,30.165-249.8-10.083-8.475-2.153-16.638-4.561-24.8-6.842-28.35-7.826-55.567-15.7-83.015-20.824-82.171-15.566-154.862-13.4-248.1,9.923-58.388,14.611-124.084,38.826-203.908,73.272-23.286,10.049-46.329,20.554-69.361,31.14-49.9,22.939-101.41,47.077-151.9,63.462C1102.762-8.36,1058.148.889,1013.128,11.009,960.509,22.875,905.3,34.938,845.549,48.285c-20.88,4.676-42.351,9.546-64.233,14.636-40.48,9.36-82.846,18.963-124.848,28.788-50.289,11.774-99.071,23.464-145.8,31.177C414.9,138.5,328.6,139.37,241.448,153.3a731.341,731.341,0,0,0-78.039,16.477" transform="translate(-181.313 255.032)" fill="none" stroke="#c6d2dc" stroke-miterlimit="10" stroke-width="0.552"/>
    <path id="Path_178" data-name="Path 178" d="M2186.265-170.315c-3.318-14.34-91.421,37.691-252.641-1.688-8.44-2.06-16.592-4.352-24.7-6.541-28.234-7.544-55.139-15.221-82.067-20.556-80.772-16.2-152.122-17.2-245.82,4.531-57.614,13.363-123.008,36.356-202.948,70.178-23.136,9.785-45.994,20.025-68.84,30.385-49.462,22.446-100.115,46.139-149.879,63.447C1109.007-13.052,1064.1-1.575,1018.8,10.511c-52.96,14.162-108.172,28.337-167.44,43.135C830.644,58.829,809.4,64.117,787.781,69.52,747.8,79.463,706.028,89.26,664.489,98.781c-49.731,11.4-98.306,22.069-144.973,28.544-95.686,13.113-182.175,10.507-270.344,21.3A721.884,721.884,0,0,0,170,162.414" transform="translate(-180.284 255.286)" fill="none" stroke="#c6d2dc" stroke-miterlimit="10" stroke-width="0.552"/>
    <path id="Path_179" data-name="Path 179" d="M2187.781-175.593c-2.659-11.473-91.4,45.174-255.5,6.708-8.406-1.969-16.534-4.143-24.581-6.241-28.13-7.259-54.7-14.747-81.107-20.293-79.385-16.834-149.393-20.96-243.554-.86-56.839,12.134-121.922,33.887-201.989,67.087-22.962,9.521-45.67,19.5-68.308,29.63-49.035,21.95-98.832,45.2-147.867,63.427C1115.26-17.694,1070.06-4,1024.465,10.059c-53.305,16.46-108.522,32.747-167.3,48.991q-30.818,8.534-62.922,17.113c-39.472,10.524-80.66,20.518-121.743,29.731-49.178,11.032-97.534,20.673-144.14,25.916C432.746,142.424,346.075,136.344,256.886,144A713.67,713.67,0,0,0,176.575,155.1" transform="translate(-179.257 255.493)" fill="none" stroke="#c6d2dc" stroke-miterlimit="10" stroke-width="0.552"/>
    <path id="Path_180" data-name="Path 180" d="M2189.3-180.829c-1.989-8.606-91.363,52.618-258.342,15.1-8.371-1.88-16.476-3.931-24.465-5.938-28.026-6.977-54.284-14.272-80.16-20.025-78-17.467-146.676-24.679-241.288-6.255-56.076,10.923-120.835,31.427-201.04,63.995-22.789,9.258-45.323,18.965-67.765,28.873-48.607,21.458-97.549,44.262-145.843,63.407-48.88,19.369-94.372,35.292-140.257,51.317C976.485,28.4,921.27,46.8,862.981,64.492Q832.41,73.78,800.717,82.847c-38.962,11.109-79.571,21.3-120.194,30.2-48.618,10.659-96.761,19.277-143.315,23.285-95.536,8.116-182.391-1.439-272.6,3.085a705.078,705.078,0,0,0-81.442,8.4" transform="translate(-178.228 255.652)" fill="none" stroke="#c6d2dc" stroke-miterlimit="10" stroke-width="0.552"/>
    <path id="Path_181" data-name="Path 181" d="M2190.8-186.017c-1.33-5.736-91.305,60.021-261.186,23.494-8.325-1.792-16.407-3.722-24.35-5.639-27.911-6.691-53.844-13.795-79.211-19.759-76.587-18.1-143.97-28.359-239.01-11.645-55.336,9.729-119.748,28.974-200.081,60.9-22.627,9-45,18.438-67.245,28.118-48.167,20.961-96.254,43.322-143.82,63.387-48.133,20.3-93.917,38.449-140.094,56.441-53.991,21.054-109.21,41.563-167.018,60.706Q838.467,80.035,807.18,89.58c-38.46,11.691-78.477,22.078-118.638,30.677-48.059,10.29-96,17.882-142.484,20.652-95.462,5.613-182.5-7.412-273.731-6.026A697.517,697.517,0,0,0,189.75,140.6" transform="translate(-177.199 255.764)" fill="none" stroke="#c6d2dc" stroke-miterlimit="10" stroke-width="0.552"/>
    <path id="Path_182" data-name="Path 182" d="M2192.315-191.157c-.671-2.867-91.236,67.379-264.042,31.891-8.29-1.7-16.349-3.511-24.245-5.337-27.8-6.41-53.417-13.321-78.252-19.492-75.2-18.733-141.288-32-236.744-17.041-54.6,8.556-118.626,26.591-199.121,57.81q-33.68,13.132-66.713,27.361c-47.74,20.468-94.97,42.383-141.808,63.367-47.381,21.23-93.458,41.6-139.929,61.565C987.123,32.319,931.907,54.939,874.583,75.533q-30.069,10.809-60.948,20.831a1139.643,1139.643,0,0,1-117.09,31.147c-47.5,9.92-95.224,16.49-141.653,18.023-95.385,3.114-182.6-13.386-274.857-15.133a691.673,691.673,0,0,0-83.708,3.023" transform="translate(-176.171 255.832)" fill="none" stroke="#c6d2dc" stroke-miterlimit="10" stroke-width="0.552"/>
    <path id="Path_183" data-name="Path 183" d="M2193.83-196.258s-91.143,74.7-266.886,40.287S1677.4-256.1,1392.872-147.949C1196.26-73.211,1019.984,34.568,820.109,103.182c-82.236,28.23-171.225,46.465-256.362,47.012-95.31.612-182.712-19.359-275.989-24.243a686.535,686.535,0,0,0-84.843.333" transform="translate(-175.143 255.856)" fill="none" stroke="#c6d2dc" stroke-miterlimit="10" stroke-width="0.552"/>
  </g>
</svg>
