<svg xmlns="http://www.w3.org/2000/svg" width="30" height="30" viewBox="0 0 30 30">
  <g id="fef611dbe886ada006a39222b5641d5c" transform="translate(-1 -1)">
    <path id="Path_671" data-name="Path 671" d="M30,19H26V12a1,1,0,0,0-1-1H21V10a1,1,0,0,0-2,0v2a1,1,0,0,0,1,1h4v7a1,1,0,0,0,1,1h4v8H21V28a1,1,0,0,0-2,0v2a1,1,0,0,0,1,1H30a1,1,0,0,0,1-1V20A1,1,0,0,0,30,19Z" fill="#091020"/>
    <path id="Path_672" data-name="Path 672" d="M21,25V21h1a1,1,0,0,0,0-2H20a1,1,0,0,0-1,1v4H12a1,1,0,0,0-1,1v4H3V21H4a1,1,0,0,0,0-2H2a1,1,0,0,0-1,1V30a1,1,0,0,0,1,1H12a1,1,0,0,0,1-1V26h7A1,1,0,0,0,21,25Z" fill="#091020"/>
    <path id="Path_673" data-name="Path 673" d="M2,13H6v7a1,1,0,0,0,1,1h4v1a1,1,0,0,0,2,0V20a1,1,0,0,0-1-1H8V12a1,1,0,0,0-1-1H3V3h8V4a1,1,0,0,0,2,0V2a1,1,0,0,0-1-1H2A1,1,0,0,0,1,2V12A1,1,0,0,0,2,13Z" fill="#091020"/>
    <path id="Path_674" data-name="Path 674" d="M30,1H20a1,1,0,0,0-1,1V6H12a1,1,0,0,0-1,1v4H10a1,1,0,0,0,0,2h2a1,1,0,0,0,1-1V8h7a1,1,0,0,0,1-1V3h8v8H28a1,1,0,0,0,0,2h2a1,1,0,0,0,1-1V2A1,1,0,0,0,30,1Z" fill="#091020"/>
    <path id="Path_675" data-name="Path 675" d="M5,4A1,1,0,0,0,4,5V9a1,1,0,0,0,1,1H9a1,1,0,0,0,1-1V5A1,1,0,0,0,9,4ZM8,8H6V6H8Zm19,2a1,1,0,0,0,1-1V5a1,1,0,0,0-1-1H23a1,1,0,0,0-1,1V9a1,1,0,0,0,1,1ZM24,6h2V8H24ZM5,22a1,1,0,0,0-1,1v4a1,1,0,0,0,1,1H9a1,1,0,0,0,1-1V23a1,1,0,0,0-1-1Zm3,4H6V24H8Zm14-3v4a1,1,0,0,0,1,1h4a1,1,0,0,0,1-1V23a1,1,0,0,0-1-1H23A1,1,0,0,0,22,23Zm2,1h2v2H24Z" fill="#091020"/>
  </g>
</svg>
