<svg xmlns="http://www.w3.org/2000/svg" width="28.293" height="28.293" viewBox="0 0 28.293 28.293">
  <path id="mdi_design" d="M4,23v5H9L23.747,13.24l-5-5Zm26.147,1.48L24.48,30.147l-6.933-6.933,2.36-2.36,1.333,1.333,3.293-3.307,1.893,1.893L24.48,22.667,25.893,24l1.893-1.867ZM8.814,14.44,1.854,7.52,7.52,1.853l2.347,2.36L6.574,7.52,8,8.933l3.28-3.307L13.174,7.52,11.28,9.4l1.333,1.333Zm18.8-5.107a1.328,1.328,0,0,0,0-1.88l-3.12-3.067a1.328,1.328,0,0,0-1.88,0L20.16,6.827l5,5Z" transform="translate(-1.854 -1.853)" fill="#091020"/>
</svg>
