<svg xmlns="http://www.w3.org/2000/svg" width="26" height="30" viewBox="0 0 26 30">
  <g id="carbon_ibm-cloud-pak-integration" transform="translate(-3 -1)">
    <path id="Path_715" data-name="Path 715" d="M22.121,9.879a3,3,0,0,0-4.242,0l-.465.464,1.414,1.414.465-.464a1,1,0,0,1,1.414,1.414L17.414,16l1.414,1.414,3.293-3.293a3,3,0,0,0,0-4.242ZM12.707,20.707a1,1,0,0,1-1.414-1.414L14.586,16l-1.414-1.414L9.879,17.879a3,3,0,1,0,4.242,4.242l.465-.464-1.414-1.414ZM14.121,9.88A3,3,0,0,0,9.88,14.12l.464.465,1.414-1.414-.464-.465a1,1,0,0,1,1.414-1.414L16,14.586l1.414-1.414Z" fill="#091020"/>
    <path id="Path_716" data-name="Path 716" d="M22.121,17.879l-.464-.465-1.414,1.414.464.465a1,1,0,0,1-1.414,1.414L16,17.414l-1.414,1.414,3.293,3.293a3,3,0,0,0,4.242-4.242Z" fill="#091020"/>
    <path id="Path_717" data-name="Path 717" d="M16,31a1,1,0,0,1-.5-.136l-12-7A1,1,0,0,1,3,23V9a1,1,0,0,1,.5-.864l12-7a1,1,0,0,1,1.008,0l12,7L27.5,9.864,16,3.158,5,9.574V22.426l11,6.417,11-6.417V15h2v8a1,1,0,0,1-.5.864l-12,7A1,1,0,0,1,16,31Z" fill="#091020"/>
  </g>
</svg>
