<svg xmlns="http://www.w3.org/2000/svg" width="39.221" height="35.706" viewBox="0 0 39.221 35.706">
  <g id="blockchainPioneers-icon" transform="translate(-3 -3.613)">
    <path id="Path_798" data-name="Path 798" d="M24.789,26.7v6.958a2.18,2.18,0,0,0,1.155,1.924l6.537,3.479a2.179,2.179,0,0,0,2.047,0l6.537-3.479a2.18,2.18,0,0,0,1.155-1.924V26.7a2.18,2.18,0,0,0-1.155-1.924L34.528,21.3a2.179,2.179,0,0,0-2.047,0l-6.537,3.479A2.18,2.18,0,0,0,24.789,26.7Zm4.358,1.308L33.5,25.692l4.358,2.319v4.341L33.5,34.672l-4.358-2.319ZM30.171,7.348,23.634,3.869a2.179,2.179,0,0,0-2.047,0L15.05,7.348a2.181,2.181,0,0,0-1.155,1.924V16.23a2.18,2.18,0,0,0,1.155,1.924l6.537,3.479a2.179,2.179,0,0,0,2.047,0l6.537-3.479a2.18,2.18,0,0,0,1.155-1.924V9.271A2.18,2.18,0,0,0,30.171,7.348Zm-3.2,7.573L22.61,17.24l-4.358-2.319V10.58L22.61,8.26l4.358,2.319ZM10.692,21.3,4.155,24.779A2.18,2.18,0,0,0,3,26.7v6.958a2.18,2.18,0,0,0,1.155,1.924l6.537,3.479a2.179,2.179,0,0,0,2.047,0l6.537-3.479a2.18,2.18,0,0,0,1.155-1.924V26.7a2.18,2.18,0,0,0-1.155-1.924L12.739,21.3A2.178,2.178,0,0,0,10.692,21.3Zm5.381,11.052-4.358,2.319L7.358,32.352V28.011l4.358-2.319,4.358,2.319Z" transform="translate(0)" fill="#ffc200"/>
  </g>
</svg>
