<svg xmlns="http://www.w3.org/2000/svg" width="88.044" height="88.044" viewBox="0 0 88.044 88.044">
  <path id="blockchainPioneers" d="M.673,24.374,13.379,31.3a1.28,1.28,0,0,0,.141.066l.029.011q.055.021.113.036l.039.01c.037.009.074.015.112.021l.037.006a1.2,1.2,0,0,0,.3,0l.037-.006a1.283,1.283,0,0,0,.151-.031q.057-.015.113-.036l.03-.011a1.281,1.281,0,0,0,.141-.066l12.706-6.931A1.29,1.29,0,0,0,28,23.242V8.222c0-.005,0-.01,0-.015a1.281,1.281,0,0,0-.042-.313l-.01-.036Q27.926,7.8,27.9,7.74L27.888,7.7a1.3,1.3,0,0,0-.07-.138h0l0-.005a1.3,1.3,0,0,0-.085-.124L27.7,7.4q-.04-.048-.083-.092L27.6,7.287A1.281,1.281,0,0,0,27.34,7.1l-.014-.009L14.617.158a1.29,1.29,0,0,0-1.235,0L.673,7.09.659,7.1A1.282,1.282,0,0,0,.4,7.287l-.026.026Q.335,7.356.3,7.4L.27,7.436a1.293,1.293,0,0,0-.085.124l0,.005h0A1.3,1.3,0,0,0,.11,7.7L.1,7.74Q.073,7.8.055,7.857c0,.012-.007.024-.01.036A1.281,1.281,0,0,0,0,8.207c0,.005,0,.01,0,.015v15.02a1.29,1.29,0,0,0,.672,1.132Zm24.745-1.9L15.289,28V16.468l10.129-5.985ZM14,2.759,24.1,8.267,14,14.234,3.9,8.267ZM2.58,10.482,12.71,16.468V28L2.58,22.476ZM51.473,82.388l-.054.009a1.3,1.3,0,1,0,.054-.009Zm.218,1.464-.028-.188.03.2ZM88.044,8.207A1.28,1.28,0,0,0,88,7.893c0-.012-.007-.024-.01-.036q-.018-.059-.041-.116L87.936,7.7a1.3,1.3,0,0,0-.07-.138h0l0-.005a1.292,1.292,0,0,0-.085-.124L87.751,7.4q-.039-.048-.083-.092l-.026-.026a1.281,1.281,0,0,0-.255-.187l-.015-.009L74.665.158a1.29,1.29,0,0,0-1.235,0L60.72,7.09l-.015.009a1.281,1.281,0,0,0-.255.187l-.026.026q-.043.043-.082.091l-.026.032a1.3,1.3,0,0,0-.085.124l0,.005h0a1.3,1.3,0,0,0-.07.138l-.015.036q-.023.058-.041.116c0,.012-.007.024-.01.036a1.28,1.28,0,0,0-.042.313c0,.005,0,.01,0,.015v15.02a1.29,1.29,0,0,0,.672,1.132L73.427,31.3a1.281,1.281,0,0,0,.141.066l.03.011q.055.021.113.036l.039.01q.055.013.111.021l.037.006a1.205,1.205,0,0,0,.3,0l.037-.006a1.283,1.283,0,0,0,.151-.031q.058-.015.113-.036l.029-.011a1.279,1.279,0,0,0,.141-.066l12.706-6.931a1.29,1.29,0,0,0,.672-1.132V8.222c0-.005,0-.01,0-.015ZM72.757,28,62.628,22.476V10.482l10.129,5.985Zm1.29-13.767-10.1-5.967,10.1-5.508,10.1,5.508Zm11.419,8.242L75.337,28V16.468l10.129-5.985ZM3.953,50.558l.077,0a1.29,1.29,0,0,0,1.212-1.363l0-.036a1.29,1.29,0,1,0-2.573.184l1.288-.072-1.287.076A1.29,1.29,0,0,0,3.953,50.558Zm.393-10.271A1.289,1.289,0,0,0,5.86,39.271l0-.024a1.29,1.29,0,1,0-2.534-.484l1.263.259-1.265-.249a1.29,1.29,0,0,0,1.016,1.515ZM2.663,44.013l0,.036a1.29,1.29,0,0,0,1.212,1.364l.077,0a1.3,1.3,0,1,0-1.286-1.4ZM36.478,6.17a1.291,1.291,0,1,0-.253-2.554l-.053.012a1.29,1.29,0,0,0,.306,2.542ZM56.3,81.287a1.29,1.29,0,1,0,.7,2.482l.052-.015a1.29,1.29,0,1,0-.753-2.467Zm.149-74.555.057.017a1.3,1.3,0,1,0-.057-.017Zm-9.78-1.555h.039A1.29,1.29,0,1,0,46.749,2.6h-.017A1.284,1.284,0,0,0,45.414,3.85,1.3,1.3,0,0,0,46.673,5.177Zm4.947.466A1.29,1.29,0,1,0,52.06,3.1l-.054-.009a1.29,1.29,0,1,0-.385,2.551Zm-10.069-.3q.057,0,.115-.005l.057-.006a1.294,1.294,0,1,0-.171.011Zm-10.015,2.3a1.294,1.294,0,1,0-.4-2.518l-.044.016a1.291,1.291,0,0,0,.444,2.5ZM3.345,54.619A1.28,1.28,0,0,0,4.6,55.652,1.295,1.295,0,1,0,3.34,54.6s0,.021,0,.024ZM46.5,82.865h-.018a1.29,1.29,0,1,0,.038,2.579h.039l-.021-1.29.038,1.289a1.29,1.29,0,1,0-.076-2.578ZM82.53,32.507a1.29,1.29,0,0,0-.927,1.571l.012.044a1.29,1.29,0,1,0,2.487-.685l-1.249.319,1.249-.322a1.289,1.289,0,0,0-1.571-.927Zm2.936,11.43a1.282,1.282,0,0,0-1.29-1.281,1.3,1.3,0,0,0-1.29,1.3c0,.015,0,.029,0,.044s0,.028,0,.042a1.29,1.29,0,0,0,2.579,0v-.017c0-.012,0-.024,0-.036s0-.022,0-.033ZM36.626,81.93l-.057-.013a1.3,1.3,0,1,0,.057.013Zm-.343,1.415,0-.01.037-.152Zm5.238-.634a1.29,1.29,0,1,0-.289,2.563l.057.006c.039,0,.077.005.115.005a1.29,1.29,0,0,0,.118-2.574Zm6.146-48V33.275a1.29,1.29,0,0,0-2.579,0v1.153H43.631V33.275a1.29,1.29,0,0,0-2.579,0v1.153H38.54a1.29,1.29,0,1,0,0,2.579h.5V51.038h-.5a1.29,1.29,0,1,0,0,2.579h2.512V54.77a1.29,1.29,0,1,0,2.579,0V53.617h1.457V54.77a1.29,1.29,0,1,0,2.579,0V53.338a4.737,4.737,0,0,0,3.129-4.45V47.462a4.715,4.715,0,0,0-1.488-3.439A4.715,4.715,0,0,0,50.8,40.583V39.157A4.737,4.737,0,0,0,47.667,34.707Zm.55,14.182a2.152,2.152,0,0,1-2.15,2.15H41.618V45.312h4.449a2.152,2.152,0,0,1,2.15,2.15Zm0-8.305a2.152,2.152,0,0,1-2.15,2.15H41.618V37.007h4.449a2.152,2.152,0,0,1,2.15,2.15ZM88,64.475l-.011-.036q-.017-.059-.041-.116l-.014-.036a1.3,1.3,0,0,0-.07-.138h0l0-.005a1.3,1.3,0,0,0-.085-.124l-.025-.031q-.04-.048-.083-.092l-.025-.025a1.277,1.277,0,0,0-.255-.188l-.014-.009L74.665,56.739a1.29,1.29,0,0,0-1.235,0L60.72,63.671l-.015.009a1.281,1.281,0,0,0-.254.187l-.026.026q-.043.043-.082.091l-.026.032a1.3,1.3,0,0,0-.085.124l0,.005h0a1.3,1.3,0,0,0-.07.138l-.015.036q-.023.058-.041.116c0,.012-.007.024-.01.036a1.281,1.281,0,0,0-.042.313c0,.005,0,.01,0,.015v15.02a1.29,1.29,0,0,0,.672,1.132l12.706,6.93a1.278,1.278,0,0,0,.141.066l.03.011q.055.021.113.036l.039.01q.055.013.111.021l.037.006a1.205,1.205,0,0,0,.3,0l.037-.006A1.284,1.284,0,0,0,74.384,88q.058-.015.113-.036l.029-.011a1.28,1.28,0,0,0,.141-.066l12.706-6.931a1.29,1.29,0,0,0,.672-1.132V64.8c0-.005,0-.01,0-.015A1.28,1.28,0,0,0,88,64.475ZM72.757,84.583,62.628,79.057V67.064l10.129,5.986Zm1.29-13.767-10.1-5.967,10.1-5.508,10.1,5.508Zm11.419,8.242L75.337,84.583V73.049l10.129-5.985Zm-.347-40.423a1.3,1.3,0,1,0,0,.031ZM27.954,64.475l-.01-.036q-.018-.059-.041-.116l-.015-.036a1.3,1.3,0,0,0-.07-.138h0l0-.005a1.3,1.3,0,0,0-.085-.124l-.025-.031q-.04-.049-.083-.092l-.025-.025a1.279,1.279,0,0,0-.256-.188l-.014-.009L14.617,56.739a1.29,1.29,0,0,0-1.235,0L.673,63.671l-.015.009a1.282,1.282,0,0,0-.254.187l-.027.027q-.043.043-.082.09l-.026.032a1.3,1.3,0,0,0-.085.124l0,0h0a1.3,1.3,0,0,0-.07.138L.1,64.322q-.023.058-.041.116c0,.012-.007.024-.01.036A1.281,1.281,0,0,0,0,64.788c0,.005,0,.01,0,.015v15.02a1.29,1.29,0,0,0,.672,1.132l12.706,6.931a1.278,1.278,0,0,0,.141.066l.029.011q.055.021.113.036l.039.01c.037.009.074.015.112.021l.037.006a1.205,1.205,0,0,0,.3,0l.037-.006A1.284,1.284,0,0,0,14.336,88q.057-.015.113-.036l.03-.011a1.28,1.28,0,0,0,.141-.066l12.706-6.931A1.29,1.29,0,0,0,28,79.823V64.8c0-.005,0-.01,0-.015a1.28,1.28,0,0,0-.042-.313ZM12.71,84.583,2.58,79.057V67.064L12.71,73.049ZM14,70.815,3.9,64.848,14,59.34l10.1,5.508Zm11.419,8.242L15.289,84.583V73.049l10.129-5.986ZM7.12,34.435a1.29,1.29,0,0,0-2.447-.816l-.007.022a1.289,1.289,0,0,0,1.224,1.683,1.3,1.3,0,0,0,1.231-.89Zm56.468,9.587A19.564,19.564,0,1,0,44.023,63.587,19.564,19.564,0,0,0,63.588,44.023ZM44.023,61.008A16.985,16.985,0,1,1,61.008,44.023,16.985,16.985,0,0,1,44.023,61.008ZM83.2,52.956a1.3,1.3,0,1,0,.918,1.605l.009-.034a1.29,1.29,0,0,0-.927-1.571Zm.825-5.079a1.29,1.29,0,0,0-1.448,1.109s0,.026,0,.031a1.29,1.29,0,1,0,2.56.313l-1.278-.175,1.279.169A1.29,1.29,0,0,0,84.02,47.877ZM31.839,80.516l-.05-.018a1.3,1.3,0,1,0,.05.018Zm-.536,1.43.007-.019.077-.2Z" transform="translate(-0.001 0)" fill="#091020"/>
</svg>
