<svg xmlns="http://www.w3.org/2000/svg" width="26.667" height="26.667" viewBox="0 0 26.667 26.667">
  <path id="gridicons_customize" d="M2.667,8A6.909,6.909,0,0,1,5.334,2.667,2.7,2.7,0,0,0,8,5.333a3.981,3.981,0,0,1,3.717,5.455Q13.2,11.965,14.639,13.2l-2.773,2.773q-1.233-1.438-2.411-2.921A3.97,3.97,0,0,1,8,13.333,5.332,5.332,0,0,1,2.667,8Zm16.2,9.131,1.788-1.788A5.928,5.928,0,0,0,23.334,16a6,6,0,0,0,6-6,5.928,5.928,0,0,0-.657-2.676L24,12,21.334,9.333,26.01,4.657A5.928,5.928,0,0,0,23.334,4a6,6,0,0,0-6,6,5.928,5.928,0,0,0,.657,2.676L4,26.667l2.667,2.667L15.8,20.2a91.414,91.414,0,0,0,7.969,7.265L25.667,29l2-2-1.532-1.9A91.445,91.445,0,0,0,18.87,17.131Z" transform="translate(-2.667 -2.667)" fill="#091020"/>
</svg>
