<svg xmlns="http://www.w3.org/2000/svg" width="50" height="50" viewBox="0 0 50 50">
  <path id="cardano" d="M29.281,6.643c.571-1.186-.75-2.6-1.857-1.989A1.622,1.622,0,0,0,27,7.14a1.354,1.354,0,0,0,2.25-.5ZM17.14,7.179a1.112,1.112,0,0,0-1.428-1.148,1.245,1.245,0,0,0-.143,2.219A1.1,1.1,0,0,0,17.14,7.179ZM39.708,8.288a1.221,1.221,0,0,1-.214-2.257c.786-.421,1.464.344,1.607,1.148C40.922,7.867,40.422,8.479,39.708,8.288ZM20.889,13.223a1.716,1.716,0,0,0-2.5-1.76,1.925,1.925,0,0,0-.25,3.022A1.676,1.676,0,0,0,20.889,13.223Zm14.391-.956a1.667,1.667,0,0,1,3.071-.076,1.979,1.979,0,0,1-1.107,2.678,1.854,1.854,0,0,1-1.928-2.6Zm-7.213.383a2.2,2.2,0,0,0-2.035,2.142,2.3,2.3,0,0,0,1.321,2.142h.214a2.008,2.008,0,0,0,1.25-.153,2.215,2.215,0,0,0,.928-2.946A2.174,2.174,0,0,0,28,12.611ZM8.605,16.513c1-.689,2.357.574,2,1.76a1.383,1.383,0,0,1-2.214.8,1.6,1.6,0,0,1,.214-2.525Zm39.6,1.262a1.388,1.388,0,0,0-2.178-1.262,1.582,1.582,0,0,0,.143,2.6,1.389,1.389,0,0,0,2-1.339Zm-17.283.842a3.251,3.251,0,0,1,3.892,1.492,3.848,3.848,0,0,1-1.143,5.164,3.3,3.3,0,0,1-4.856-1.913A3.734,3.734,0,0,1,30.924,18.616Zm-3.857,1.8a3.284,3.284,0,0,0-4.428-1.607,3.81,3.81,0,0,0-1.571,4.935,3.267,3.267,0,0,0,4.607,1.568,3.82,3.82,0,0,0,1.393-4.935ZM14.319,21.868a2.155,2.155,0,0,1,2.035-1.874,2.329,2.329,0,0,1,1.964,2.142,2.219,2.219,0,0,1-1.964,2.219A2.075,2.075,0,0,1,14.319,21.868Zm27.46.268a2.037,2.037,0,0,0-2.928-1.913,2.287,2.287,0,0,0-.143,3.749A2.011,2.011,0,0,0,41.779,22.136ZM19.247,26a3.3,3.3,0,0,1,3.821,1.76,3.867,3.867,0,0,1-.75,4.552,3.279,3.279,0,0,1-5.249-1.186,3.739,3.739,0,0,1,2.178-5.088Zm19.569,1.53A3.269,3.269,0,0,0,34.994,26a3.786,3.786,0,0,0-2,5.241,3.271,3.271,0,0,0,4.856,1.3A3.867,3.867,0,0,0,38.815,27.53ZM9.891,27.8a1.8,1.8,0,0,1,2.143,2.333,1.644,1.644,0,0,1-2.75.765A1.907,1.907,0,0,1,9.891,27.8Zm35.816-.23a2.035,2.035,0,0,0-1.786,2.181,2.409,2.409,0,0,0,.964,1.339,1.707,1.707,0,0,0,2.464-1.607A1.926,1.926,0,0,0,45.707,27.568Zm-41.994.88a1.112,1.112,0,0,1,1.5,1.262,1.083,1.083,0,0,1-1.964.574,1.273,1.273,0,0,1,.429-1.836Zm49.207.536a1.078,1.078,0,0,0-1.607-.574c-.893.5-.536,2.3.536,2.18A1.155,1.155,0,0,0,52.921,28.983Zm-29.6,4.361c2-.574,4.107,1.224,4.142,3.443.143,2.257-1.964,4.208-4,3.711a3.349,3.349,0,0,1-2-1.278,3.79,3.79,0,0,1-.754-2.356,3.63,3.63,0,0,1,2.642-3.519Zm12.07,3.481c0-2.257-2.178-4.093-4.178-3.481a3.5,3.5,0,0,0-2.464,2.716,3.67,3.67,0,0,0,2.75,4.476,3.511,3.511,0,0,0,3.928-3.672Zm-19.355-2.1a2.128,2.128,0,0,1,2.143,2.869,1.94,1.94,0,0,1-3.392.689A2.217,2.217,0,0,1,16.033,34.721Zm25.746,2.142A2.022,2.022,0,0,0,39.1,34.8a2.254,2.254,0,0,0-.393,3.825,2.005,2.005,0,0,0,3.071-1.8ZM45.564,41.8a1.47,1.47,0,0,1,1.393-2.1,1.587,1.587,0,0,1,1.107.727V40.5l.071.115a1.91,1.91,0,0,1-.286,1.645,1.343,1.343,0,0,1-2.321-.382Zm-34.888-.306c.214-1.186-1.143-2.219-2.071-1.53a1.617,1.617,0,0,0-.071,2.6A1.39,1.39,0,0,0,10.676,41.492Zm16.533.689a2.069,2.069,0,1,1-.393,3.787,2.266,2.266,0,0,1,.357-3.825Zm-6.249,3.9A1.72,1.72,0,0,0,18.6,44.361a2.128,2.128,0,0,0-1.071,1.989c.25.727.786,1.492,1.571,1.53A1.708,1.708,0,0,0,20.961,46.083Zm15.1-1.683a1.767,1.767,0,1,1-.214,3.1,1.92,1.92,0,0,1,.214-3.06Zm3.892,6.2a1.3,1.3,0,0,0-.857,1.913,1.1,1.1,0,0,0,2.035-.5,1.335,1.335,0,0,0-1.143-1.454Zm-25,1.224c.179-.612.643-1.262,1.321-1.071a1.222,1.222,0,0,1,.429,2.18C15.926,53.5,15.033,52.739,14.962,51.821Zm13.677-.153a1.374,1.374,0,0,0-2.035.88A1.487,1.487,0,0,0,28,54.5a1.586,1.586,0,0,0,1.178-.765c.071-.268.107-.5.179-.765a1.673,1.673,0,0,0-.75-1.3Z" transform="translate(-3.019 -4.506)" fill="#0033ad" fill-rule="evenodd"/>
</svg>
