<svg xmlns="http://www.w3.org/2000/svg" width="30.625" height="30.625" viewBox="0 0 30.625 30.625">
  <path id="collaboration-icon" d="M6.563,22.969V21.875H4.375v1.094a7.656,7.656,0,0,0,7.656,7.656h3.281V28.438H12.031a5.469,5.469,0,0,1-5.469-5.469ZM26.25,12.031v1.094h2.188V12.031a7.656,7.656,0,0,0-7.656-7.656H17.5V6.563h3.281a5.469,5.469,0,0,1,5.469,5.469Zm-14.219,0H5.469a3.281,3.281,0,0,0-3.281,3.281V17.5H4.375V15.313a1.094,1.094,0,0,1,1.094-1.094h6.562a1.094,1.094,0,0,1,1.094,1.094V17.5h2.188V15.313a3.281,3.281,0,0,0-3.281-3.281ZM8.75,10.938A4.375,4.375,0,1,0,5.656,9.656,4.375,4.375,0,0,0,8.75,10.938Zm0-6.562A2.188,2.188,0,1,1,7.2,5.016,2.188,2.188,0,0,1,8.75,4.375ZM29.531,27.344H22.969a3.281,3.281,0,0,0-3.281,3.281v2.188h2.188V30.625a1.094,1.094,0,0,1,1.094-1.094h6.562a1.094,1.094,0,0,1,1.094,1.094v2.188h2.188V30.625a3.281,3.281,0,0,0-3.281-3.281Zm-7.656-5.469a4.375,4.375,0,1,0,1.281-3.094A4.375,4.375,0,0,0,21.875,21.875Zm6.563,0a2.187,2.187,0,1,1-.641-1.547A2.187,2.187,0,0,1,28.438,21.875Z" transform="translate(-2.188 -2.188)" fill="#ffc200"/>
</svg>
