<svg xmlns="http://www.w3.org/2000/svg" width="66.839" height="107.021" viewBox="0 0 66.839 107.021">
  <g id="competitivePricing" transform="translate(-9.004 0.023)">
    <path id="Path_748" data-name="Path 748" d="M72.4,80.478,56.441,60a6.686,6.686,0,0,0-1.917-10.1L57.4,44.131a5.839,5.839,0,0,0-5.215-8.446H44.652V29h7.332A19.433,19.433,0,0,0,71.394,8.942a2.229,2.229,0,0,0-2.229-2.229c-10.051,0-17.828-1.137-24.514,7.042V2.257a2.229,2.229,0,1,0-4.457,0V7.07C33.509-1.086,25.464.028,15.681.028a2.229,2.229,0,0,0-2.229,2.229,19.433,19.433,0,0,0,19.41,20.057h7.332V35.685H32.662a5.839,5.839,0,0,0-5.215,8.446L30.322,49.9A6.686,6.686,0,0,0,28.406,60L12.45,80.478A16.447,16.447,0,0,0,25.42,107H59.427A16.447,16.447,0,0,0,72.4,80.478ZM32.863,17.857A14.953,14.953,0,0,1,17.909,4.485h7.243A14.953,14.953,0,0,1,40.195,17.857Zm.646,35.656H51.337a2.229,2.229,0,0,1,0,4.457H33.509a2.229,2.229,0,0,1,0-4.457Zm26.1-42.342h7.332A14.953,14.953,0,0,1,52.073,24.542H44.652A14.953,14.953,0,0,1,59.605,11.171ZM32.662,40.142H52.184a1.359,1.359,0,0,1,1.226,1.983l-3.454,6.931H34.891c-3.744-7.466-3.61-7.064-3.61-7.532A1.382,1.382,0,0,1,32.662,40.142Zm26.742,62.4H25.42a11.989,11.989,0,0,1-9.449-19.321C34.378,59.6,31.593,62.427,33.509,62.427c19.656,0,18.14,0,19.076-.134,16.915,21.728,18.809,22.8,18.809,28.28a11.989,11.989,0,0,1-11.967,11.967Z" transform="translate(0 0)" fill="#091020"/>
    <path id="Path_749" data-name="Path 749" d="M27.688,37.464a2.229,2.229,0,0,1,2.229,2.229,2.229,2.229,0,0,0,2.229,2.229c3.7,0,2.7-6.686-2.229-8.513a2.229,2.229,0,0,0-4.457,0,6.686,6.686,0,0,0,2.229,12.97,2.229,2.229,0,1,1-2.229,2.229,2.229,2.229,0,0,0-2.229-2.229c-3.7,0-2.7,6.686,2.229,8.513a2.229,2.229,0,0,0,4.457,0,6.686,6.686,0,0,0-2.229-12.97,2.229,2.229,0,0,1,0-4.457Z" transform="translate(14.735 38.334)" fill="#091020"/>
  </g>
</svg>
