<svg xmlns="http://www.w3.org/2000/svg" width="49.933" height="58.093" viewBox="0 0 49.933 58.093">
  <path id="Contract" d="M27.732,36H49.863v5.533H27.732Zm5.533,22.131H22.2V13.866H41.564V27.7H55.4v8.576l5.533-5.533V24.931l-16.6-16.6H22.2a5.533,5.533,0,0,0-5.533,5.533V58.128A5.533,5.533,0,0,0,22.2,63.66H33.265Zm-5.533-5.533H39.074l2.49-2.49V47.062H27.732ZM61.482,38.763a2.1,2.1,0,0,1,1.107.553l3.6,3.6a1.683,1.683,0,0,1,0,2.213l-2.766,2.766-5.809-5.809,2.766-2.766A1.437,1.437,0,0,1,61.482,38.763Zm0,10.789L44.607,66.427H38.8V60.617L55.673,43.743Z" transform="translate(-16.667 -8.333)" fill="#091020"/>
</svg>
