<svg xmlns="http://www.w3.org/2000/svg" width="40.739" height="47.081" viewBox="0 0 40.739 47.081">
  <g id="cronos-cro-logo" transform="translate(1 -0.795)">
    <path id="Path_783" data-name="Path 783" d="M20.386,0,0,11.77V35.311l20.386,11.77,20.352-11.77V11.77ZM34.7,31.817,20.352,40.094,6.038,31.817V15.264L20.386,6.988,34.7,15.264Z" transform="translate(-1 0.796)" fill="#fff"/>
    <path id="Path_784" data-name="Path 784" d="M60.034,47.081l20.352-11.77V11.77L60.034,0V6.988l14.314,8.277V31.851L60,40.128v6.954Z" transform="translate(-40.647 0.796)" fill="#fff"/>
    <path id="Path_785" data-name="Path 785" d="M20.352,0,0,11.77V35.311l20.352,11.77V40.094L6.038,31.817V15.23L20.352,6.988Z" transform="translate(-1 0.796)" fill="#fff"/>
    <path id="Path_786" data-name="Path 786" d="M51.029,53.485l-9.5,5.5L32,53.485V42.5L41.532,37l9.5,5.5L47.061,44.8,41.5,41.579,35.969,44.8v6.411l5.563,3.222,5.563-3.222Z" transform="translate(-22.145 -23.654)" fill="#fff"/>
  </g>
</svg>
