<svg xmlns="http://www.w3.org/2000/svg" width="38.232" height="55.054" viewBox="0 0 38.232 55.054">
  <path id="cryptoDev" d="M37.367,46.211V58.445H31.25v6.117h9.176v6.117h6.117V64.562H52.66v6.117h6.117V64.406A12.155,12.155,0,0,0,64.466,42.5a12.171,12.171,0,0,0-5.689-20.324V15.625H52.66v6.117H46.543V15.625H40.426v6.117H31.25v6.117h6.117ZM57.248,58.445H43.484V46.211H57.248a6.117,6.117,0,0,1,0,12.234ZM43.484,27.859H55.719a6.117,6.117,0,0,1,0,12.234H43.484Z" transform="translate(-31.25 -15.625)" fill="#091020"/>
</svg>
