<svg xmlns="http://www.w3.org/2000/svg" width="26.25" height="26.25" viewBox="0 0 26.25 26.25">
  <path id="customer-focus" d="M30.625,6.563v3.828a1.094,1.094,0,0,1-2.187,0V6.563H24.609a1.094,1.094,0,1,1,0-2.187h3.828a2.187,2.187,0,0,1,2.188,2.188ZM29.531,23.516a1.094,1.094,0,0,0-1.094,1.094v3.828H24.609a1.094,1.094,0,0,0,0,2.188h3.828a2.187,2.187,0,0,0,2.188-2.187V24.609a1.094,1.094,0,0,0-1.094-1.094ZM10.391,28.438H6.563V24.609a1.094,1.094,0,1,0-2.187,0v3.828a2.187,2.187,0,0,0,2.188,2.188h3.828a1.094,1.094,0,0,0,0-2.187ZM5.469,11.484a1.094,1.094,0,0,0,1.094-1.094V6.563h3.828a1.094,1.094,0,1,0,0-2.187H6.563A2.187,2.187,0,0,0,4.375,6.563v3.828a1.094,1.094,0,0,0,1.094,1.094ZM24.063,24.063a1.094,1.094,0,0,1-.876-.436,7.109,7.109,0,0,0-11.375,0,1.095,1.095,0,0,1-1.75-1.315,9.288,9.288,0,0,1,3.748-2.964,5.469,5.469,0,1,1,7.375,0,9.289,9.289,0,0,1,3.75,2.964,1.094,1.094,0,0,1-.871,1.751ZM17.5,18.594a3.281,3.281,0,1,0-2.32-.961A3.282,3.282,0,0,0,17.5,18.594Z" transform="translate(-4.375 -4.375)" fill="#ffc200"/>
</svg>
