<svg xmlns="http://www.w3.org/2000/svg" width="28" height="28" viewBox="0 0 28 28">
  <g id="carbon_ibm-cloud-mass-data-migration" transform="translate(-2 -2)">
    <path id="Path_713" data-name="Path 713" d="M22,30H10a2.006,2.006,0,0,1-2-2V25h2v3H22V25h2v3A2.006,2.006,0,0,1,22,30ZM15,14.8V25h2V14.8l2.6,2.6L21,16l-5-5-5,5,1.4,1.4Z" fill="#091020"/>
    <path id="Path_714" data-name="Path 714" d="M24.8,9.1a9,9,0,0,0-17.6,0A6.517,6.517,0,0,0,8.5,22H12V20H8.5A4.481,4.481,0,0,1,4,15.5,4.55,4.55,0,0,1,8.1,11H9l.1-.8a6.946,6.946,0,0,1,13.8-.1l.1.9.8.1a4.55,4.55,0,0,1,4.1,4.5,4.481,4.481,0,0,1-4.5,4.5H20v2h3.5A6.487,6.487,0,0,0,30,15.6,6.565,6.565,0,0,0,24.8,9.1Z" fill="#091020"/>
  </g>
</svg>
