<svg width="30" height="30" viewBox="0 0 30 30" fill="none" xmlns="http://www.w3.org/2000/svg">
<path d="M15 13.75C18.125 13.75 20.7812 13.2604 22.9688 12.2812C25.1562 11.3021 26.25 10.125 26.25 8.75C26.25 7.375 25.1562 6.19792 22.9688 5.21875C20.7812 4.23958 18.125 3.75 15 3.75C11.875 3.75 9.21875 4.23958 7.03125 5.21875C4.84375 6.19792 3.75 7.375 3.75 8.75C3.75 10.125 4.84375 11.3021 7.03125 12.2812C9.21875 13.2604 11.875 13.75 15 13.75ZM15 16.875C15.8542 16.875 16.9221 16.7862 18.2037 16.6087C19.4854 16.4312 20.7196 16.145 21.9062 15.75C23.0929 15.355 24.1138 14.8396 24.9688 14.2037C25.8238 13.5679 26.2508 12.7917 26.25 11.875V15C26.25 15.9167 25.8229 16.6929 24.9688 17.3287C24.1146 17.9646 23.0937 18.48 21.9062 18.875C20.7187 19.27 19.4846 19.5567 18.2037 19.735C16.9229 19.9133 15.855 20.0017 15 20C14.145 19.9983 13.0775 19.9096 11.7975 19.7337C10.5175 19.5579 9.28292 19.2717 8.09375 18.875C6.90458 18.4783 5.88375 17.9629 5.03125 17.3287C4.17875 16.6946 3.75167 15.9183 3.75 15V11.875C3.75 12.7917 4.17708 13.5679 5.03125 14.2037C5.88542 14.8396 6.90625 15.355 8.09375 15.75C9.28125 16.145 10.5158 16.4317 11.7975 16.61C13.0792 16.7883 14.1467 16.8767 15 16.875ZM15 23.125C15.8542 23.125 16.9221 23.0363 18.2037 22.8588C19.4854 22.6813 20.7196 22.395 21.9062 22C23.0929 21.605 24.1138 21.0896 24.9688 20.4538C25.8238 19.8179 26.2508 19.0417 26.25 18.125V21.25C26.25 22.1667 25.8229 22.9429 24.9688 23.5788C24.1146 24.2146 23.0937 24.73 21.9062 25.125C20.7187 25.52 19.4846 25.8067 18.2037 25.985C16.9229 26.1633 15.855 26.2517 15 26.25C14.145 26.2483 13.0775 26.1596 11.7975 25.9838C10.5175 25.8079 9.28292 25.5217 8.09375 25.125C6.90458 24.7283 5.88375 24.2129 5.03125 23.5788C4.17875 22.9446 3.75167 22.1683 3.75 21.25V18.125C3.75 19.0417 4.17708 19.8179 5.03125 20.4538C5.88542 21.0896 6.90625 21.605 8.09375 22C9.28125 22.395 10.5158 22.6817 11.7975 22.86C13.0792 23.0383 14.1467 23.1267 15 23.125Z" fill="#091020"/>
</svg>
