<svg xmlns="http://www.w3.org/2000/svg" width="41.264" height="47.954" viewBox="0 0 41.264 47.954">
  <path id="education-icon" d="M11.057,2.061,32.165,2.05v8.225l-21.107.011a4.464,4.464,0,0,1-2.65-.868L4.986,6.893a.893.893,0,0,1,0-1.436L8.411,2.929a4.464,4.464,0,0,1,2.643-.871Zm29.8,8.207-4.225,0V2.046h4.239a4.175,4.175,0,0,1,4,4.107,4.179,4.179,0,0,1-4,4.114Zm-21.182,8.25a22.364,22.364,0,0,1,3.1,1.525V50a19.534,19.534,0,0,0-4.429-2.5c-2.625-1.05-6.411-1.918-12.186-1.918A1.786,1.786,0,0,1,4.368,43.8V18.125a1.786,1.786,0,0,1,1.786-1.786C12.3,16.339,16.547,17.264,19.672,18.518ZM31.657,47.5A19.752,19.752,0,0,0,27.229,50V20.043a22.414,22.414,0,0,1,3.1-1.525c3.125-1.254,7.375-2.179,13.518-2.179a1.786,1.786,0,0,1,1.786,1.786V43.8a1.786,1.786,0,0,1-1.786,1.786C38.072,45.582,34.286,46.446,31.657,47.5Z" transform="translate(-4.368 -2.046)" fill="#ffc200" fill-rule="evenodd"/>
</svg>
