<svg xmlns="http://www.w3.org/2000/svg" width="26.106" height="39.041" viewBox="0 0 26.106 39.041">
  <g id="end-to-end-services" transform="translate(-10.602)">
    <path id="Path_801" data-name="Path 801" d="M14.34,15.76A10.317,10.317,0,0,1,10.6,13.422v5.284c0,1.362,1.381,2.736,3.738,3.755Zm18.177,6.886c2.639-1.032,4.191-2.474,4.191-3.94V13.434a10.715,10.715,0,0,1-4.191,2.491Z" transform="translate(0 -5.234)" fill="#ffc200"/>
    <path id="Path_802" data-name="Path 802" d="M15.161,9.524a.6.6,0,0,1,.2.117.469.469,0,0,1,.043.043.611.611,0,0,1,.165.418v3.356a30.081,30.081,0,0,1,3.884-.816V11.519a2.261,2.261,0,1,1,4.518,0v.853a29.319,29.319,0,0,1,7.321,1.085v-3.2a.732.732,0,0,1,.012-.117.343.343,0,0,1,.037-.117.613.613,0,0,1,.129-.2.552.552,0,0,1,.091-.074.413.413,0,0,1,.1-.055l.043-.019c3.13-1.05,5-2.632,5-4.24C36.708,2.491,30.731,0,23.655,0S10.6,2.491,10.6,5.438C10.6,6.959,12.308,8.482,15.161,9.524Z" transform="translate(0)" fill="#ffc200"/>
    <rect id="Rectangle_3679" data-name="Rectangle 3679" width="14.383" height="3.788" transform="translate(18.782 35.253)" fill="#ffc200"/>
    <path id="Path_803" data-name="Path 803" d="M34.993,28.287a1.3,1.3,0,0,0-.939.412,1.518,1.518,0,0,0-.4,1.032v-.1a.548.548,0,1,1-1.1,0V28.1a1.392,1.392,0,0,0-1.335-1.439,1.3,1.3,0,0,0-.939.412,1.516,1.516,0,0,0-.394,1.027v1.234a.549.549,0,0,1-1.1,0v-2.7a1.338,1.338,0,1,0-2.668,0v2.7a.549.549,0,1,1-1.1,0V18.407a1.555,1.555,0,0,0-.043-.362c-.006-.027-.012-.05-.016-.071a1.349,1.349,0,0,0-1.274-1.01,1.259,1.259,0,0,0-.846.329.6.6,0,0,0-.082.084.228.228,0,0,1-.038.038.361.361,0,0,0-.038.049c-.023.027-.044.055-.066.088a1.887,1.887,0,0,0-.1.17.125.125,0,0,1-.011.027c-.027.061-.05.12-.071.181a1.114,1.114,0,0,0-.05.181v.006a1.238,1.238,0,0,1-.055.126.512.512,0,0,1,.027.165V32.181a.55.55,0,0,1-.949.373l-3.185-3.245a1.141,1.141,0,0,0-.835-.368,1.163,1.163,0,0,0-.84.368,1.361,1.361,0,0,0-.362.933,1.375,1.375,0,0,0,.362.934l1.055.983a11.205,11.205,0,0,1,2.383,3.316,12.991,12.991,0,0,0,1.23,2.63,17.882,17.882,0,0,1,1.1,2.164.55.55,0,0,1,.044.214v.84H34.777V40.009a.619.619,0,0,1,.269-.472,3.451,3.451,0,0,0,1.122-2.9l.16-4.227V29.733A1.4,1.4,0,0,0,34.993,28.287Z" transform="translate(-2.18 -6.615)" fill="#ffc200"/>
  </g>
</svg>
