<svg xmlns="http://www.w3.org/2000/svg" width="100" height="100" viewBox="0 0 100 100">
  <g id="_6a3bef989cdd4b1e16ced172ca2ff866" data-name="6a3bef989cdd4b1e16ced172ca2ff866" transform="translate(-2 -2)">
    <path id="Path_744" data-name="Path 744" d="M100.333,42.456a10.919,10.919,0,0,1-10.09-6.665A10.713,10.713,0,0,1,92.612,24.02a1.636,1.636,0,0,0,0-2.331L82.1,11.286a1.68,1.68,0,0,0-2.357,0A10.689,10.689,0,0,1,72.1,14.48a10.932,10.932,0,0,1-7.8-3.131,10.693,10.693,0,0,1-3.2-7.7A1.658,1.658,0,0,0,59.433,2H44.567A1.658,1.658,0,0,0,42.9,3.649a10.693,10.693,0,0,1-3.2,7.7,10.932,10.932,0,0,1-7.8,3.131,10.689,10.689,0,0,1-7.638-3.193,1.68,1.68,0,0,0-2.357,0l-10.517,10.4a1.636,1.636,0,0,0,0,2.331,10.439,10.439,0,0,1,3.228,7.555,10.693,10.693,0,0,1-3.166,7.714,10.933,10.933,0,0,1-7.784,3.167A1.658,1.658,0,0,0,2,44.1V58.81a1.658,1.658,0,0,0,1.667,1.649,10.933,10.933,0,0,1,7.784,3.167,10.693,10.693,0,0,1,3.166,7.714,10.439,10.439,0,0,1-3.228,7.555,1.636,1.636,0,0,0,0,2.331L21.9,91.628a1.68,1.68,0,0,0,2.357,0A10.689,10.689,0,0,1,31.9,88.435a11.1,11.1,0,0,1,4.433.917l1.333-3.02A14.429,14.429,0,0,0,31.9,85.138,14.081,14.081,0,0,0,23.148,88.2L14.858,80a13.73,13.73,0,0,0,3.092-8.657A14.091,14.091,0,0,0,5.333,57.247V45.668A14.091,14.091,0,0,0,17.95,31.576a13.73,13.73,0,0,0-3.092-8.657l8.29-8.2A14.081,14.081,0,0,0,31.9,17.777,14.138,14.138,0,0,0,46.147,5.3H57.853A14.138,14.138,0,0,0,72.1,17.777a14.081,14.081,0,0,0,8.752-3.058l8.29,8.2a13.981,13.981,0,0,0-1.978,14.134,14.241,14.241,0,0,0,11.5,8.61V57.247A14.091,14.091,0,0,0,86.05,71.339,13.73,13.73,0,0,0,89.142,80l-8.29,8.2a14.431,14.431,0,0,0-14.518-1.865l1.333,3.02a11.1,11.1,0,0,1,4.433-.917,10.689,10.689,0,0,1,7.638,3.193,1.68,1.68,0,0,0,2.357,0l10.517-10.4a1.636,1.636,0,0,0,0-2.331,10.439,10.439,0,0,1-3.228-7.555,10.693,10.693,0,0,1,3.166-7.714,10.933,10.933,0,0,1,7.784-3.167A1.658,1.658,0,0,0,102,58.81V44.1A1.658,1.658,0,0,0,100.333,42.456Z" transform="translate(0 0)" fill="#091020"/>
    <path id="Path_745" data-name="Path 745" d="M25.555,58.591h8.166v-3.7H27.407V28.962H57.036V54.888H50.721v3.7h8.166a1.852,1.852,0,0,0,1.852-1.852V28.962h1.852a1.852,1.852,0,0,0,.767-3.537l-20.37-9.259a1.852,1.852,0,0,0-1.533,0l-20.37,9.259a1.852,1.852,0,0,0,.767,3.537H23.7V56.739A1.852,1.852,0,0,0,25.555,58.591Zm16.666-38.7,11.822,5.37H30.4Z" transform="translate(9.779 7.722)" fill="#091020"/>
    <path id="Path_746" data-name="Path 746" d="M74.966,49.04c0-18.119-11.138-33.576-26.328-36.541S18.666,19.925,13.69,37.068s1.319,36,14.88,44.585l1.492-3.263C18.629,71.155,12.837,55.7,16.008,40.893S30.5,15.7,43.484,15.7,67.789,26.082,70.96,40.893,68.339,71.155,56.9,78.389L58.4,81.652c10.211-6.447,16.578-18.98,16.569-32.612Z" transform="translate(8.516 3.554)" fill="#091020"/>
    <path id="Path_747" data-name="Path 747" d="M44.37,32.037v-.556a4.691,4.691,0,0,0-3.7-4.465V25h-3.7v2.017a4.691,4.691,0,0,0-3.7,4.465A4.8,4.8,0,0,0,38.2,36.111h1.233c.668,0,1.235.424,1.235.926s-.567.926-1.235.926H38.2c-.668,0-1.235-.424-1.235-.926v-.556h-3.7v.556a4.691,4.691,0,0,0,3.7,4.465v2.017h3.7V41.5a4.691,4.691,0,0,0,3.7-4.465,4.8,4.8,0,0,0-4.939-4.629H38.2c-.668,0-1.235-.424-1.235-.926s.567-.926,1.235-.926h1.233c.668,0,1.235.424,1.235.926v.556Zm.994,40.8a11.111,11.111,0,1,0-13.1,0A14.814,14.814,0,0,0,24,86.109v5.555a1.852,1.852,0,0,0,1.852,1.852H51.777a1.852,1.852,0,0,0,1.852-1.852V86.109A14.814,14.814,0,0,0,45.364,72.841ZM31.407,63.888a7.407,7.407,0,1,1,7.407,7.407A7.407,7.407,0,0,1,31.407,63.888ZM49.925,89.813H27.7v-3.7a11.111,11.111,0,1,1,22.222,0Z" transform="translate(13.186 8.483)" fill="#091020"/>
  </g>
</svg>
