<svg xmlns="http://www.w3.org/2000/svg" width="50.109" height="50.109" viewBox="0 0 50.109 50.109">
  <g id="energy-icon" transform="translate(-2.167 -2.167)">
    <path id="Path_729" data-name="Path 729" d="M48.173,18A23.064,23.064,0,0,0,5.9,18" transform="translate(0.185)" fill="none" stroke="#ffc200" stroke-linecap="round" stroke-linejoin="round" stroke-width="4"/>
    <path id="Path_730" data-name="Path 730" d="M25.666,14.583A22.985,22.985,0,0,0,18.75,31.048q0,.865.063,1.715a22.982,22.982,0,0,1,6.853,16.4,22.983,22.983,0,0,1,6.853-16.4,22.985,22.985,0,0,0-6.853-18.178Z" transform="translate(1.555 1.111)" fill="none" stroke="#ffc200" stroke-linecap="round" stroke-linejoin="round" stroke-width="4"/>
    <path id="Path_731" data-name="Path 731" d="M4.167,25A23.054,23.054,0,0,0,27.221,48.054,23.052,23.052,0,0,0,4.167,25Z" transform="translate(0 2.221)" fill="none" stroke="#ffc200" stroke-linecap="round" stroke-linejoin="round" stroke-width="4"/>
    <path id="Path_732" data-name="Path 732" d="M48.054,25A23.054,23.054,0,0,1,25,48.054,23.052,23.052,0,0,1,48.054,25Z" transform="translate(2.221 2.221)" fill="none" stroke="#ffc200" stroke-linecap="round" stroke-linejoin="round" stroke-width="4"/>
  </g>
</svg>
