<svg xmlns="http://www.w3.org/2000/svg" width="43.221" height="43.221" viewBox="0 0 43.221 43.221">
  <path id="entertainment-icon" d="M20.475,9.667H42.086v5.394h5.4V9.667a5.4,5.4,0,0,1,5.4,5.4V47.485a5.4,5.4,0,0,1-5.4,5.4V47.477h-5.4v5.411H20.475V47.477h-5.4v5.411a5.4,5.4,0,0,1-5.405-5.4V15.069a5.4,5.4,0,0,1,5.4-5.4l0,5.394h5.4Zm5.4,29.715,12.156-8.1-12.156-8.1Zm21.613,2.693v-8.1h-5.4v8.1Zm0-13.507v-8.1h-5.4v8.1ZM20.475,42.074v-8.1h-5.4v8.1Zm0-13.507v-8.1h-5.4v8.1Z" transform="translate(-9.667 -9.667)" fill="#ffc200"/>
</svg>
