<svg xmlns="http://www.w3.org/2000/svg" xmlns:xlink="http://www.w3.org/1999/xlink" width="50" height="50" viewBox="0 0 50 50">
  <defs>
    <clipPath id="clip-path">
      <rect id="Rectangle_3672" data-name="Rectangle 3672" width="50" height="50" transform="translate(0 0.034)" fill="#cbcbcb"/>
    </clipPath>
  </defs>
  <g id="eos" transform="translate(0 -0.034)" clip-path="url(#clip-path)">
    <path id="Path_726" data-name="Path 726" d="M25.019,50.038A25.019,25.019,0,1,1,50.038,25.019,25.018,25.018,0,0,1,25.019,50.038ZM16.531,18.056,12.669,35.7a.5.5,0,0,0,.242.568l11.842,7.42a.509.509,0,0,0,.271.078.5.5,0,0,0,.272-.078l11.842-7.42a.5.5,0,0,0,.241-.568L33.516,18.056a.5.5,0,0,0-.091-.2L25.435,6.935a.505.505,0,0,0-.821,0l-7.99,10.919a.5.5,0,0,0-.092.2ZM14.35,32.7l2.763-12.619,1.579,4.958Zm-.338,2.627,5.093-8.988,2.861,8.986H14.012Zm.884,1h7.39l1.842,5.784Zm4.467-12.475-1.787-5.61,6.943-9.484v6Zm5.661,17.778-1.689-5.3h3.378Zm.9.482,1.842-5.786h7.39Zm7.015-22.031L35.7,32.7l-4.341-7.66,1.579-4.957Zm-2.252,3.772L25.53,14.761v-6l6.943,9.484Zm5.351,11.473H28.084l2.862-8.986ZM25.024,15.9l5.248,9.258-3.24,10.173H23.017l-3.24-10.173Z" transform="translate(0 -0.003)" fill="#cbcbcb"/>
  </g>
</svg>
