<svg xmlns="http://www.w3.org/2000/svg" width="34.324" height="35.784" viewBox="0 0 34.324 35.784">
  <g id="excellence" transform="translate(-2.021 -1)">
    <path id="Path_799" data-name="Path 799" d="M5.147,15.877,2.81,15.636a.716.716,0,1,0-.147,1.424L5,17.3a.716.716,0,0,0,.147-1.424Zm1.535-4.948L4.558,9.856a.716.716,0,1,0-.645,1.278l2.123,1.073a.716.716,0,0,0,.645-1.278ZM9.537,8.31a.715.715,0,0,0,0-1.012L7.86,5.6A.716.716,0,0,0,6.843,6.609l1.681,1.7A.715.715,0,0,0,9.537,8.31Zm2.522-2.694a.716.716,0,0,0,1.276-.649L12.26,2.855a.716.716,0,1,0-1.276.649Zm5.008-.873a.716.716,0,0,0,.594-.819L17.293,1.6a.716.716,0,1,0-1.414.225l.369,2.32A.716.716,0,0,0,17.067,4.744Zm4.231,0a.716.716,0,0,0,.819-.594l.369-2.32A.716.716,0,0,0,21.073,1.6L20.7,3.924A.716.716,0,0,0,21.3,4.744Zm4.046,1.186a.716.716,0,0,0,.962-.313L27.382,3.5a.716.716,0,1,0-1.276-.649L25.032,4.967A.716.716,0,0,0,25.345,5.929ZM31.518,5.6a.714.714,0,0,0-1.012,0L28.825,7.3a.716.716,0,0,0,1.017,1.007l1.681-1.7A.715.715,0,0,0,31.518,5.6Zm3.251,4.575a.716.716,0,0,0-.962-.316l-2.123,1.073a.716.716,0,0,0,.645,1.278l2.124-1.073A.716.716,0,0,0,34.769,10.172Zm.787,5.464-2.337.241a.716.716,0,1,0,.147,1.424L35.7,17.06a.716.716,0,1,0-.147-1.424ZM20.067,22.578a9.055,9.055,0,0,1,1.274-4.137H17.025A9.142,9.142,0,0,1,18.3,22.578l.422,6.606h.923Z" fill="#ffc200"/>
    <path id="Path_800" data-name="Path 800" d="M22.411,8.982a10.637,10.637,0,0,0-9.118,17.027,19.266,19.266,0,0,1,2.884,5.439h3.7l-.408-6.52a7.732,7.732,0,0,0-1.2-3.693,1.283,1.283,0,0,1-.05-1.31,1.262,1.262,0,0,1,1.1-.651h4.917a1.262,1.262,0,0,1,1.1.651,1.284,1.284,0,0,1-.05,1.31,7.732,7.732,0,0,0-1.2,3.693l-.408,6.52h3.793a23.517,23.517,0,0,1,2.992-5.718A10.632,10.632,0,0,0,22.411,8.982Zm-5.132,28.4A1.732,1.732,0,0,0,19,39.049h5.554a1.71,1.71,0,0,0,1.718-1.625,20.452,20.452,0,0,1,.743-4.542h-10.4A21.372,21.372,0,0,1,17.279,37.382Z" transform="translate(-2.594 -2.264)" fill="#ffc200"/>
  </g>
</svg>
