<svg id="exchange" xmlns="http://www.w3.org/2000/svg" width="55.342" height="55.347" viewBox="0 0 55.342 55.347">
  <path id="Path_701" data-name="Path 701" d="M72.743,42.095a1.888,1.888,0,0,0-.5,1.7,24.206,24.206,0,0,1-41.62,21.024,1.826,1.826,0,0,0-2.628-.114,1.642,1.642,0,0,0-.09,2.261A27.664,27.664,0,0,0,75.582,42.866a1.658,1.658,0,0,0-2.839-.768M68.51,31.759a1.643,1.643,0,0,0,.062-2.3,27.663,27.663,0,0,0-47.08,25.08,1.66,1.66,0,0,0,2.835.743,1.89,1.89,0,0,0,.491-1.729A24.206,24.206,0,0,1,65.913,31.686a1.833,1.833,0,0,0,2.6.073Z" transform="translate(-20.82 -20.818)" fill="#091020"/>
  <path id="Path_702" data-name="Path 702" d="M72.084,26.042a1.729,1.729,0,0,1,1.729,1.729v6.916a1.729,1.729,0,0,1-1.729,1.729H65.168a1.729,1.729,0,0,1,0-3.458h5.187V27.771a1.729,1.729,0,0,1,1.729-1.729ZM28.5,64.587a1.729,1.729,0,0,1,1.224-.508H36.64a1.729,1.729,0,1,1,0,3.458H31.453v5.187a1.729,1.729,0,1,1-3.458,0V65.808a1.713,1.713,0,0,1,.5-1.221Z" transform="translate(-23.232 -22.574)" fill="#091020" fill-rule="evenodd"/>
  <path id="Path_703" data-name="Path 703" d="M61.158,59.7v6.712c2.289-.256,3.935-1.58,3.935-3.479,0-1.93-1.815-2.649-3.859-3.216ZM56.2,53.895c0,1.919,1.971,2.714,3.406,3.119v-6.28C57.527,51.011,56.2,52.256,56.2,53.895Z" transform="translate(-32.712 -30.872)" fill="#091020"/>
  <path id="Path_704" data-name="Path 704" d="M53.748,71.038a17.29,17.29,0,1,0-12.226-5.064A17.29,17.29,0,0,0,53.748,71.038Zm.775-5.187H52.973V63.741c-3.717-.242-5.986-2.324-6.2-5.3H49.19c.173,1.947,1.8,2.97,3.783,3.178V54.457l-.757-.218c-3.026-.868-4.917-2.421-4.917-5.028,0-2.974,2.431-5.031,5.671-5.36V41.645h1.556V43.82c3.423.228,5.844,2.327,5.934,5.087H58.191c-.207-1.722-1.663-2.8-3.665-3v6.722l.754.207c2.006.533,5.446,1.7,5.446,5.336,0,2.95-2.23,5.294-6.2,5.567Z" transform="translate(-26.076 -26.074)" fill="#091020" fill-rule="evenodd"/>
</svg>
