<svg id="_3f77bce53937e53957d360644073b9ea" data-name="3f77bce53937e53957d360644073b9ea" xmlns="http://www.w3.org/2000/svg" width="97.28" height="89.968" viewBox="0 0 97.28 89.968">
  <path id="Path_684" data-name="Path 684" d="M98.28,4.993a1.341,1.341,0,0,0-.59-1.179,1.5,1.5,0,0,0-1.327-.295c-31.542,8.844-62.79,8.107-93.595,0a1.772,1.772,0,0,0-1.179.295A1.341,1.341,0,0,0,1,4.993V81.637a1.538,1.538,0,0,0,1.916,1.474,170.388,170.388,0,0,1,24.467-5.454v14.3a1.393,1.393,0,0,0,1.474,1.474H69.243a1.393,1.393,0,0,0,1.474-1.474V77.068c22.7,3.1,27.563,8.549,27.563,4.569ZM61.726,65.719H36.374a9.1,9.1,0,0,0-8.991,8.844c-2.064.295-4.127.59-6.191,1.032V25.628c19.751,4.422,39.649,4.274,56.894.295V75.3c-2.506-.442-5.011-.884-7.37-1.179A9.124,9.124,0,0,0,61.726,65.719ZM3.948,52.159V38.009a109.064,109.064,0,0,0,14.3,4.422v14.3C15.3,55.843,9.991,54.517,3.948,52.159Zm34.2-26.826a127.06,127.06,0,0,1-16.95-2.8V10.446c5.748.884,11.5,1.621,16.95,1.916Zm-19.9,14a129.193,129.193,0,0,1-14.3-4.569v-14.3a109.064,109.064,0,0,0,14.3,4.422Zm77.087-4.569a116.521,116.521,0,0,1-14.3,4.864v-14.3a95.514,95.514,0,0,0,14.3-4.717ZM78.087,22.827a106.9,106.9,0,0,1-16.95,2.653V12.51a165.672,165.672,0,0,0,16.95-1.916Zm2.948,19.751a95.514,95.514,0,0,0,14.3-4.717v14.15a116.522,116.522,0,0,1-14.3,4.864Zm14.3-25.2a116.522,116.522,0,0,1-14.3,4.864V10.151c4.864-.884,9.581-1.916,14.3-3.243ZM58.189,12.657V25.775a130.923,130.923,0,0,1-16.95-.147V12.657A162.551,162.551,0,0,0,58.189,12.657ZM18.245,10V21.943a129.2,129.2,0,0,1-14.3-4.569V6.909C8.664,8.088,13.528,9.12,18.245,10Zm-14.3,45.25a123.141,123.141,0,0,0,14.3,4.422V76.184c-4.717,1.032-9.581,2.064-14.3,3.537ZM67.769,90.481h-8.4v-5.9a1.474,1.474,0,1,0-2.948,0v5.9H41.681v-5.9a1.474,1.474,0,1,0-2.948,0v5.9h-8.4V74.857a6.1,6.1,0,0,1,6.043-6.191H61.726a6.1,6.1,0,0,1,6.043,6.191C67.769,78.542,67.769,86.354,67.769,90.481ZM81.035,75.889V59.97a95.514,95.514,0,0,0,14.3-4.717V79.721A128.344,128.344,0,0,0,81.035,75.889Z" transform="translate(-1 -3.461)" fill="#091020"/>
  <path id="Path_685" data-name="Path 685" d="M50.742,29.928A13.111,13.111,0,0,0,39.392,23a12.825,12.825,0,0,0-11.349,6.928A6.565,6.565,0,0,0,23.769,31.7,6.241,6.241,0,0,0,22,36.118a6.148,6.148,0,0,0,5.748,6.191,12.954,12.954,0,0,0,23.583-.147,5.115,5.115,0,0,0,3.39-1.769,6.241,6.241,0,0,0,1.769-4.422A6.592,6.592,0,0,0,50.742,29.928Zm-11.349-3.98a10.053,10.053,0,0,1,7.959,3.98H31.433A10.053,10.053,0,0,1,39.392,25.948Zm0,21.077a10.228,10.228,0,0,1-8.4-4.569h16.8A10.228,10.228,0,0,1,39.392,47.025Zm12.971-8.549a3,3,0,0,1-2.211.884H28.043a3.147,3.147,0,0,1-3.1-3.243,3.347,3.347,0,0,1,.884-2.358,3,3,0,0,1,2.211-.884H50.152a3.147,3.147,0,0,1,3.1,3.243A2.813,2.813,0,0,1,52.363,38.476Z" transform="translate(8.953 5.8)" fill="#091020"/>
</svg>
