<svg xmlns="http://www.w3.org/2000/svg" width="31.134" height="25" viewBox="0 0 31.134 25">
  <path id="fashion" d="M9.33,81.44H21.912s3.114-.062,4.235-3.924,1.619-6.229,3.426-7.412c1.744-1.183,2.741,1.121,2.865,3.613.125,2.554.249,7.225.249,7.225s.187.685.81.685a.868.868,0,0,0,.934-.872c0-.561.249-7.1.561-9.405a22.765,22.765,0,0,1,1.744-5.543s1.619-3.239-1.993-6.54c-3.613-3.363-4.3-2.554-4.3-2.554s-1.37.934-1.246,1.993c.062,1.121-.934,3.986-2.99,8.409-2.055,4.485-3.737,9.405-7.038,8.907-3.363-.5-1.993-2.367-1.993-2.367s.125-1.931-2.3-.5C13,74.215,9.081,77.018,6.963,78.513,5.53,79.572,5.406,81.44,8.146,81.44Z" transform="translate(-5.964 -56.627)" fill="#000000" fill-rule="evenodd"/>
</svg>
