<svg xmlns="http://www.w3.org/2000/svg" width="47.983" height="46" viewBox="0 0 47.983 46">
  <path id="_25a74eeb6bb162ccad28f07a6b08bc0c" data-name="25a74eeb6bb162ccad28f07a6b08bc0c" d="M14.912,44.39l31.7,4.328L35.892,30.871,14.914,44.39Zm34.7-33.408Q48.2,13.092,46.8,15.2q-4.818,7.248-9.632,14.5c-.179.27-.41.484-.159.9q4.651,7.679,9.259,15.383a20.225,20.225,0,0,0,1.608,2.395l1.87-37.351-.137-.039ZM7.287,26.943a.756.756,0,0,0,.675.135c2.974-1.461,5.967-2.89,8.875-4.473a14.026,14.026,0,0,0,2.5-2.19q4.059-3.723,8.109-7.456a2.015,2.015,0,0,0,.46-.492c.971-1.9,1.923-3.8,2.911-5.762-1.178-.443-2.292-.875-3.422-1.268a.837.837,0,0,0-.561.145c-2.615,1.46-5.278,2.843-7.81,4.436a26,26,0,0,0-3.42,2.995q-2.717,2.469-5.394,4.983a9.2,9.2,0,0,0-1.272,1.491C7.715,21.26,6.534,23.06,5.3,24.909c.691.716,1.32,1.4,1.991,2.036Zm10.868-2.424L13.685,43.4l21-13.531-16.53-5.35ZM47.792,11.042,29.944,14.023,36,28.757,47.794,11.042ZM18.4,23.241l16.2,5.259L28.612,13.906,18.4,23.241ZM7.511,30.587,1.842,44.142l10.8-.32L7.511,30.586ZM12.767,40.68l.135-.029c1.3-5.391,2.612-10.746,3.936-16.349l-8.664,4.5c1.477,3.839,3.051,7.888,4.595,11.874ZM45.613,10.168,40.439,8.8c-2.48-.651-4.962-1.3-7.44-1.954-.309-.082-.533-.137-.716.238-.875,1.795-1.779,3.576-2.668,5.364a1.137,1.137,0,0,0-.043.265l16.038-2.431,0-.113Zm-10-4.082L49.664,9.975,47.341,3.357l-11.712,2.6-.021.132ZM13.96,45.425a40.836,40.836,0,0,0-5.294.014c-1.451.026-2.9.08-4.35.125a.578.578,0,0,0-.448.195l35.97,3.326.024-.161L28.332,47.35c-4.789-.655-9.57-1.373-14.372-1.926ZM2.078,40.005Q4.4,34.629,6.713,29.251a.676.676,0,0,0-.161-.892c-.65-.617-1.251-1.284-1.961-2.02L1.763,40.3l.1.05a2.692,2.692,0,0,0,.212-.347ZM32.53,5.14c2.6-.672,5.249-1.2,7.876-1.784.169-.038.337-.094.5-.142l-.026-.128L29.593,4.6a4.24,4.24,0,0,0,2.937.537Z" transform="translate(-1.763 -3.085)" fill="#ffc200"/>
</svg>
