<svg width="30" height="30" viewBox="0 0 30 30" fill="none" xmlns="http://www.w3.org/2000/svg">
<path d="M27.5244 8.10059C28.3252 8.90137 28.9355 9.80957 29.3555 10.8252C29.7754 11.8408 29.9902 12.9199 30 14.0625C30 14.4043 29.9902 14.8145 29.9707 15.293C29.9512 15.7715 29.9121 16.2891 29.8535 16.8457C29.7949 17.4023 29.7021 17.9736 29.5752 18.5596C29.4482 19.1455 29.2871 19.7266 29.0918 20.3027C28.7988 21.1426 28.457 21.8262 28.0664 22.3535C27.6758 22.8809 27.2705 23.2959 26.8506 23.5986C26.4307 23.9014 26.0059 24.1064 25.5762 24.2139C25.1465 24.3213 24.7461 24.375 24.375 24.375C24.0527 24.375 23.7598 24.3213 23.4961 24.2139C23.2324 24.1064 22.9785 23.96 22.7344 23.7744C22.4902 23.5889 22.2656 23.3887 22.0605 23.1738C21.8555 22.959 21.6455 22.7246 21.4307 22.4707C21.2256 22.2363 21.0254 22.0117 20.8301 21.7969C20.6348 21.582 20.4248 21.3916 20.2002 21.2256C19.9756 21.0596 19.751 20.918 19.5264 20.8008C19.3018 20.6836 19.0381 20.625 18.7354 20.625H11.2646C10.9814 20.6348 10.7227 20.6934 10.4883 20.8008C10.2539 20.9082 10.0244 21.0449 9.7998 21.2109C9.5752 21.377 9.37012 21.5723 9.18457 21.7969C8.99902 22.0215 8.79395 22.2461 8.56934 22.4707C8.36426 22.7051 8.15918 22.9346 7.9541 23.1592C7.74902 23.3838 7.52441 23.5889 7.28027 23.7744C7.03613 23.96 6.78223 24.1016 6.51855 24.1992C6.25488 24.2969 5.95703 24.3555 5.625 24.375C5.25391 24.375 4.85352 24.3213 4.42383 24.2139C3.99414 24.1064 3.56934 23.9062 3.14941 23.6133C2.72949 23.3203 2.32422 22.9053 1.93359 22.3682C1.54297 21.8311 1.20117 21.1426 0.908203 20.3027C0.712891 19.7363 0.556641 19.1602 0.439453 18.5742C0.322266 17.9883 0.229492 17.4121 0.161133 16.8457C0.0927734 16.2793 0.0488281 15.7617 0.0292969 15.293C0.00976562 14.8242 0 14.4141 0 14.0625C0 12.9297 0.209961 11.8555 0.629883 10.8398C1.0498 9.82422 1.66504 8.91113 2.47559 8.10059C3.2666 7.2998 4.1748 6.68945 5.2002 6.26953C6.22559 5.84961 7.30469 5.63477 8.4375 5.625H21.5625C22.6953 5.625 23.7695 5.83496 24.7852 6.25488C25.8008 6.6748 26.7139 7.29004 27.5244 8.10059ZM27.3193 19.6875C27.5049 19.1699 27.6514 18.6328 27.7588 18.0762C27.8662 17.5195 27.9443 16.9873 27.9932 16.4795C28.042 15.9717 28.0762 15.5029 28.0957 15.0732C28.1152 14.6436 28.125 14.3066 28.125 14.0625C28.125 13.1543 27.9541 12.3047 27.6123 11.5137C27.2705 10.7227 26.8018 10.0293 26.2061 9.43359C25.6104 8.83789 24.917 8.36914 24.126 8.02734C23.335 7.68555 22.4805 7.50977 21.5625 7.5H8.4375C7.5293 7.5 6.67969 7.6709 5.88867 8.0127C5.09766 8.35449 4.4043 8.82324 3.80859 9.41895C3.21289 10.0146 2.74414 10.708 2.40234 11.499C2.06055 12.29 1.88477 13.1445 1.875 14.0625C1.875 14.3164 1.87988 14.6533 1.88965 15.0732C1.89941 15.4932 1.93359 15.957 1.99219 16.4648C2.05078 16.9727 2.13379 17.5098 2.24121 18.0762C2.34863 18.6426 2.49512 19.1797 2.68066 19.6875C2.9248 20.3906 3.19336 20.9326 3.48633 21.3135C3.7793 21.6943 4.0625 21.9727 4.33594 22.1484C4.60937 22.3242 4.86328 22.4268 5.09766 22.4561C5.33203 22.4854 5.50781 22.5 5.625 22.5C5.83984 22.5 6.07422 22.373 6.32812 22.1191C6.58203 21.8652 6.85547 21.5723 7.14844 21.2402C7.38281 20.9668 7.63184 20.6885 7.89551 20.4053C8.15918 20.1221 8.45703 19.8584 8.78906 19.6143C9.12109 19.3701 9.4873 19.1699 9.8877 19.0137C10.2881 18.8574 10.7324 18.7695 11.2207 18.75H18.7793C19.2676 18.7695 19.7119 18.8574 20.1123 19.0137C20.5127 19.1699 20.874 19.3652 21.1963 19.5996C21.5186 19.834 21.8164 20.0977 22.0898 20.3906C22.3633 20.6836 22.6172 20.9668 22.8516 21.2402C23.1348 21.5625 23.4033 21.8506 23.6572 22.1045C23.9111 22.3584 24.1504 22.4902 24.375 22.5C24.4922 22.5 24.6631 22.4854 24.8877 22.4561C25.1123 22.4268 25.3662 22.3242 25.6494 22.1484C25.9326 21.9727 26.2207 21.6943 26.5137 21.3135C26.8066 20.9326 27.0752 20.3906 27.3193 19.6875ZM7.5 13.125H9.375V15H7.5V16.875H5.625V15H3.75V13.125H5.625V11.25H7.5V13.125ZM24.375 15C24.6387 15 24.8828 15.0488 25.1074 15.1465C25.332 15.2441 25.5273 15.376 25.6934 15.542C25.8594 15.708 25.9961 15.9082 26.1035 16.1426C26.2109 16.377 26.2598 16.6211 26.25 16.875C26.25 17.1387 26.2012 17.3828 26.1035 17.6074C26.0059 17.832 25.874 18.0273 25.708 18.1934C25.542 18.3594 25.3418 18.4961 25.1074 18.6035C24.873 18.7109 24.6289 18.7598 24.375 18.75C24.1113 18.75 23.8672 18.7012 23.6426 18.6035C23.418 18.5059 23.2227 18.374 23.0566 18.208C22.8906 18.042 22.7539 17.8418 22.6465 17.6074C22.5391 17.373 22.4902 17.1289 22.5 16.875C22.5 16.6113 22.5488 16.3672 22.6465 16.1426C22.7441 15.918 22.876 15.7227 23.042 15.5566C23.208 15.3906 23.4082 15.2539 23.6426 15.1465C23.877 15.0391 24.1211 14.9902 24.375 15ZM20.625 11.25C20.8887 11.25 21.1328 11.2988 21.3574 11.3965C21.582 11.4941 21.7773 11.626 21.9434 11.792C22.1094 11.958 22.2461 12.1582 22.3535 12.3926C22.4609 12.627 22.5098 12.8711 22.5 13.125C22.5 13.3887 22.4512 13.6328 22.3535 13.8574C22.2559 14.082 22.124 14.2773 21.958 14.4434C21.792 14.6094 21.5918 14.7461 21.3574 14.8535C21.123 14.9609 20.8789 15.0098 20.625 15C20.3613 15 20.1172 14.9512 19.8926 14.8535C19.668 14.7559 19.4727 14.624 19.3066 14.458C19.1406 14.292 19.0039 14.0918 18.8965 13.8574C18.7891 13.623 18.7402 13.3789 18.75 13.125C18.75 12.8613 18.7988 12.6172 18.8965 12.3926C18.9941 12.168 19.126 11.9727 19.292 11.8066C19.458 11.6406 19.6582 11.5039 19.8926 11.3965C20.127 11.2891 20.3711 11.2402 20.625 11.25Z" fill="#091020"/>
</svg>
