<svg xmlns="http://www.w3.org/2000/svg" width="42.829" height="42.821" viewBox="0 0 42.829 42.821">
  <g id="gnosis" transform="translate(-14.634 -14.59)">
    <path id="Path_787" data-name="Path 787" d="M41.828,16.848a19.008,19.008,0,0,1,13.9,5.981L41.9,36.654,27.99,22.755a19.026,19.026,0,0,1,13.838-5.907m0-2.258a21.381,21.381,0,0,0-16.9,8.286L41.9,39.852l16.9-16.9a21.37,21.37,0,0,0-16.971-8.36Zm-8.91,24.3a5.448,5.448,0,0,0,3.432-1.213l-7.7-7.7a5.478,5.478,0,0,0,4.269,8.915Zm17.881,0a5.474,5.474,0,0,0,4.334-8.832l-7.684,7.684a5.439,5.439,0,0,0,3.35,1.148Z" transform="translate(-5.83 0)" fill="#fff"/>
    <path id="Path_788" data-name="Path 788" d="M54.383,38.421l-3.467,3.467a7.736,7.736,0,0,1-10.908,10.9l-3.9,3.9-3.978-3.965a7.736,7.736,0,0,1-10.913-10.9L17.748,38.33a21.414,21.414,0,1,0,36.656.091Z" transform="translate(0 -13.451)" fill="#fff"/>
  </g>
</svg>
