<svg xmlns="http://www.w3.org/2000/svg" xmlns:xlink="http://www.w3.org/1999/xlink" width="50" height="50" viewBox="0 0 50 50">
  <defs>
    <clipPath id="clip-path">
      <rect id="Rectangle_3673" data-name="Rectangle 3673" width="50" height="50" fill="#fff"/>
    </clipPath>
  </defs>
  <g id="healthcare-icon" clip-path="url(#clip-path)">
    <path id="Path_727" data-name="Path 727" d="M17.857,0a1.786,1.786,0,0,0-1.786,1.786V16.071H1.786A1.786,1.786,0,0,0,0,17.857V32.143a1.786,1.786,0,0,0,1.786,1.786H16.071V48.214A1.786,1.786,0,0,0,17.857,50H32.143a1.786,1.786,0,0,0,1.786-1.786V33.929H48.214A1.786,1.786,0,0,0,50,32.143V17.857a1.786,1.786,0,0,0-1.786-1.786H33.929V1.786A1.786,1.786,0,0,0,32.143,0Z" fill="#ffc200" fill-rule="evenodd"/>
  </g>
</svg>
