<svg id="ICO" xmlns="http://www.w3.org/2000/svg" width="48.217" height="48.217" viewBox="0 0 48.217 48.217">
  <path id="Path_705" data-name="Path 705" d="M15.52,8.632V15.52H8.632V8.632ZM5.188,5.188V18.964H18.964V5.188ZM32.74,13.8v6.888H25.852V13.8ZM22.408,10.354V24.13H36.184V10.354ZM15.52,29.3v6.888H8.632V29.3ZM5.188,25.852V39.629H18.964V25.852Z" transform="translate(-5.188 -5.188)" fill="#091020"/>
  <path id="Path_706" data-name="Path 706" d="M46.6,25.938V36.27H36.27V46.6H25.938V60.379H60.379V25.938ZM39.714,39.714H46.6V46.6H39.714ZM36.27,56.934H29.382V50.046H36.27Zm10.332,0H39.714V50.046H46.6Zm10.332,0H50.046V50.046h6.888Zm0-10.332H50.046V39.714h6.888ZM50.046,36.27V29.382h6.888V36.27Z" transform="translate(-12.161 -12.161)" fill="#091020"/>
</svg>
