<svg id="Icon-Arrow-Right" xmlns="http://www.w3.org/2000/svg" width="45.932" height="45.932" viewBox="0 0 45.932 45.932">
  <path id="Fill-25" d="M3.066-273.968A22.965,22.965,0,0,1-19.9-296.934,22.965,22.965,0,0,1,3.066-319.9a22.965,22.965,0,0,1,22.966,22.966A22.965,22.965,0,0,1,3.066-273.968Zm0-43.433A20.546,20.546,0,0,0-17.4-296.934,20.546,20.546,0,0,0,3.066-276.467a20.546,20.546,0,0,0,20.468-20.467A20.546,20.546,0,0,0,3.066-317.4Z" transform="translate(19.9 319.9)" fill="#fff"/>
  <path id="Fill-26" d="M3.43-283.371,1.7-285.2l11.243-11.339L1.7-307.874,3.43-309.7l13.165,13.165L3.43-283.371" transform="translate(19.056 319.501)" fill="#fff"/>
  <path id="Fill-27" d="M14.362-294.709H-8.7V-297.4H14.362Z" transform="translate(19.462 319.021)" fill="#fff"/>
</svg>
