<svg xmlns="http://www.w3.org/2000/svg" width="45.932" height="45.932" viewBox="0 0 45.932 45.932">
  <g id="Icon-Arrow-Left" transform="translate(0)">
    <path id="Fill-25" d="M3.066-273.968a22.965,22.965,0,0,0,22.966-22.966A22.965,22.965,0,0,0,3.066-319.9,22.965,22.965,0,0,0-19.9-296.934,22.965,22.965,0,0,0,3.066-273.968Zm0-43.433a20.546,20.546,0,0,1,20.467,20.467A20.546,20.546,0,0,1,3.066-276.467,20.546,20.546,0,0,1-17.4-296.934,20.546,20.546,0,0,1,3.066-317.4Z" transform="translate(19.9 319.9)" fill="#fff"/>
    <path id="Fill-26" d="M14.865-283.371l1.73-1.826L5.351-296.536l11.243-11.339-1.73-1.826L1.7-296.536l13.165,13.165" transform="translate(8.582 319.501)" fill="#fff"/>
    <path id="Fill-27" d="M-8.7-294.709H14.362V-297.4H-8.7Z" transform="translate(20.807 319.021)" fill="#fff"/>
  </g>
</svg>
