<svg xmlns="http://www.w3.org/2000/svg" width="20.432" height="19.525" viewBox="0 0 20.432 19.525">
  <path id="b5783c601e16032733df8073caacab72" d="M0,7.268A2.124,2.124,0,0,1,.69,5.641,2.532,2.532,0,0,1,2.485,5a2.457,2.457,0,0,1,1.755.631,2.225,2.225,0,0,1,.69,1.7A2.077,2.077,0,0,1,4.26,8.905a2.537,2.537,0,0,1-1.814.651h-.02A2.414,2.414,0,0,1,.671,8.905,2.186,2.186,0,0,1,0,7.268ZM.256,24.525V11.351H4.635V24.525Zm6.8,0h4.378V17.169a2.568,2.568,0,0,1,1-2.2,2.143,2.143,0,0,1,1.41-.463q2.209,0,2.209,2.978v7.041h4.378V16.972a6.348,6.348,0,0,0-1.381-4.428A4.709,4.709,0,0,0,15.4,11.035a4.476,4.476,0,0,0-3.964,2.189v.039h-.02l.02-.039V11.351H7.061q.039.631.039,3.925T7.061,24.525Z" transform="translate(0 -5)" fill="#FFC200"/>
</svg>
