<svg xmlns="http://www.w3.org/2000/svg" width="33.922" height="45.195" viewBox="0 0 33.922 45.195">
  <g id="_0ff9e8371daed624dc0eaa3c47c6f37a" data-name="0ff9e8371daed624dc0eaa3c47c6f37a" transform="translate(-3 -0.001)">
    <path id="Path_688" data-name="Path 688" d="M14.242,26.177a1.418,1.418,0,0,1-.786-.239c-.211-.143-5.194-3.543-5.194-7.932,0-4.63,3.324-7.116,6-9.114,2.1-1.572,3.92-2.93,3.92-4.9a1.972,1.972,0,0,0-.569-1.453A1.414,1.414,0,1,1,19.317.286a4.707,4.707,0,0,1,1.689,3.7c0,3.385-2.569,5.3-5.052,7.163-2.5,1.869-4.862,3.637-4.862,6.85,0,2.391,2.849,4.843,3.946,5.588a1.415,1.415,0,0,1,.381,1.962A1.429,1.429,0,0,1,14.242,26.177Z" transform="translate(4.654 0)" fill="#ffc200"/>
    <path id="Path_689" data-name="Path 689" d="M15.248,21.977a1.414,1.414,0,0,1-1.413-1.413,2.919,2.919,0,0,0-1-2.41,5.574,5.574,0,0,1-1.705-4.208c0-4.306,7.372-8.559,8.85-9.368a1.413,1.413,0,1,1,1.359,2.478c-2.978,1.632-7.382,4.951-7.382,6.89a2.813,2.813,0,0,0,.972,2.31,5.688,5.688,0,0,1,1.732,4.31A1.414,1.414,0,0,1,15.248,21.977Z" transform="translate(7.191 3.893)" fill="#ffc200"/>
    <path id="Path_690" data-name="Path 690" d="M12.552,19.719c-3.209,0-5.968-.386-7.335-1.227a2.347,2.347,0,0,1-1.261-2.026c0-2.423,3.942-3.63,7.252-4.216a1.413,1.413,0,0,1,.494,2.783,18.215,18.215,0,0,0-4.429,1.33c3.027,1.006,14.006.661,19.233-1.986A1.414,1.414,0,0,1,27.783,16.9C24.259,18.68,17.8,19.719,12.552,19.719Zm1.83,5.247c-4.958,0-5.827-2.26-5.963-2.785a1.414,1.414,0,0,1,2.695-.844c.111.138,1.206,1.281,6.01.58,4.887-.714,6.149-1.564,6.358-1.73a1.414,1.414,0,0,1,2.476,1.329c-.558,1.387-3.392,2.463-8.426,3.2A21.67,21.67,0,0,1,14.382,24.965Zm-3.224-3.488v0S11.158,21.479,11.158,21.477Zm0,0v0Zm0,0Zm12.182-1.014v0Zm0,0Zm0,0v0Zm0,0Z" transform="translate(0.846 10.815)" fill="#ffc200"/>
    <path id="Path_691" data-name="Path 691" d="M11.439,24.74a25.591,25.591,0,0,1-7.033-.629A1.908,1.908,0,0,1,3,22.324c0-2.081,2.891-3.256,4.613-3.771a1.413,1.413,0,0,1,.812,2.706,11.153,11.153,0,0,0-1.457.562c5.529.626,22.013-.731,23.905-2.723a1.414,1.414,0,1,1,2.05,1.949C30.527,23.566,19.2,24.74,11.439,24.74Z" transform="translate(0 16.357)" fill="#ffc200"/>
    <path id="Path_692" data-name="Path 692" d="M12.65,34.533a27.707,27.707,0,0,1-7.391-.692,1.413,1.413,0,1,1,.954-2.661c3.066,1.1,20.326.85,27.388-3.479a1.414,1.414,0,1,1,1.477,2.412C29.706,33.4,19.715,34.533,12.65,34.533ZM26.623,23.876a1.413,1.413,0,0,1-.562-2.71c2.663-1.153,6.413-3.628,6.413-5.512,0-.454-.128-.545-.177-.579-.6-.422-2.471-.087-3.532.3a1.413,1.413,0,0,1-.978-2.652c.663-.245,4.084-1.4,6.125.028a3.327,3.327,0,0,1,1.389,2.9c0,4.472-7.287,7.749-8.119,8.107A1.4,1.4,0,0,1,26.623,23.876Z" transform="translate(1.169 10.663)" fill="#ffc200"/>
  </g>
</svg>
