<svg xmlns="http://www.w3.org/2000/svg" width="50.418" height="35.306" viewBox="0 0 50.418 35.306">
  <path id="logistics-icon" d="M51.859,23.752,48.918,16.4A3.346,3.346,0,0,0,45.8,14.3H38.536V12.618a1.68,1.68,0,0,0-1.681-1.681H4.924A3.361,3.361,0,0,0,1.563,14.3V37.827a3.361,3.361,0,0,0,3.361,3.361H8.5a6.722,6.722,0,0,0,13.025,0h10.5a6.723,6.723,0,0,0,13.025,0H48.62a3.361,3.361,0,0,0,3.361-3.361V24.382A1.667,1.667,0,0,0,51.859,23.752ZM38.536,17.66H45.8L47.817,22.7H38.536ZM4.924,14.3H35.175V27.744H4.924Zm10.084,28.57a3.361,3.361,0,1,1,2.377-.984A3.361,3.361,0,0,1,15.007,42.869Zm17.016-5.042H21.52a6.722,6.722,0,0,0-13.025,0H4.924V31.1H35.175v2.586a6.746,6.746,0,0,0-3.151,4.136Zm6.512,5.042a3.361,3.361,0,1,1,2.377-.984A3.361,3.361,0,0,1,38.536,42.869ZM48.62,37.827H45.048a6.735,6.735,0,0,0-6.512-5.042V26.063H48.62Z" transform="translate(-1.563 -10.938)" fill="#ffc200"/>
</svg>
