<svg xmlns="http://www.w3.org/2000/svg" width="56.447" height="56.5" viewBox="0 0 56.447 56.5">
  <g id="Group_878" data-name="Group 878" transform="translate(-147.567 -41.5)">
    <g id="Group_876" data-name="Group 876" transform="translate(150.584 62.457)">
      <path id="Ellipse_295" data-name="Ellipse 295" d="M6.876,3.2a3.678,3.678,0,1,0,3.678,3.678A3.682,3.682,0,0,0,6.876,3.2m0-3.2A6.876,6.876,0,1,1,0,6.876,6.876,6.876,0,0,1,6.876,0Z" transform="translate(18.551 0)" fill="#fff"/>
      <path id="Ellipse_296" data-name="Ellipse 296" d="M6.876,3.838A3.038,3.038,0,1,0,9.915,6.876,3.042,3.042,0,0,0,6.876,3.838M6.876,0A6.876,6.876,0,1,1,0,6.876,6.876,6.876,0,0,1,6.876,0Z" transform="translate(0 18.87)" fill="#fff"/>
      <path id="Path_663" data-name="Path 663" d="M-13162.73-22595a32,32,0,0,1-15.568-4.363l1.871-3.352c11.061,6.17,19.516,3.9,24.66.912a27.188,27.188,0,0,0,12.9-19.945h-17.715v-3.838h21.678l-.018,1.938c-.092,9.768-6.227,20.115-14.918,25.166A25.419,25.419,0,0,1-13162.73-22595Z" transform="translate(13188.335 22630.543)" fill="#fff"/>
    </g>
    <g id="Group_877" data-name="Group 877" transform="translate(147.567 41.5)">
      <path id="Ellipse_294" data-name="Ellipse 294" d="M6.876,3.838A3.038,3.038,0,1,0,9.915,6.876,3.042,3.042,0,0,0,6.876,3.838M6.876,0A6.876,6.876,0,1,1,0,6.876,6.876,6.876,0,0,1,6.876,0Z" transform="translate(40.758 3.047)" fill="#ffc200"/>
      <path id="Path_662" data-name="Path 662" d="M-13169.291-22594.937h-12.142l.019-1.937c.093-9.77,6.227-20.113,14.918-25.164,8.491-4.934,18.6-4.621,28.458.879l-1.869,3.355c-11.061-6.172-19.515-3.906-24.66-.918a27.186,27.186,0,0,0-12.9,19.945h8.177Z" transform="translate(13181.433 22625.525)" fill="#ffc200"/>
      <path id="Subtraction_3" data-name="Subtraction 3" d="M17.751,35.5A17.746,17.746,0,0,1,5.2,5.2,17.752,17.752,0,0,1,24.743,1.435a17.945,17.945,0,0,1,5.733,3.942c.069.07.136.14.2.205L27.915,8.25c-.065-.069-.126-.132-.177-.185A13.912,13.912,0,1,0,27.48,27.7l2.9,2.523L30.3,30.3a17.435,17.435,0,0,1-5.611,3.8A17.672,17.672,0,0,1,17.751,35.5Z" transform="translate(10.694 10.402)" fill="#ffc200"/>
    </g>
  </g>
</svg>
