<svg xmlns="http://www.w3.org/2000/svg" width="50.901" height="30.541" viewBox="0 0 50.901 30.541">
  <g id="metaverse" transform="translate(0)">
    <path id="Path_707" data-name="Path 707" d="M55.58,33.18A7.666,7.666,0,0,0,50.6,28.418,7.648,7.648,0,0,0,43.3,23H22.937a7.648,7.648,0,0,0-7.307,5.418,7.663,7.663,0,0,0-4.976,4.762H7.667V43.36h2.988a7.663,7.663,0,0,0,4.976,4.762,7.65,7.65,0,0,0,7.307,5.418h4.085l4.813-8.335a1.481,1.481,0,0,1,2.565,0l4.815,8.335H43.3A7.65,7.65,0,0,0,50.6,48.122,7.666,7.666,0,0,0,55.58,43.36h2.988V33.18Zm-4.647,7.635a2.545,2.545,0,0,1-2.545,2.545H45.843v2.545A2.545,2.545,0,0,1,43.3,48.45H42.152l-3.344-5.79a6.571,6.571,0,0,0-11.381,0l-3.344,5.79H22.937a2.547,2.547,0,0,1-2.545-2.545V43.36H17.847A2.548,2.548,0,0,1,15.3,40.815v-5.09a2.548,2.548,0,0,1,2.545-2.545h2.545V30.635a2.547,2.547,0,0,1,2.545-2.545H43.3a2.548,2.548,0,0,1,2.545,2.545V33.18h2.545a2.548,2.548,0,0,1,2.545,2.545Z" transform="translate(-7.667 -23)" fill="#091020"/>
    <path id="Path_708" data-name="Path 708" d="M49.77,40.878H34.5V38.333H49.77Z" transform="translate(-16.685 -28.153)" fill="#091020"/>
  </g>
</svg>
