<svg width="30" height="30" viewBox="0 0 30 30" fill="none" xmlns="http://www.w3.org/2000/svg">
<path fill-rule="evenodd" clip-rule="evenodd" d="M8 5C8 4.73478 8.10536 4.48043 8.29289 4.29289C8.48043 4.10536 8.73478 4 9 4H21C21.2652 4 21.5196 4.10536 21.7071 4.29289C21.8946 4.48043 22 4.73478 22 5V25C22 25.2652 21.8946 25.5196 21.7071 25.7071C21.5196 25.8946 21.2652 26 21 26H9C8.73478 26 8.48043 25.8946 8.29289 25.7071C8.10536 25.5196 8 25.2652 8 25V5ZM9 2C8.20435 2 7.44129 2.31607 6.87868 2.87868C6.31607 3.44129 6 4.20435 6 5V25C6 25.7956 6.31607 26.5587 6.87868 27.1213C7.44129 27.6839 8.20435 28 9 28H21C21.7956 28 22.5587 27.6839 23.1213 27.1213C23.6839 26.5587 24 25.7956 24 25V5C24 4.20435 23.6839 3.44129 23.1213 2.87868C22.5587 2.31607 21.7956 2 21 2H9ZM12 23.3C11.8143 23.3 11.6363 23.3738 11.505 23.505C11.3737 23.6363 11.3 23.8143 11.3 24C11.3 24.1857 11.3737 24.3637 11.505 24.495C11.6363 24.6262 11.8143 24.7 12 24.7H18C18.1857 24.7 18.3637 24.6262 18.495 24.495C18.6262 24.3637 18.7 24.1857 18.7 24C18.7 23.8143 18.6262 23.6363 18.495 23.505C18.3637 23.3738 18.1857 23.3 18 23.3H12Z" fill="#091020"/>
</svg>
