<svg xmlns="http://www.w3.org/2000/svg" width="24" height="30" viewBox="0 0 24 30">
  <g id="Layer_2" transform="translate(-4 -2)">
    <path id="Path_679" data-name="Path 679" d="M17.25,11.624l-3-1.733a1.507,1.507,0,0,0-1.5,0l-3,1.733a1.5,1.5,0,0,0-.75,1.3v3.463a1.5,1.5,0,0,0,.75,1.3l3,1.733a1.5,1.5,0,0,0,1.5,0l3-1.733a1.5,1.5,0,0,0,.75-1.3V12.923A1.5,1.5,0,0,0,17.25,11.624ZM15,15.52l-1.5.866L12,15.52V13.789l1.5-.866,1.5.866Z" transform="translate(2.5 3.845)" fill="#091020"/>
    <path id="Path_680" data-name="Path 680" d="M22,2H10A6.006,6.006,0,0,0,4,8V26a6.006,6.006,0,0,0,6,6H22a6.006,6.006,0,0,0,6-6V8A6.006,6.006,0,0,0,22,2Zm3,24a3,3,0,0,1-3,3H10a3,3,0,0,1-3-3V8a3,3,0,0,1,3-3H22a3,3,0,0,1,3,3Z" fill="#091020"/>
    <path id="Path_681" data-name="Path 681" d="M11.5,8h3a1.5,1.5,0,0,0,0-3h-3a1.5,1.5,0,0,0,0,3Z" transform="translate(3 1.5)" fill="#091020"/>
  </g>
</svg>
