<svg xmlns="http://www.w3.org/2000/svg" width="38" height="38" viewBox="0 0 38 38">
  <g id="music" transform="translate(0 -0.103)">
    <g id="music-2" data-name="music" transform="translate(0 0.103)">
      <rect id="Rectangle_3678" data-name="Rectangle 3678" width="38" height="38" opacity="0"/>
      <path id="Path_791" data-name="Path 791" d="M28.381,22.046V4.589a1.606,1.606,0,0,0-1.936-1.555L12.161,6.207a1.587,1.587,0,0,0-1.238,1.555V21A5.539,5.539,0,1,0,14.1,26.045a6.92,6.92,0,0,0,0-.825V9.032l11.109-2.46V17.825a5.539,5.539,0,1,0,3.174,5.031,7.254,7.254,0,0,0,0-.809Z" transform="translate(1.773 1.67)"/>
    </g>
  </g>
</svg>
