<svg xmlns="http://www.w3.org/2000/svg" width="35.556" height="32" viewBox="0 0 35.556 32">
  <path id="nftBacked" d="M9.333,36.223a.889.889,0,1,1-.889.889A.892.892,0,0,1,9.333,36.223Zm7.111,0H12A.889.889,0,1,0,12,38h4.444a.889.889,0,1,0,0-1.778ZM17.876,12.25a12.58,12.58,0,0,0-3.556,2.6,16.393,16.393,0,0,0-2.133,2.711H7.556a.889.889,0,0,0,0,1.778h3.627a17.625,17.625,0,0,0-1.8,6.222H7.556a.889.889,0,0,0,0,1.778h1.8c.347,6.427,5.724,8.889,12.427,8.889a20.477,20.477,0,0,0,5.324-.64,7.111,7.111,0,1,0,6.844-11.644,18.18,18.18,0,0,0-5.476-9.813,12.153,12.153,0,0,0-2.8-1.876l1.378-3.716a.884.884,0,0,0-.24-.969,7.635,7.635,0,0,0-5.04-1.564,7.635,7.635,0,0,0-5.04,1.564.884.884,0,0,0-.24.969l1.378,3.716ZM32.444,25.557a5.333,5.333,0,1,1-5.333,5.333A5.338,5.338,0,0,1,32.444,25.557ZM32.1,23.788a16.342,16.342,0,0,0-4.8-8.329,8.418,8.418,0,0,0-5.52-2.347,8.824,8.824,0,0,0-6.187,2.978,16.091,16.091,0,0,0-4.48,10.578c0,5.831,4.836,7.778,10.667,7.778a19.754,19.754,0,0,0,4.276-.427A7.12,7.12,0,0,1,32.1,23.788ZM8.444,31.779H4.889a.889.889,0,0,0,0,1.778H8.444a.889.889,0,0,0,0-1.778Zm23.111-3.556V30.89a.892.892,0,0,0,.889.889h2.667a.889.889,0,1,0,0-1.778H33.333V28.223a.889.889,0,1,0-1.778,0ZM20.889,21.157a2.222,2.222,0,0,0,.444,4.4h.889a.417.417,0,0,1,.311.133.453.453,0,0,1,.133.311.417.417,0,0,1-.133.311.453.453,0,0,1-.311.133H20a.889.889,0,0,0,0,1.778h.889v.889a.889.889,0,0,0,1.778,0v-.933a2.222,2.222,0,0,0-.444-4.4h-.889a.418.418,0,0,1-.311-.133.453.453,0,0,1-.133-.311.417.417,0,0,1,.133-.311.453.453,0,0,1,.311-.133h2.222a.889.889,0,0,0,0-1.778h-.889v-.889a.889.889,0,0,0-1.778,0Zm-16,4.4A.889.889,0,1,1,4,26.446.892.892,0,0,1,4.889,25.557Zm19.12-13.929c.3-.809,1.138-3.067,1.138-3.067a6.884,6.884,0,0,0-3.369-.791,6.884,6.884,0,0,0-3.369.791l1.138,3.067a8.59,8.59,0,0,1,2.231-.293A8.933,8.933,0,0,1,24.009,11.628ZM7.556,8.668a.889.889,0,1,1-.889.889A.892.892,0,0,1,7.556,8.668Zm7.111,0H10.222a.889.889,0,0,0,0,1.778h4.444a.889.889,0,1,0,0-1.778Z" transform="translate(-4 -6.01)" fill-rule="evenodd"/>
</svg>
