<svg xmlns="http://www.w3.org/2000/svg" width="28.205" height="27.58" viewBox="0 0 28.205 27.58">
  <g id="nftMining" transform="translate(-2 -2.42)">
    <path id="Path_796" data-name="Path 796" d="M15.3,10.712,6.543,25.949a2.43,2.43,0,0,1-3.365.867l-.006,0a2.43,2.43,0,0,1-.791-3.385L11.846,8.571A26.928,26.928,0,0,1,15.3,10.712Zm12.458,1.314-.642-.766a.5.5,0,0,1,.062-.7l1.559-1.308a.5.5,0,0,1,.7.062l.643.766a.5.5,0,0,1-.062.7l-1.559,1.308A.5.5,0,0,1,27.762,12.026ZM25.5,10.335h-1a.5.5,0,0,1-.5-.5V7.481a.5.5,0,0,1,.5-.5h1a.5.5,0,0,1,.5.5V9.835A.5.5,0,0,1,25.5,10.335ZM25,23.5a.5.5,0,0,1-.5.5H22V23h2.5A.5.5,0,0,1,25,23.5ZM23.5,21H22V20h1.5a.5.5,0,0,1,0,1Z"/>
    <path id="Path_797" data-name="Path 797" d="M29.7,14H26.071l-.134.032-1.873.937a.314.314,0,0,1-.135.031h-.924a13.155,13.155,0,0,0-4.857-9.234l.532-.925a1,1,0,0,0-.343-1.35l-1.5-.923a1,1,0,0,0-1.368.314l-.547.859a13.219,13.219,0,0,0-11.8.173.3.3,0,0,0,.125.568C9.447,4.635,17.95,9.426,21.787,15H19.161a.3.3,0,0,0-.25.134L17.033,17.95a.3.3,0,0,1-.083.083l-2.783,1.855a.3.3,0,0,0-.128.308l.929,4.646a.3.3,0,0,1-.082.271l-4.374,4.374a.3.3,0,0,0,.212.513H29.5a.5.5,0,0,0,.5-.5V14.3A.3.3,0,0,0,29.7,14ZM24.35,26H24v1.5H23V26H22v1.5H21V26h-.5a.5.5,0,0,1-.5-.5v-7a.5.5,0,0,1,.5-.5H21V16.5h1V18h1V16.5h1v1.551a2.481,2.481,0,0,1,1.829,3.339,2.494,2.494,0,0,1,1.159,2.364A2.606,2.606,0,0,1,24.35,26Z"/>
  </g>
</svg>
