<svg xmlns="http://www.w3.org/2000/svg" width="26.098" height="32.446" viewBox="0 0 26.098 32.446">
  <g id="nftPassport" transform="translate(-11 -2)">
    <ellipse id="Ellipse_322" data-name="Ellipse 322" cx="4" cy="4.5" rx="4" ry="4.5" transform="translate(18 8)"/>
    <path id="Path_794" data-name="Path 794" d="M30.75,2H13.116A2.116,2.116,0,0,0,11,4.116V28.8a2.116,2.116,0,0,0,2.116,2.116H30.75A2.116,2.116,0,0,0,32.866,28.8V4.116A2.116,2.116,0,0,0,30.75,2ZM21.933,6.937A5.643,5.643,0,1,1,16.29,12.58a5.643,5.643,0,0,1,5.643-5.643Zm4.585,14.107a.705.705,0,0,1-.705.705H18.053a.705.705,0,0,1,0-1.411h7.759A.705.705,0,0,1,26.518,21.044Zm1.763,4.232h-12.7a.705.705,0,1,1,0-1.411h12.7a.705.705,0,1,1,0,1.411Z"/>
    <path id="Path_795" data-name="Path 795" d="M44.986,40.919H27.705a.705.705,0,0,1,0-1.411H44.986a1.058,1.058,0,0,0,1.058-1.058V12.705a.705.705,0,1,1,1.411,0V38.45A2.469,2.469,0,0,1,44.986,40.919Z" transform="translate(-10.357 -6.473)"/>
  </g>
</svg>
