<svg xmlns="http://www.w3.org/2000/svg" width="27.344" height="30.625" viewBox="0 0 27.344 30.625">
  <g id="passion-icon" transform="translate(-5.469 -2.188)">
    <path id="Path_741" data-name="Path 741" d="M24.063,28.438a2.188,2.188,0,1,0-2.187-2.187A2.188,2.188,0,0,0,24.063,28.438Z" fill="#ffc200"/>
    <path id="Path_742" data-name="Path 742" d="M32.569,25.68a9.45,9.45,0,0,0-8.506-5.993,9.45,9.45,0,0,0-8.506,5.993l-.244.57.244.571a9.45,9.45,0,0,0,8.506,5.992,9.45,9.45,0,0,0,8.506-5.992l.244-.571Zm-8.506,4.945a4.38,4.38,0,1,1,3.092-1.283A4.375,4.375,0,0,1,24.063,30.625Z" fill="#ffc200"/>
    <path id="Path_743" data-name="Path 743" d="M13.125,30.625H7.656V7.656h3.281v3.281H24.063V7.656h3.281V17.5h2.187V7.656a2.187,2.187,0,0,0-2.187-2.187H24.063V4.375a2.187,2.187,0,0,0-2.187-2.187h-8.75a2.187,2.187,0,0,0-2.187,2.188V5.469H7.656A2.187,2.187,0,0,0,5.469,7.656V30.625a2.187,2.187,0,0,0,2.188,2.188h5.469Zm0-26.25h8.75V8.75h-8.75Z" fill="#ffc200"/>
  </g>
</svg>
