<svg xmlns="http://www.w3.org/2000/svg" width="50" height="50" viewBox="0 0 50 50">
  <path id="polygon" d="M37.125,37.731,48.983,30a2.193,2.193,0,0,0,.743-.841A2.537,2.537,0,0,0,50,28.011V12.543a2.538,2.538,0,0,0-.273-1.148,2.192,2.192,0,0,0-.744-.842l-11.86-7.73a1.841,1.841,0,0,0-2.035,0l-11.858,7.73a2.192,2.192,0,0,0-.745.841,2.539,2.539,0,0,0-.274,1.149V40.177L13.9,45.6l-8.317-5.42V29.333l8.317-5.42,5.485,3.576V20.215L14.913,17.3a1.841,1.841,0,0,0-2.035,0L1.017,25.035a2.194,2.194,0,0,0-.744.842A2.538,2.538,0,0,0,0,27.025V42.487a2.538,2.538,0,0,0,.273,1.15,2.193,2.193,0,0,0,.744.843l11.86,7.73a1.843,1.843,0,0,0,2.035,0l11.858-7.73a2.193,2.193,0,0,0,.745-.841,2.537,2.537,0,0,0,.274-1.149V14.856l.15-.1,8.167-5.324,8.313,5.422V25.7l-8.313,5.42-5.479-3.569v7.274l4.458,2.908a1.843,1.843,0,0,0,2.038,0Z" transform="translate(0 -2.517)" fill="#8247e5"/>
</svg>
