<svg xmlns="http://www.w3.org/2000/svg" width="28.001" height="28.001" viewBox="0 0 28.001 28.001">
  <g id="carbon_virtual-private-cloud-alt" transform="translate(-1.999 -2)">
    <path id="Path_709" data-name="Path 709" d="M23.414,22,10,8.586V2H2v8H8.586L22,23.414V30h8V22ZM8,8H4V4H8ZM28,28H24V24h4Z" fill="#091020"/>
    <path id="Path_710" data-name="Path 710" d="M30,6a3.992,3.992,0,0,0-7.858-1H13V7h9.142A3.995,3.995,0,0,0,25,9.858V19h2V9.858A4,4,0,0,0,30,6ZM26,8a2,2,0,1,1,1.414-.586A2,2,0,0,1,26,8ZM19,25H9.858A3.995,3.995,0,0,0,7,22.142V13H5v9.142A3.992,3.992,0,1,0,9.858,27H19ZM6,28a2,2,0,1,1,1.414-.586A2,2,0,0,1,6,28Z" fill="#091020"/>
  </g>
</svg>
