<svg xmlns="http://www.w3.org/2000/svg" width="40.922" height="46" viewBox="0 0 40.922 46">
  <path id="_7fd8a396bcd3be003b79e44d9bd9d15a" data-name="7fd8a396bcd3be003b79e44d9bd9d15a" d="M21.5,21.407a4.108,4.108,0,1,0,5.611,1.5A4.108,4.108,0,0,0,21.5,21.407Zm18.411,4.457q-.4-.462-.854-.927.314-.33.607-.659c3.693-4.15,5.252-8.312,3.808-10.814-1.385-2.4-5.5-3.114-10.663-2.111q-.762.149-1.516.336-.144-.5-.307-.989C29.239,5.428,26.412,2,23.524,2c-2.77,0-5.448,3.213-7.156,8.182q-.252.735-.466,1.483-.5-.124-1.012-.228c-5.442-1.117-9.825-.381-11.266,2.122-1.382,2.4.063,6.325,3.516,10.286q.514.588,1.056,1.149c-.426.439-.83.878-1.207,1.315C3.62,30.214,2.257,34.074,3.637,36.464c1.425,2.469,5.747,3.276,11.006,2.241q.639-.127,1.272-.285.232.809.508,1.6C18.124,44.892,20.786,48,23.546,48c2.851,0,5.708-3.342,7.44-8.415.137-.4.266-.817.389-1.246q.817.2,1.644.361c5.068.959,9.091.2,10.468-2.187,1.423-2.471-.044-6.615-3.575-10.648ZM5.326,14.539C6.214,13,9.8,12.4,14.494,13.362q.45.093.916.207a47.065,47.065,0,0,0-.969,6.159,48.038,48.038,0,0,0-4.839,3.9q-.5-.522-.983-1.069h0C5.662,19.159,4.493,15.986,5.326,14.539Zm8.939,13.175C13.091,26.825,12,25.914,11.009,25c.99-.91,2.082-1.818,3.254-2.705Q14.2,23.647,14.2,25t.065,2.709Zm0,9.063a16.644,16.644,0,0,1-6.071.214,4.062,4.062,0,0,1-2.854-1.51c-.837-1.451.257-4.549,3.138-7.89q.543-.628,1.122-1.223a47.128,47.128,0,0,0,4.846,3.91,47.846,47.846,0,0,0,.98,6.238q-.577.144-1.161.26ZM30.6,18.287q-1.157-.729-2.343-1.411-1.167-.672-2.362-1.293c1.364-.573,2.7-1.063,4-1.462a41.9,41.9,0,0,1,.706,4.167Zm-12.37-7.466c1.463-4.258,3.629-6.855,5.3-6.856,1.778,0,4.088,2.8,5.6,7.355q.147.445.278.9a47.1,47.1,0,0,0-5.812,2.234A46.141,46.141,0,0,0,17.8,12.19Q17.994,11.5,18.227,10.821ZM17.306,14.1a42.106,42.106,0,0,1,3.978,1.477q-2.417,1.247-4.709,2.717C16.76,16.822,17.005,15.416,17.306,14.1Zm-.727,17.62q1.143.732,2.319,1.409,1.2.691,2.432,1.324a41.852,41.852,0,0,1-4.012,1.529C17.014,34.639,16.765,33.208,16.578,31.715ZM29.126,38.95a16.642,16.642,0,0,1-2.848,5.366h0a4.061,4.061,0,0,1-2.733,1.718c-1.675,0-3.813-2.5-5.267-6.66q-.257-.738-.473-1.49a46.249,46.249,0,0,0,5.817-2.322,47.841,47.841,0,0,0,5.859,2.251q-.164.573-.355,1.137ZM29.96,35.9c-1.309-.4-2.669-.9-4.053-1.485q1.17-.616,2.357-1.3,1.218-.7,2.374-1.442A41.75,41.75,0,0,1,29.96,35.9ZM30.986,25q0,2.1-.131,4.187c-1.133.767-2.329,1.516-3.574,2.234s-2.468,1.373-3.672,1.969q-1.9-.911-3.73-1.964t-3.553-2.229q-.159-2.091-.16-4.19h0q0-2.1.156-4.19c1.133-.774,2.32-1.522,3.548-2.231s2.477-1.367,3.714-1.961q1.878.913,3.689,1.956t3.563,2.2q.15,2.1.15,4.213Zm2.2-11.713c4.419-.86,7.751-.281,8.586,1.164.889,1.54-.385,4.942-3.574,8.525h0q-.264.3-.548.6a46.14,46.14,0,0,0-4.931-3.882,46.093,46.093,0,0,0-.933-6.093q.714-.176,1.4-.31Zm-.3,8.935a41.779,41.779,0,0,1,3.361,2.732,41.674,41.674,0,0,1-3.35,2.779q.053-1.366.053-2.733,0-1.389-.063-2.778Zm8.9,13.314c-.836,1.452-4.066,2.057-8.4,1.237q-.745-.141-1.529-.335a46.16,46.16,0,0,0,.891-6.168,45.859,45.859,0,0,0,4.915-3.947q.406.422.772.839h0a16.639,16.639,0,0,1,3.227,5.147,4.061,4.061,0,0,1,.124,3.226Z" transform="translate(-3.104 -2)" fill="#ffc200"/>
</svg>
