<svg xmlns="http://www.w3.org/2000/svg" width="28.001" height="28" viewBox="0 0 28.001 28">
  <g id="realEstate" transform="translate(-2 -2)">
    <path id="Path_792" data-name="Path 792" d="M28.476,19.852,16,12.174,3.524,19.852a1,1,0,1,1-1.047-1.7l13-8a1,1,0,0,1,1.048,0l13,8a1,1,0,1,1-1.049,1.7Z"/>
    <path id="Path_793" data-name="Path 793" d="M18.5,22h-5a.5.5,0,0,0-.5.5V30H6V20.089l10-6.153L26,20.09V30H19V22.5A.5.5,0,0,0,18.5,22ZM28,2V8.23a.318.318,0,0,1-.544.225L25.384,6.383l-3.5,3.5a1.25,1.25,0,0,1-1.527.188L16.008,7.462,2,16.083V13.148L15.345,4.936a1.248,1.248,0,0,1,1.3-.007l4.163,2.5,2.81-2.81L21.545,2.545A.319.319,0,0,1,21.77,2Z"/>
  </g>
</svg>
