<svg xmlns="http://www.w3.org/2000/svg" width="48.8" height="48.8" viewBox="0 0 48.8 48.8">
  <path id="realestate-icon" d="M6.1,9.15a3.05,3.05,0,1,1,6.1,0H51.85a3.05,3.05,0,1,1,0,6.1H12.2V53.375A1.525,1.525,0,0,1,10.675,54.9H7.625A1.525,1.525,0,0,1,6.1,53.375Zm9.15,10.675A1.525,1.525,0,0,1,16.775,18.3h33.55a1.525,1.525,0,0,1,1.525,1.525v21.35A7.625,7.625,0,0,1,44.225,48.8H22.875a7.625,7.625,0,0,1-7.625-7.625Zm9.15,21.35A1.525,1.525,0,0,0,25.925,42.7h3.05A1.525,1.525,0,0,0,30.5,41.175v-3.05A1.525,1.525,0,0,1,32.025,36.6h3.05A1.525,1.525,0,0,1,36.6,38.125v3.05A1.525,1.525,0,0,0,38.125,42.7h3.05A1.525,1.525,0,0,0,42.7,41.175V33.4a3.05,3.05,0,0,0-1.025-2.281L34.562,24.8a1.525,1.525,0,0,0-2.025,0L25.424,31.11A3.05,3.05,0,0,0,24.4,33.4Z" transform="translate(-6.1 -6.1)" fill="#ffc200"/>
</svg>
