<svg xmlns="http://www.w3.org/2000/svg" width="25.85" height="26.25" viewBox="0 0 25.85 26.25">
  <g id="research" transform="translate(-2.275 -1.875)">
    <path id="Path_733" data-name="Path 733" d="M18.75,18.75h9.375v1.875H18.75Zm0,3.75h9.375v1.875H18.75Zm0,3.75h9.375v1.875H18.75ZM15,18.75A3.668,3.668,0,0,1,11.25,15,3.668,3.668,0,0,1,15,11.25,3.668,3.668,0,0,1,18.75,15h1.875A5.625,5.625,0,1,0,15,20.625Z" fill="#091020"/>
    <path id="Path_734" data-name="Path 734" d="M27.473,10.354,25.26,6.521a1.873,1.873,0,0,0-2.226-.839l-2.282.773a10.355,10.355,0,0,0-1.23-.711l-.472-2.362a1.875,1.875,0,0,0-1.839-1.507H12.787a1.875,1.875,0,0,0-1.838,1.507l-.472,2.362a10.28,10.28,0,0,0-1.244.706L6.963,5.682a1.873,1.873,0,0,0-2.224.839L2.527,10.354A1.875,1.875,0,0,0,2.912,12.7l1.81,1.591c-.016.236-.036.471-.036.71s.009.481.026.718L2.913,17.3a1.875,1.875,0,0,0-.387,2.346l2.212,3.833a1.873,1.873,0,0,0,2.226.839l2.282-.773a10.289,10.289,0,0,0,1.23.712l.472,2.361a1.875,1.875,0,0,0,1.839,1.507H15V26.25H12.787l-.666-3.328a8.528,8.528,0,0,1-2.527-1.474L6.363,22.541,4.151,18.709l2.555-2.245A8.368,8.368,0,0,1,6.7,13.531L4.151,11.29,6.363,7.459,9.576,8.546a8.466,8.466,0,0,1,2.545-1.468l.666-3.328h4.425l.666,3.328A8.529,8.529,0,0,1,20.4,8.552l3.232-1.093,2.213,3.832-2.623,2.3L24.461,15l2.625-2.3a1.875,1.875,0,0,0,.387-2.346Z" fill="#091020"/>
  </g>
</svg>
