<svg xmlns="http://www.w3.org/2000/svg" width="43.75" height="41.667" viewBox="0 0 43.75 41.667">
  <path id="retail-icon" d="M15.625,23.958V19.792h18.75v4.167ZM8.333,6.25A4.167,4.167,0,0,0,6.25,14.025V42.188A1.563,1.563,0,0,0,7.813,43.75H12.5V32.813a1.563,1.563,0,0,1,1.563-1.562H22.4a1.563,1.563,0,0,1,1.563,1.563v.521a5.2,5.2,0,0,1,4.167-2.083H43.75V14.025A4.167,4.167,0,0,0,41.667,6.25ZM7.292,10.417A1.042,1.042,0,0,1,8.333,9.375H41.667a1.042,1.042,0,1,1,0,2.083H8.333a1.042,1.042,0,0,1-1.042-1.042Zm6.771,6.25H35.938A1.562,1.562,0,0,1,37.5,18.229v7.292a1.562,1.562,0,0,1-1.562,1.563H14.063A1.563,1.563,0,0,1,12.5,25.521V18.229a1.563,1.563,0,0,1,1.563-1.562Zm6.771,17.708V43.75H15.625V34.375ZM25,36.458a3.125,3.125,0,0,1,3.125-3.125H44.792a3.125,3.125,0,0,1,3.125,3.125v8.333a3.125,3.125,0,0,1-3.125,3.125H28.125A3.125,3.125,0,0,1,25,44.792ZM45.833,37.5a2.083,2.083,0,0,1-2.083-2.083H41.667a4.167,4.167,0,0,0,4.167,4.167Zm0,4.167a4.167,4.167,0,0,0-4.167,4.167H43.75a2.083,2.083,0,0,1,2.083-2.083Zm-16.667-6.25A2.083,2.083,0,0,1,27.083,37.5v2.083a4.167,4.167,0,0,0,4.167-4.167ZM31.25,45.833a4.167,4.167,0,0,0-4.167-4.167V43.75a2.083,2.083,0,0,1,2.083,2.083ZM40.1,40.625A3.646,3.646,0,1,0,39.036,43.2,3.646,3.646,0,0,0,40.1,40.625Z" transform="translate(-4.167 -6.25)" fill="#ffc200"/>
</svg>
