<svg xmlns="http://www.w3.org/2000/svg" width="40.553" height="43.995" viewBox="0 0 40.553 43.995">
  <path id="c62560f0544f2e70b69aba1378234547" d="M45.508,9.192a9.083,9.083,0,0,1-7.867,9c-.824.1-1.683.1-2.508.275a3.624,3.624,0,0,0-2.061,5.874,4.006,4.006,0,0,0,2.851,1.271,15.976,15.976,0,0,1,3.4.55,8.613,8.613,0,0,1,6.046,7.283,9.135,9.135,0,0,1-7.077,10.306,9.135,9.135,0,0,1-10-13.4,5.2,5.2,0,0,0,.721-2.577,3.586,3.586,0,0,0-2.542-3.264,3.38,3.38,0,0,0-3.71,1.1c-.584.721-1.065,1.546-1.649,2.267a8.627,8.627,0,0,1-9.035,3.057A8.756,8.756,0,0,1,5.246,24.17a9.072,9.072,0,0,1,7.077-11.2,8.759,8.759,0,0,1,9.207,3.607,14.137,14.137,0,0,0,1.512,1.958,3.6,3.6,0,0,0,5.943-1.615,4.064,4.064,0,0,0-.447-2.886,10.606,10.606,0,0,1-1.408-5.29A9.2,9.2,0,0,1,45.371,7.509C45.439,8.058,45.474,8.642,45.508,9.192Z" transform="translate(-4.955 0.022)" fill="#03a1dc"/>
</svg>
