<svg xmlns="http://www.w3.org/2000/svg" width="30.963" height="31.831" viewBox="0 0 30.963 31.831">
  <g id="security-centric" transform="translate(-1.623 -1.247)">
    <path id="Path_804" data-name="Path 804" d="M27.28,6.575,16.958,3.3,6.636,6.608a4.31,4.31,0,0,0-2.974,4.655c.98,7.273,4,19.459,13.166,19.459s12.283-12.164,13.4-19.394A4.31,4.31,0,0,0,27.28,6.575ZM24.5,11.241,17.831,22.155a1.762,1.762,0,0,1-3.017-.022L11.3,16.2a1.756,1.756,0,0,1,.614-2.446,1.778,1.778,0,0,1,2.424.614l2,3.4,5.15-8.329a1.767,1.767,0,1,1,3.006,1.8Z" transform="translate(0.155 0.159)" fill="#ffc200"/>
    <path id="Path_805" data-name="Path 805" d="M28.093,4.687,17.48,1.3a.98.98,0,0,0-.657,0L6.134,4.709a6.465,6.465,0,0,0-4.45,7.046c1.077,7.962,4.493,21.323,15.3,21.323s14.308-13.35,15.537-21.323a6.465,6.465,0,0,0-4.428-7.068Zm3.362,6.95c-1.077,7.2-4.5,20.321-14.47,20.321S3.721,18.748,2.751,11.561A5.387,5.387,0,0,1,6.457,5.732l10.656-3.4L27.726,5.711a5.387,5.387,0,0,1,3.728,5.926Z" transform="translate(0 0)" fill="#ffc200"/>
    <path id="Path_806" data-name="Path 806" d="M27.681,5.633,17.036,2.25,6.38,5.655a5.387,5.387,0,0,0-3.706,5.829c.97,7.187,4.127,20.4,14.233,20.4s13.36-13.123,14.47-20.321a5.387,5.387,0,0,0-3.7-5.926ZM30.31,11.4c-1.077,7.24-4.31,19.394-13.4,19.394S4.72,18.616,3.74,11.344A4.31,4.31,0,0,1,6.714,6.689L17.036,3.381,27.314,6.614a4.31,4.31,0,0,1,3,4.784Z" transform="translate(0.078 0.078)" fill="#ffc200"/>
  </g>
</svg>
