<svg xmlns="http://www.w3.org/2000/svg" width="31.567" height="29.115" viewBox="0 0 31.567 29.115">
  <path id="smartContract" d="M16.2,1027.67h.01a1.672,1.672,0,0,1,1.682,1.691v2.255H17.9v.564H37.059v19.73a1.675,1.675,0,0,1-1.691,1.691H32.549v-2.62c.132,0,.3,0,.474.011s.39.011.573,0a1.4,1.4,0,0,0,.275-.033.7.7,0,0,0,.594-.6,1.861,1.861,0,0,0,.027-.277q.008-.285,0-.57c-.007-.192-.016-.381-.016-.515v-.021c.008,0,.011-.011.02-.011.115-.069.28-.158.449-.248s.342-.188.5-.287a1.912,1.912,0,0,0,.222-.165.605.605,0,0,0,.245-.372.593.593,0,0,0-.032-.445,1.825,1.825,0,0,0-.114-.255q-.135-.251-.289-.492c-.1-.162-.2-.321-.271-.437l-.009-.018a.081.081,0,0,1,.009-.02c.065-.117.163-.28.264-.443s.2-.33.286-.494a1.838,1.838,0,0,0,.11-.257.6.6,0,0,0,.026-.445.589.589,0,0,0-.248-.368,1.8,1.8,0,0,0-.228-.162c-.154-.1-.327-.189-.5-.28s-.335-.177-.451-.245c-.01,0-.012-.011-.02-.013v-.023c0-.135,0-.321.009-.513s.009-.39,0-.573a1.805,1.805,0,0,0-.03-.275.6.6,0,0,0-.2-.4.6.6,0,0,0-.4-.2,1.719,1.719,0,0,0-.277-.028,4.879,4.879,0,0,0-.57.011c-.192.011-.38.016-.515.016h-.024l-.011-.021c-.069-.115-.154-.282-.247-.451s-.185-.332-.286-.493a1.824,1.824,0,0,0-.165-.225.6.6,0,0,0-.374-.241.625.625,0,0,0-.445.028,1.8,1.8,0,0,0-.253.114q-.252.136-.494.291c-.162.1-.319.2-.436.268-.009.011-.011.011-.019.011s-.011,0-.02-.011q-.222-.127-.44-.262-.243-.153-.5-.287a1.922,1.922,0,0,0-.255-.112.6.6,0,0,0-.445-.024.6.6,0,0,0-.37.247,1.8,1.8,0,0,0-.164.225c-.1.156-.189.329-.28.5s-.177.338-.245.454l-.011.02h-.024c-.135,0-.319,0-.511-.011s-.392-.011-.575,0a1.406,1.406,0,0,0-.275.033.694.694,0,0,0-.594.6,1.831,1.831,0,0,0-.027.275q-.008.285,0,.57c.007.192.016.381.016.515v.021c-.008,0-.009.011-.018.011-.115.068-.282.158-.451.25s-.339.185-.494.284a1.821,1.821,0,0,0-.224.166.7.7,0,0,0-.213.817,1.943,1.943,0,0,0,.114.255c.086.162.189.328.291.492s.2.321.268.437l.009.02-.009.02c-.065.117-.163.276-.264.44s-.2.326-.284.494a1.83,1.83,0,0,0-.113.258.6.6,0,0,0-.026.444.607.607,0,0,0,.248.371,1.938,1.938,0,0,0,.228.162c.154.1.327.189.5.28s.338.177.454.245c.009,0,.01.011.017.011v.023c0,.135,0,.323-.009.515s-.007.388,0,.57a1.732,1.732,0,0,0,.032.275.585.585,0,0,0,.2.4h0a.6.6,0,0,0,.4.2,1.7,1.7,0,0,0,.275.03,4.891,4.891,0,0,0,.573-.011c.156-.011.293-.011.416-.011v2.585H13.929a2.785,2.785,0,0,0,.582-1.691v-22.548a1.675,1.675,0,0,1,1.691-1.691Zm2.24,0H39.877a1.675,1.675,0,0,1,1.691,1.691v1.691H37.726a.377.377,0,0,0-.113-.011.294.294,0,0,0-.1.011H19.02v-1.691A2.787,2.787,0,0,0,18.441,1027.67Zm-1.675,6.765v1.127H34.8v-1.127Zm0,3.382v1.127H34.8v-1.127Zm0,3.382v1.127H23.53V1041.2Zm14.259.132c.051.087.1.165.154.271.09.164.184.333.273.485.045.076.09.147.141.218a.648.648,0,0,0,.259.242h0a.638.638,0,0,0,.34.1,1.954,1.954,0,0,0,.256.013c.176,0,.371-.011.557-.018h.313c0,.1,0,.194,0,.316,0,.186-.011.378-.009.553a2.458,2.458,0,0,0,.012.258.771.771,0,0,0,.352.6c.072.051.141.092.216.136.152.088.327.179.492.266.106.056.186.1.273.152-.05.087-.1.169-.158.271-.1.16-.2.325-.285.478-.043.077-.083.149-.118.229a.65.65,0,0,0-.081.348.641.641,0,0,0,.086.348,2.545,2.545,0,0,0,.121.225c.088.153.192.318.291.477.064.1.11.182.161.268-.087.051-.166.1-.271.157-.165.089-.338.18-.489.271a2.507,2.507,0,0,0-.216.139.641.641,0,0,0-.244.259.653.653,0,0,0-.1.346,2.438,2.438,0,0,0-.011.257c0,.176.009.369.015.556,0,.119,0,.214,0,.315h-.312c-.187,0-.381-.014-.557-.011a1.482,1.482,0,0,0-.256.016.664.664,0,0,0-.34.1h0a.644.644,0,0,0-.258.245c-.051.071-.092.144-.136.22-.088.152-.18.323-.268.489-.056.106-.1.186-.15.273-.088-.05-.17-.094-.273-.157-.16-.1-.322-.2-.476-.286a2.312,2.312,0,0,0-.229-.118.657.657,0,0,0-.349-.081.641.641,0,0,0-.349.086,2.538,2.538,0,0,0-.225.121c-.153.088-.316.192-.474.291-.1.064-.185.108-.271.158-.052-.086-.1-.165-.156-.271-.089-.163-.183-.333-.273-.485-.045-.074-.087-.147-.139-.218a.639.639,0,0,0-.259-.241.648.648,0,0,0-.344-.1,1.945,1.945,0,0,0-.257-.013c-.177,0-.371.011-.558.016h-.312c0-.1,0-.194,0-.313,0-.187.011-.379.009-.555a2.548,2.548,0,0,0-.014-.258.761.761,0,0,0-.351-.6q-.105-.073-.218-.135c-.152-.089-.326-.181-.49-.267-.106-.057-.186-.1-.273-.152.05-.087.1-.168.158-.271.1-.159.2-.325.284-.478.043-.077.085-.149.12-.229a.669.669,0,0,0,.081-.35.628.628,0,0,0-.086-.346,2.43,2.43,0,0,0-.122-.227q-.139-.24-.287-.476c-.064-.1-.111-.182-.161-.269.087-.051.166-.1.271-.156.165-.09.336-.18.487-.271a2.528,2.528,0,0,0,.215-.14.767.767,0,0,0,.344-.605,2.44,2.44,0,0,0,.011-.257c0-.176-.009-.369-.016-.555,0-.121,0-.214,0-.316h.313c.186,0,.381.013.557.011.088,0,.169-.011.255-.016a.664.664,0,0,0,.344-.1.651.651,0,0,0,.258-.244c.051-.071.094-.144.139-.221.088-.152.178-.324.266-.488.056-.106.1-.186.15-.273.087.05.169.094.273.156.159.1.322.2.476.286.077.043.151.082.231.117a.655.655,0,0,0,.347.083.647.647,0,0,0,.348-.088c.079-.036.153-.076.229-.12.152-.088.313-.192.471-.291.1-.064.184-.108.271-.158Zm-1.308,2.318a.568.568,0,0,0-.488.233,1.3,1.3,0,0,0-.163.228,5.1,5.1,0,0,0-.237.467c-.074.158-.143.316-.2.427,0,.011,0,.011-.007.012H28.61c-.121.019-.289.039-.461.064a5.141,5.141,0,0,0-.513.09,1.232,1.232,0,0,0-.262.09.579.579,0,0,0-.365.4.589.589,0,0,0,.068.543,1.389,1.389,0,0,0,.163.228c.113.131.239.251.365.372s.253.234.338.321c.007,0,.007.011.011.011v.016c-.019.122-.051.29-.081.462a4.887,4.887,0,0,0-.073.522,1.308,1.308,0,0,0,0,.28.583.583,0,0,0,.264.478.573.573,0,0,0,.533.1,1.266,1.266,0,0,0,.262-.086,5.192,5.192,0,0,0,.466-.238c.151-.084.3-.169.4-.227.007,0,.008,0,.014-.011s.009,0,.015.011c.109.055.257.136.41.22a4.673,4.673,0,0,0,.464.233,1.278,1.278,0,0,0,.264.081.569.569,0,0,0,.53-.108.581.581,0,0,0,.26-.48,1.271,1.271,0,0,0,0-.28,5.163,5.163,0,0,0-.079-.519c-.034-.174-.068-.342-.088-.463,0-.011,0-.011,0-.016s.007-.011.011-.011c.086-.087.21-.2.335-.326s.25-.245.361-.376a1.283,1.283,0,0,0,.161-.229.59.59,0,0,0,.061-.545.58.58,0,0,0-.372-.4,1.217,1.217,0,0,0-.262-.086,4.825,4.825,0,0,0-.513-.083c-.172-.023-.34-.042-.46-.06h-.016s0-.011-.007-.013c-.056-.109-.127-.265-.2-.423a5.188,5.188,0,0,0-.245-.464,1.307,1.307,0,0,0-.165-.225.578.578,0,0,0-.492-.229Zm-12.952.931v1.127H22.4v-1.127Zm12.963.729c.032.067.063.134.095.2s.071.135.113.2a.6.6,0,0,0,.215.248.59.59,0,0,0,.3.127,2.195,2.195,0,0,0,.225.043c.07.011.144.019.216.028-.053.052-.109.1-.158.153s-.108.111-.158.169a.652.652,0,0,0-.162.287.623.623,0,0,0-.028.327c.007.079.016.154.028.232s.028.144.042.218c-.064-.035-.129-.073-.192-.106s-.138-.068-.209-.1a.607.607,0,0,0-.319-.07.614.614,0,0,0-.319.074q-.106.045-.207.1c-.062.033-.125.07-.189.106.014-.073.027-.146.037-.215s.021-.154.027-.231a.616.616,0,0,0-.032-.328.607.607,0,0,0-.169-.284q-.075-.088-.158-.169t-.159-.153c.072-.011.147-.017.215-.028s.149-.027.225-.045a.756.756,0,0,0,.514-.381c.041-.068.073-.135.108-.205s.064-.132.095-.2ZM10,1050.218h3.382v1.691a1.691,1.691,0,1,1-3.382,0Zm6.764,0v1.127H23.53v-1.127Zm13.529,1.825c.141.086.284.175.423.246a1.753,1.753,0,0,0,.255.11.6.6,0,0,0,.448.025h0v4.323l-1.6-1.006-1.781,1.044v-4.375a.378.378,0,0,0,.077.034.611.611,0,0,0,.445-.029,1.885,1.885,0,0,0,.254-.113c.116-.061.236-.139.354-.212v2.074h1.127Z" transform="translate(-10.001 -1027.67)"/>
</svg>
