<svg xmlns="http://www.w3.org/2000/svg" width="23.429" height="29.857" viewBox="0 0 23.429 29.857">
  <g id="strategy-icon" transform="translate(-3.286 -0.071)">
    <path id="Path_735" data-name="Path 735" d="M20.358,3.214h3.214a2.143,2.143,0,0,1,2.143,2.143V26.786a2.143,2.143,0,0,1-2.143,2.143H6.429a2.143,2.143,0,0,1-2.143-2.143V5.357A2.143,2.143,0,0,1,6.429,3.214H9.643" fill="none" stroke="#091020" stroke-linecap="round" stroke-linejoin="round" stroke-width="2"/>
    <path id="Path_736" data-name="Path 736" d="M15.969,18.928l5.357,5.357m0-5.357-5.357,5.357M18.215,1.071H11.787A2.143,2.143,0,0,0,9.644,3.214V4.286a2.143,2.143,0,0,0,2.143,2.143h6.429a2.143,2.143,0,0,0,2.143-2.143V3.214a2.143,2.143,0,0,0-2.143-2.143ZM8.671,13.292A2.679,2.679,0,1,0,9.455,11.4,2.678,2.678,0,0,0,8.671,13.292Z" fill="none" stroke="#091020" stroke-linecap="round" stroke-linejoin="round" stroke-width="2"/>
  </g>
</svg>
