<svg xmlns="http://www.w3.org/2000/svg" width="52.572" height="46" viewBox="0 0 52.572 46">
  <path id="_00313331b6730fd5955cf99619c945ec" data-name="00313331b6730fd5955cf99619c945ec" d="M32.4,1C55.515,16.423,48.021,33.371,48.021,33.371S54.586,40.636,51.947,47c0,0-2.724-4.446-7.245-4.446-4.37,0-6.956,4.446-15.778,4.446C9.3,47,0,30.92,0,30.92c17.684,11.434,29.765,3.332,29.765,3.332C21.781,29.724,4.846,8.041,4.846,8.041,19.609,20.366,25.98,23.6,25.98,23.6,22.149,20.527,11.474,5.455,11.474,5.455,20.017,13.929,37,25.745,37,25.745,41.867,12.687,32.4,1,32.4,1Z" transform="translate(0 -1)" fill="#ffc200"/>
</svg>
