<svg width="246" height="64" viewBox="0 0 246 64" fill="none" xmlns="http://www.w3.org/2000/svg">
<path d="M23 17L23 59" stroke="#FFC200" stroke-width="3" stroke-linecap="square"/>
<path d="M28.0182 5.07605V13.3415L50.8104 26.0111V17.9415L28.0182 5.07605ZM26.2223 2L52.6063 16.8929V29.0641L26.2223 14.398V2Z" fill="white"/>
<path d="M1.09433 27.4434L7.92035 31.9382V42.5619L19.5891 57.8114L19.6981 17.3208L7.92071 23.8868V31.6509" stroke="#FFC200" stroke-width="1.7"/>
<path d="M24.5881 5.07605L1.79593 17.9415V26.0111L24.5881 13.3415V5.07605ZM26.384 2V14.398L0 29.0641V16.8929L26.384 2Z" fill="white"/>
<path d="M51.434 27.1698L44.2297 32.2362V42.7451L28.4528 53.4339V40.9819L34.1589 37.3687V18.415L44.2297 24.1835V31.9508" stroke="white" stroke-width="1.7"/>
<path d="M75.92 60V51.95H76.886V60H75.92ZM78.7276 60V51.95H80.6021L83.4081 59.3905H83.5576V51.95H84.5121V60H82.6376L79.8431 52.548H79.6821V60H78.7276ZM86.3643 60V51.95H88.2388L91.0448 59.3905H91.1943V51.95H92.1488V60H90.2743L87.4798 52.548H87.3188V60H86.3643ZM96.9221 60.161C95.0016 60.161 93.7711 59.0225 93.7711 56.895V55.055C93.7711 52.9275 95.0016 51.789 96.9221 51.789C98.8541 51.789 100.085 52.9275 100.085 55.055V56.895C100.085 59.0225 98.8541 60.161 96.9221 60.161ZM96.9221 59.2985C98.3136 59.2985 99.1186 58.413 99.1186 56.9295V55.0205C99.1186 53.537 98.3136 52.6515 96.9221 52.6515C95.5421 52.6515 94.7371 53.537 94.7371 55.0205V56.9295C94.7371 58.413 95.5421 59.2985 96.9221 59.2985ZM103.319 60L100.893 51.95H101.893L104.09 59.4135H104.239L106.436 51.95H107.436L105.01 60H103.319ZM107.418 60L109.902 51.95H111.604L114.088 60H113.087L112.466 57.9645H109.039L108.418 60H107.418ZM109.292 57.0905H112.213L110.833 52.5365H110.672L109.292 57.0905ZM116.407 60V52.824H113.82V51.95H119.961V52.824H117.373V60H116.407ZM121.19 60V51.95H126.147V52.824H122.156V55.515H125.825V56.389H122.156V59.126H126.204V60H121.19ZM130.244 60V59.1375H131.371V52.8125H130.244V51.95H134.281C135.695 51.95 136.684 52.755 136.684 53.974V54.066C136.684 55.193 135.925 55.676 135.362 55.8485V56.0095C135.937 56.1475 136.696 56.6535 136.696 57.7805V57.8955C136.696 59.218 135.661 60 134.269 60H130.244ZM132.337 55.5035H134.2C135.132 55.5035 135.718 54.9975 135.718 54.227V54.112C135.718 53.33 135.132 52.824 134.2 52.824H132.337V55.5035ZM132.337 59.126H134.166C135.178 59.126 135.73 58.62 135.73 57.8035V57.7C135.73 56.8835 135.178 56.3775 134.166 56.3775H132.337V59.126ZM138.227 60V51.95H143.183V52.824H139.193V55.515H142.861V56.389H139.193V59.126H143.241V60H138.227ZM146.811 60V56.9295L143.948 51.95H145.052L147.214 55.8025H147.375L149.537 51.95H150.641L147.777 56.9295V60H146.811ZM154.332 60.161C152.412 60.161 151.181 59.0225 151.181 56.895V55.055C151.181 52.9275 152.412 51.789 154.332 51.789C156.264 51.789 157.495 52.9275 157.495 55.055V56.895C157.495 59.0225 156.264 60.161 154.332 60.161ZM154.332 59.2985C155.724 59.2985 156.529 58.413 156.529 56.9295V55.0205C156.529 53.537 155.724 52.6515 154.332 52.6515C152.952 52.6515 152.147 53.537 152.147 55.0205V56.9295C152.147 58.413 152.952 59.2985 154.332 59.2985ZM159.104 60V51.95H160.979L163.785 59.3905H163.934V51.95H164.889V60H163.014L160.22 52.548H160.059V60H159.104ZM166.361 60V59.1375H167.488V52.8125H166.361V51.95H169.501C171.617 51.95 172.824 53.008 172.824 55.2275V56.7225C172.824 58.9535 171.617 60 169.501 60H166.361ZM168.454 59.126H169.501C171.053 59.126 171.87 58.39 171.87 56.7685V55.193C171.87 53.56 171.053 52.8355 169.501 52.8355H168.454V59.126ZM176.94 60V59.1375H178.067V52.8125H176.94V51.95H180.977C182.391 51.95 183.38 52.755 183.38 53.974V54.066C183.38 55.193 182.621 55.676 182.058 55.8485V56.0095C182.633 56.1475 183.392 56.6535 183.392 57.7805V57.8955C183.392 59.218 182.357 60 180.965 60H176.94ZM179.033 55.5035H180.896C181.828 55.5035 182.414 54.9975 182.414 54.227V54.112C182.414 53.33 181.828 52.824 180.896 52.824H179.033V55.5035ZM179.033 59.126H180.862C181.874 59.126 182.426 58.62 182.426 57.8035V57.7C182.426 56.8835 181.874 56.3775 180.862 56.3775H179.033V59.126ZM187.844 60.161C185.923 60.161 184.693 59.0225 184.693 56.895V55.055C184.693 52.9275 185.923 51.789 187.844 51.789C189.776 51.789 191.006 52.9275 191.006 55.055V56.895C191.006 59.0225 189.776 60.161 187.844 60.161ZM187.844 59.2985C189.235 59.2985 190.04 58.413 190.04 56.9295V55.0205C190.04 53.537 189.235 52.6515 187.844 52.6515C186.464 52.6515 185.659 53.537 185.659 55.0205V56.9295C185.659 58.413 186.464 59.2985 187.844 59.2985ZM195.525 60.161C193.731 60.161 192.558 59.1835 192.558 57.309V51.95H193.524V57.3205C193.524 58.6315 194.249 59.2985 195.525 59.2985C196.802 59.2985 197.538 58.6315 197.538 57.3205V51.95H198.504V57.309C198.504 59.1835 197.331 60.161 195.525 60.161ZM200.275 60V51.95H202.149L204.955 59.3905H205.105V51.95H206.059V60H204.185L201.39 52.548H201.229V60H200.275ZM207.532 60V59.1375H208.659V52.8125H207.532V51.95H210.672C212.788 51.95 213.995 53.008 213.995 55.2275V56.7225C213.995 58.9535 212.788 60 210.672 60H207.532ZM209.625 59.126H210.672C212.224 59.126 213.041 58.39 213.041 56.7685V55.193C213.041 53.56 212.224 52.8355 210.672 52.8355H209.625V59.126ZM214.792 60L217.276 51.95H218.978L221.462 60H220.462L219.841 57.9645H216.414L215.793 60H214.792ZM216.667 57.0905H219.588L218.208 52.5365H218.047L216.667 57.0905ZM222.669 60V51.95H225.923C227.407 51.95 228.453 52.755 228.453 54.089V54.2155C228.453 55.2735 227.867 55.8715 227.177 56.09V56.251C227.729 56.274 228.131 56.6075 228.131 57.2975V60H227.177V57.4125C227.177 56.9525 226.935 56.6995 226.418 56.6995H223.635V60H222.669ZM223.635 55.8255H225.831C226.878 55.8255 227.487 55.285 227.487 54.365V54.2845C227.487 53.353 226.901 52.824 225.831 52.824H223.635V55.8255ZM229.923 60V51.95H230.889V60H229.923ZM232.731 60V51.95H237.688V52.824H233.697V55.515H237.366V56.389H233.697V59.126H237.745V60H232.731ZM241.891 60.161C240.131 60.161 238.843 59.2295 238.843 57.3435V57.102H239.798V57.3435C239.798 58.689 240.66 59.3215 241.891 59.3215C243.144 59.3215 243.823 58.689 243.823 57.8265C243.823 56.941 243.11 56.642 242.029 56.389L241.431 56.2395C240.005 55.8945 239.039 55.3425 239.039 53.9855C239.039 52.6285 240.131 51.789 241.753 51.789C243.374 51.789 244.616 52.6285 244.616 54.273V54.756H243.662V54.273C243.662 53.1115 242.857 52.6285 241.753 52.6285C240.683 52.6285 239.993 53.1115 239.993 53.974C239.993 54.8365 240.626 55.124 241.695 55.3885L242.293 55.538C243.685 55.86 244.777 56.389 244.777 57.8035C244.777 59.2295 243.639 60.161 241.891 60.161Z" fill="white"/>
<path d="M144.584 42V15.792H135.134V12.6H157.562V15.792H148.112V42H144.584ZM162.051 42V12.6H173.937C179.355 12.6 183.177 15.54 183.177 20.412V20.874C183.177 24.738 181.035 26.922 178.515 27.72V28.308C180.531 28.392 182.001 29.61 182.001 32.13V42H178.515V32.55C178.515 30.87 177.633 29.946 175.743 29.946H165.579V42H162.051ZM165.579 26.754H173.601C177.423 26.754 179.649 24.78 179.649 21.42V21.126C179.649 17.724 177.507 15.792 173.601 15.792H165.579V26.754ZM188.548 42V12.6H192.076V42H188.548ZM206.487 42.588C200.733 42.588 197.163 39.27 197.163 33.18V30.912H200.649V33.18C200.649 36.876 202.581 39.354 206.445 39.354C210.351 39.354 211.821 36.876 211.821 33.18V15.792H206.655V12.6H218.541V15.792H215.349V33.18C215.349 39.312 212.241 42.588 206.487 42.588ZM220.116 42L229.188 12.6H235.404L244.476 42H240.822L238.554 34.566H226.038L223.77 42H220.116ZM226.962 31.374H237.63L232.59 14.742H232.002L226.962 31.374Z" fill="white"/>
<path d="M79.3046 13.2385V12.6881H58V12H80.2857V14.4771H70.7547V22.7339H69.9137V13.6514H78.0431M67.8113 22.1835V14.4771H58V13.6514H68.6523V23.9725H70.7547V42H69.9137V25.0734M68.6523 26.5872H67.8113V38.6972H68.6523V26.5872Z" stroke="#FFC200" stroke-width="0.4"/>
<circle cx="68.25" cy="39.95" r="0.6" stroke="#FFC200" stroke-width="0.3"/>
<circle cx="68.25" cy="41.55" r="0.6" stroke="#FFC200" stroke-width="0.3"/>
<circle cx="88.25" cy="14.75" r="0.6" stroke="#FFC200" stroke-width="0.3"/>
<circle cx="109.85" cy="41.45" r="0.6" stroke="#FFC200" stroke-width="0.3"/>
<path d="M88.5 16.2858H87.4081L78.5714 42.0001H79.6L88.5 16.2858Z" stroke="#FFC200" stroke-width="0.4"/>
<path d="M84.1693 33.3303L81.1429 42H81.9682L85.2698 32.367H94.2116V31.6789H88.0212M92.1481 30.8532H85.9577L86.2328 30.0275H96.1376L93.2487 21.3578H93.9365L97.2381 30.7156H96.1376M96.5503 32.367H97.3757L100.952 42H100.127L96.5503 32.5046M102.466 42H103.429L93.3862 12H90.91L85.6825 28.3761H86.5079L91.0476 13.789L92.4233 18.7431H93.2487L91.5979 13.1009H92.6984L102.466 42Z" stroke="#FFC200" stroke-width="0.4"/>
<path d="M110.386 22.6452V26.9309H109.429V12H113.257L116.401 16.8387L115.718 17.3917L113.257 13.106H110.386V18.3594M112.573 42H111.616V14.6267H112.573L127.886 39.235V40.894L112.573 15.7327V35.9171M109.429 40.341H110.386V28.0369H109.429V40.341ZM116.948 17.6682L116.265 18.2212L129.8 41.447H131.714V12H130.894V38.682H129.8V12H128.843V38.129L116.948 17.6682Z" stroke="#FFC200" stroke-width="0.4"/>
</svg>
