<svg xmlns="http://www.w3.org/2000/svg" width="24.5" height="25.329" viewBox="0 0 24.5 25.329">
  <path id="technology-icon" d="M12.5,6.25,15,3.75M10,20,20,10M15,26.25l2.5-2.5m3.125,0a3.125,3.125,0,1,0-2.21-.915A3.125,3.125,0,0,0,20.625,23.75ZM9.375,12.5a3.125,3.125,0,1,0-2.21-.915A3.125,3.125,0,0,0,9.375,12.5Zm-2.5,13.75a3.125,3.125,0,1,0-2.21-.915A3.125,3.125,0,0,0,6.875,26.25ZM23.125,10a3.125,3.125,0,1,0-2.21-.915A3.125,3.125,0,0,0,23.125,10Z" transform="translate(-2.75 -2.336)" fill="none" stroke="#091020" stroke-linecap="round" stroke-linejoin="round" stroke-width="2"/>
</svg>
