<svg xmlns="http://www.w3.org/2000/svg" xmlns:xlink="http://www.w3.org/1999/xlink" width="30" height="30" viewBox="0 0 30 30">
  <defs>
    <clipPath id="clip-path">
      <rect id="Rectangle_3677" data-name="Rectangle 3677" width="30" height="30" fill="#fff"/>
    </clipPath>
  </defs>
  <g id="transparancy" clip-path="url(#clip-path)">
    <path id="Path_740" data-name="Path 740" d="M0,12.188A12.188,12.188,0,0,1,23.149,6.851a12.188,12.188,0,1,1-16.3,16.3A12.188,12.188,0,0,1,0,12.188ZM9.645,24.109A10.313,10.313,0,1,0,24.109,9.645,12.188,12.188,0,0,1,9.645,24.109ZM8.271,21.729a10.127,10.127,0,0,0,2.145.619L7.652,19.584A10.171,10.171,0,0,0,8.271,21.729Zm4.9.724a10.316,10.316,0,0,0,2.2-.454L8.2,14.831a11.248,11.248,0,0,0-.555,2.1Zm4.044-1.26a10.42,10.42,0,0,0,1.571-1.08l-8.629-8.627a11.237,11.237,0,0,0-1.1,1.549Zm2.9-2.407a10.392,10.392,0,0,0,1.08-1.569l-8.156-8.16a11.244,11.244,0,0,0-1.551,1.1l8.625,8.629ZM22,15.37a10.268,10.268,0,0,0,.454-2.2L16.927,7.646a11.293,11.293,0,0,0-2.1.555L22,15.371Zm.349-4.954a10.315,10.315,0,0,0-.619-2.145,10.312,10.312,0,0,0-2.145-.619Z" fill="#ffc200"/>
  </g>
</svg>
