<svg xmlns="http://www.w3.org/2000/svg" width="59.38" height="47.504" viewBox="0 0 59.38 47.504">
  <path id="travel-icon" d="M33.857,8.333H13.074A8.907,8.907,0,0,0,4.167,17.24V40.992A8.907,8.907,0,0,0,13.074,49.9L10.1,52.868v2.969h2.969l5.938-6.027,5.938.089V35.054H10.1V14.271H36.826v5.938h5.938V17.24a8.907,8.907,0,0,0-8.907-8.907ZM13.074,38.023a2.969,2.969,0,1,1-2.1.87A2.969,2.969,0,0,1,13.074,38.023ZM59.3,25.138a2.977,2.977,0,0,0-2.88-1.96H35.074a3.016,3.016,0,0,0-2.91,1.96l-4.246,12.2V53.7A2.156,2.156,0,0,0,30,55.837h1.841a2.216,2.216,0,0,0,2.019-2.256V49.9H57.609v3.682a2.241,2.241,0,0,0,2.049,2.256h1.811A2.156,2.156,0,0,0,63.547,53.7V37.34Zm-24.227,1.01H56.421l3.058,8.907H32.016ZM33.857,43.961a2.969,2.969,0,1,1,2.1-.87A2.969,2.969,0,0,1,33.857,43.961Zm23.752,0a2.969,2.969,0,1,1,2.1-.87A2.969,2.969,0,0,1,57.609,43.961Z" transform="translate(-4.167 -8.333)" fill="#ffc200"/>
</svg>
