<svg xmlns="http://www.w3.org/2000/svg" width="56.537" height="49.753" viewBox="0 0 56.537 49.753">
  <path id="wallet" d="M65.639,26.077H20.41a2.261,2.261,0,1,1,0-4.523H58.855a2.262,2.262,0,0,0,0-4.523H20.41a6.785,6.785,0,0,0-6.785,6.785V60a6.785,6.785,0,0,0,6.785,6.785h45.23a4.523,4.523,0,0,0,4.523-4.523V30.6a4.523,4.523,0,0,0-4.523-4.523Zm0,36.184H20.41A2.261,2.261,0,0,1,18.148,60V30.213a6.741,6.741,0,0,0,2.262.387h45.23ZM52.07,45.3a3.392,3.392,0,1,1,.994,2.4A3.392,3.392,0,0,1,52.07,45.3Z" transform="translate(-13.625 -17.031)" fill="#091020"/>
</svg>
