<svg xmlns="http://www.w3.org/2000/svg" width="31" height="31.035" viewBox="0 0 31 31.035">
  <g id="_79-Browser" data-name="79-Browser" transform="translate(-3.485 -3.469)">
    <path id="Path_676" data-name="Path 676" d="M33.974,18.986a14.989,14.989,0,1,1-10.3-14.239,14.989,14.989,0,0,1,10.3,14.239Zm-10.3,14.239a14.989,14.989,0,0,0,0-28.479m-9.383,0h0m0,28.479h0" fill="none" stroke="#091020" stroke-width="1"/>
    <line id="Line_192" data-name="Line 192" y2="28.479" transform="translate(18.985 4.747)" fill="none" stroke="#091020" stroke-linecap="round" stroke-linejoin="round" stroke-width="2"/>
    <path id="Path_677" data-name="Path 677" d="M8.78,11a24.829,24.829,0,0,0,4.362,1.709,25.039,25.039,0,0,0,7.045,1.019,25.084,25.084,0,0,0,6.857-.959,25.549,25.549,0,0,0,4.5-1.776M9.027,30.745a25.193,25.193,0,0,1,22.274.022" transform="translate(-1.201 -1.754)" fill="none" stroke="#091020" stroke-width="1"/>
    <line id="Line_193" data-name="Line 193" x2="28.479" transform="translate(4.746 18.986)" fill="none" stroke="#091020" stroke-linecap="round" stroke-linejoin="round" stroke-width="2"/>
    <path id="Path_678" data-name="Path 678" d="M25.371,5l.12.21a27.6,27.6,0,0,1,0,27.924h0M16.947,5l-.12.21a27.572,27.572,0,0,0,.037,27.924h0" transform="translate(-2.271 -0.253)" fill="none" stroke="#091020" stroke-width="1"/>
  </g>
</svg>
